<?xml version="1.0" encoding="UTF-8"?>
<svg preserveAspectRatio="xMidYMid slice" width="1000px" height="619px" xmlns="http://www.w3.org/2000/svg" id="Layer_1" viewBox="0 0 134.32 83.56">
  <path d="m9.49,28.38c-.45-.36-.27-.72.36-1.08,4.84-2.87,7.62-4.22,7.62-8.79,0-6.37-5.92-10.32-16.42-10.41l-.18,58.76,2.6-.54-.63-28.71c-.09-3.95,2.24-8.52,5.02-8.52.63,0,1.17.45,1.7.99,7.46,6.9,14.55,16.66,17.51,31.28.2.99,1.04,1.73,2.05,1.79.27.02.53.03.79.04-3.15-16.24-10.49-27.47-20.44-34.81Zm-1.88-.18c-2.15,1.26-3.68,2.96-4.22,4.93-.09.36-.27.54-.45.54-.27,0-.45-.27-.45-.63V10.71c0-.81.45-1.17.99-1.17,5.74,0,11.84,3.5,11.84,9.42,0,3.95-1.79,5.92-7.71,9.24Z"></path>
  <path d="m19.88,36.14c.39-8.23,2.3-10.99,7.72-10.99,2.87,0,10.14.45,11.84.45,0-6.73-3.14-10.85-7.8-10.85-7.11,0-11.76,6.71-13.22,18.06-.12.93.17,1.88.8,2.57.23.25.45.5.67.76Zm10.15-20.05c4.22,0,7.27,3.05,7.27,7.54,0,.27-.18.36-.45.36-1.17,0-5.83-.18-7.62-.18-3.14,0-5.56.54-7.45,3.41-.18.27-.18.45-.54.45-.18,0-.27-.18-.27-.45,0-6.01,3.59-11.12,9.06-11.12Z"></path>
  <path d="m38.37,31.25l-.99.27c.9,3.05,2.42,8.16,2.42,15.61,0,10.23-4.39,17.85-10.85,17.85-5.38,0-9.15-9.24-9.15-25.03,0-1.38-1.78-2.99-1.83-1.62-.03.91-.05,1.83-.05,2.79,0,16.42,4.58,26.37,11.03,26.37,6.64,0,11.39-9.15,11.39-22.25,0-6.37-1.08-11.57-1.97-13.99Z"></path>
  <path d="m46.45,54.48c.63-.09.9-.36.9-.63s-.18-.45-.45-.63c-1.97-1.35-3.32-2.96-3.32-5.02,0-2.42,5.38-6.19,5.38-7.27,0-.18-.18-.36-.36-.45-3.95-1.7-6.46-6.55-6.46-12.92,0-7.62,4.31-12.11,11.75-12.11,1.97,0,3.5.45,4.84,1.17.18.09.45.09.45-.27,0-.81-.81-2.42-.81-5.83,0-4.84,3.41-9.51,6.01-9.51,1.08,0,2.24.09,3.23.45l-.18,1.79c-1.17-.18-2.51-.27-3.68-.27-3.14,0-4.22,1.88-4.22,6.37v7.27c0,1.26,4.13,2.96,4.13,10.76,0,8.61-4.48,13.99-10.76,13.99-.9,0-1.88-.27-2.69-.27-.9,0-4.75,4.22-4.75,6.28s3.41,5.56,8.52,6.91c9.51,2.78,15.25,6.91,15.25,14.53,0,6.82-4.93,13.64-15.07,13.64-9.33,0-17.13-7.71-17.13-16.24,0-8.07,6.64-11.3,9.42-11.75Zm9.33,25.75c8.88,0,12.11-3.86,12.11-8.07,0-9.42-7.27-13.9-14.53-15.97-1.88-.54-3.68-.81-5.38-.81-5.47,0-9.24,2.6-9.24,8.88,0,9.24,8.07,15.97,17.04,15.97Zm-2.69-40.91c6.82,0,9.42-2.24,9.42-10.14,0-7.89-4.66-12.56-11.48-12.56-4.84,0-7.8,3.59-7.8,9.78,0,7.45,4.31,12.92,9.87,12.92Z"></path>
  <path d="m69.5,36.54c-.45-10.59-2.78-17.58-5.29-20.09l1.26-1.61c1.97,1.97,3.41,5.2,3.77,14.53,0,.45.18.63.45.63.18,0,.36-.18.45-.63.72-6.01,3.32-13.99,7.54-13.99,1.08,0,2.24.09,3.23.27l-.54,1.97c-1.08-.18-2.24-.27-3.32-.27-3.77,0-5.38,2.33-5.38,17.76v31.22s-2.15.54-2.15.54v-30.32Z"></path>
  <path d="m90.76,14.75c4.66,0,7.8,4.13,7.8,10.85-1.7,0-8.97-.45-11.84-.45-6.19,0-7.8,3.59-7.8,14.8,0,15.79,3.77,25.03,9.15,25.03,6.46,0,10.85-7.62,10.85-17.85,0-7.45-1.52-12.56-2.42-15.61l.99-.27c.9,2.42,1.97,7.62,1.97,13.99,0,13.1-4.75,22.25-11.39,22.25s-11.03-9.96-11.03-26.37c0-16.33,5.02-26.37,13.72-26.37Zm-10.41,12.92c.36,0,.36-.18.54-.45,1.88-2.87,4.31-3.41,7.45-3.41,1.79,0,6.46.18,7.62.18.27,0,.45-.09.45-.36,0-4.49-3.05-7.54-7.27-7.54-5.47,0-9.06,5.11-9.06,11.12,0,.27.09.45.27.45Z"></path>
  <path d="m103.32,17.89q0-.45-.45-.45l-4.58.09.27-1.88,4.31.09q.45,0,.45-.45V6.58s2.15-.54,2.15-.54v9.24q0,.45.45.45l10.32-.09-.18,1.88-10.14-.09q-.45,0-.45.45v38.48c0,5.29,1.7,8.61,4.49,8.61s4.84-3.77,4.84-11.3c0-10.32-.99-19.2-2.6-28.35l1.08-.27c1.88,9.33,1.97,18.66,1.97,27.63,0,9.78-2.33,14.8-5.65,14.8-3.68,0-6.28-3.86-6.28-9.87V17.89Z"></path>
  <path d="m117.13,63.37c1.79.81,3.77,1.53,6.1,1.53,5.92,0,8.61-2.69,8.61-7.09,0-6.37-4.13-12.74-7.89-18.66-3.23-4.93-6.1-9.51-6.1-13.64,0-5.29,3.95-10.05,12.38-10.05l-.45,2.15c-8.43.36-11.12,2.69-11.12,5.74,0,4.22,3.59,8.97,7.18,14.08,3.68,5.2,7.36,10.76,7.36,16.51,0,7-3.86,13.19-11.66,13.19-1.79,0-3.95-.63-5.47-1.61l1.08-2.15Z"></path>
</svg>
