<?xml version="1.0" encoding="UTF-8"?>
<svg preserveAspectRatio="xMidYMid slice" width="1000px" height="439px" xmlns="http://www.w3.org/2000/svg" viewBox="0 0 171.55 75">
  <title>Artboard 59</title>
  <path d="M157.23,65.32a6.4,6.4,0,0,0,.68-.27q.34-.12.69-.27c.23-.08.45-.18.68-.28s.46-.17.68-.27.46-.18.69-.28a5.66,5.66,0,0,0,.68-.27l.69-.27c.23-.08.46-.18.68-.28s.46-.17.69-.27.46-.17.68-.27c4-1.38,7.48-6,7.48-14.38,0-3.59-2-4.87-3.78-4.87a2.78,2.78,0,0,0-1.43.39,2.61,2.61,0,0,0-.69.27,3.71,3.71,0,0,0-.68.27,3.44,3.44,0,0,0-.69.28,2.68,2.68,0,0,0-.68.27,3.14,3.14,0,0,0-.68.28,2.61,2.61,0,0,0-.69.27,3.11,3.11,0,0,0-.68.27,3.16,3.16,0,0,0-.54.2A6.72,6.72,0,0,1,159.5,44a33,33,0,0,0,7.14-8.39c2-3.34,3.12-6.58,3.12-8.9,0-5.35-6.78-7.67-10.23-7.67a6,6,0,0,0-2.7.56,3.86,3.86,0,0,0-.68.28,3.54,3.54,0,0,0-.69.27,5.35,5.35,0,0,0-.68.27,3.86,3.86,0,0,0-.68.28,5.51,5.51,0,0,0-.69.27,4.82,4.82,0,0,0-.68.27,4.32,4.32,0,0,0-.69.28,4.82,4.82,0,0,0-.68.27h0a126,126,0,0,0-.47-15.36c-.51-3.32-5.57-5.36-9-5.36a6,6,0,0,0-2.59.54,4.61,4.61,0,0,0-.68.28,4.71,4.71,0,0,0-.69.27,5.07,5.07,0,0,0-.68.27,4.74,4.74,0,0,0-.69.28,5.07,5.07,0,0,0-.68.27,5.24,5.24,0,0,0-.69.28,5.07,5.07,0,0,0-.68.27,5.2,5.2,0,0,0-.69.27,5.11,5.11,0,0,0-.68.28,5.2,5.2,0,0,0-.69.27,5.07,5.07,0,0,0-.68.27,4.61,4.61,0,0,0-.68.28,4.55,4.55,0,0,0-3.25,3.81c-.56,3.35-.94,7.55-1.2,11.87A12.81,12.81,0,0,0,120,18.78,17.33,17.33,0,0,0,113.72,20c-.24.08-.46.18-.69.27s-.45.19-.68.28-.46.18-.68.27-.46.19-.69.28-.45.18-.68.27-.46.18-.69.27-.45.19-.68.28-.46.18-.69.27-.45.18-.68.27-.46.19-.69.28-.45.18-.68.27-.46.19-.69.28a16.65,16.65,0,0,0-8.22,6.25c0-.2,0-.41,0-.6,0-1.54.09-2.66.09-3.45,0-3.74-5.32-5.81-9-5.81a5.51,5.51,0,0,0-2.48.54,4.61,4.61,0,0,0-.68.28,3.81,3.81,0,0,0-.69.27,6,6,0,0,0-.68.27,4.74,4.74,0,0,0-.69.28,4.59,4.59,0,0,0-.68.27,6.19,6.19,0,0,0-.69.27,4.61,4.61,0,0,0-.68.28,7.07,7.07,0,0,0-.69.27,4.61,4.61,0,0,0-.68.28,3.71,3.71,0,0,0-.68.27,5.51,5.51,0,0,0-.69.27,4.61,4.61,0,0,0-.68.28,4.83,4.83,0,0,0-.73.29c-1.49-3.6-6.31-4.58-9-4.58a6,6,0,0,0-2.73.57,3.71,3.71,0,0,0-.68.27,7.07,7.07,0,0,0-.69.27,4.61,4.61,0,0,0-.68.28,3.71,3.71,0,0,0-.68.27,4.32,4.32,0,0,0-.69.28,3.71,3.71,0,0,0-.68.27,5,5,0,0,0-.62.23,33.23,33.23,0,0,0-2.17-8.34C55.52,6.65,50.62,3.15,44.16,3.15a20.23,20.23,0,0,0-8,1.66l-.69.28c-.23.09-.46.17-.68.27l-.69.27-.68.28c-.23.09-.46.17-.68.27L32,6.46c-.23.08-.46.17-.68.27L30.65,7,30,7.28l-.69.27-.68.27-.69.28A19.68,19.68,0,0,0,15.23,26.35c0,.88,0,1.77,0,2.68a6.5,6.5,0,0,0-.61.25c-.23.08-.46.17-.68.27a5.86,5.86,0,0,0-.69.28c-.23.08-.46.17-.68.27a6.65,6.65,0,0,0-.69.28,5.66,5.66,0,0,0-.68.27q-.35.12-.69.27a5.72,5.72,0,0,0-.68.28,6.55,6.55,0,0,0-.69.27c-.23.08-.45.17-.68.27a5.72,5.72,0,0,0-.68.28A10.44,10.44,0,0,0,3,35.86C1.1,38.5.47,41.35,1.26,43.68,2.81,48.21,8.5,51.48,17,52.77c.06.78.11,1.53.16,2.26l-.1,0c-.24.08-.46.18-.69.27l-.68.28c-.24.08-.46.18-.69.27-4.72,1.67-6.8,5.45-6.67,8.85.21,5.5,5.27,8.39,10.16,8.39a11.82,11.82,0,0,0,5-1.1c.23-.09.47-.17.69-.27s.46-.17.68-.28.46-.17.69-.27.46-.17.68-.27.46-.17.69-.28.46-.17.68-.27l.69-.27.68-.28c.15-.06.3-.11.44-.18,4.9,2.13,9.55,4.09,14.39,4.09A10.65,10.65,0,0,0,48,72.93c.23-.08.45-.18.68-.27s.46-.18.68-.27.46-.18.69-.28.46-.18.68-.27.46-.18.69-.28.46-.17.68-.27.46-.18.69-.27.46-.18.68-.28.46-.18.69-.27.46-.18.68-.28a5.07,5.07,0,0,0,.68-.27c.24-.08.46-.18.69-.27a8.89,8.89,0,0,0,4.46-3.3l.07-.11a9.67,9.67,0,0,0,2.66.36,10.94,10.94,0,0,0,4.5-.92l.69-.28c.23-.08.46-.17.68-.27s.46-.17.69-.27l.68-.28q.35-.12.69-.27L72,64l.69-.27c.23-.08.46-.17.68-.27l.68-.28c.24-.08.46-.17.69-.27s.46-.18.68-.27l.69-.28.51-.19c1.74,2.59,4.47,4.4,8.78,4.4a11.63,11.63,0,0,0,4.72-1c.23-.08.46-.17.68-.27s.46-.17.69-.27l.68-.28.69-.27.68-.28q.35-.12.69-.27l.68-.27.68-.28q.34-.12.69-.27l.68-.27.69-.28c.23-.08.46-.17.68-.27l0,0C101,64.68,105,66.6,111.06,66.6a21.25,21.25,0,0,0,8.48-1.76l.69-.28.68-.27.69-.27.68-.28c.23-.09.46-.17.68-.27l.69-.27.68-.28c.23-.09.46-.17.69-.27l.68-.28.69-.27.47-.17c.8,2.81,4,4.67,8.22,4.67A6.86,6.86,0,0,0,138,66a4.71,4.71,0,0,0,.69-.27,5.07,5.07,0,0,0,.68-.27,7.1,7.1,0,0,0,.69-.28,5.07,5.07,0,0,0,.68-.27,5.2,5.2,0,0,0,.69-.27,6.91,6.91,0,0,0,.68-.28,5.07,5.07,0,0,0,.68-.27,6.2,6.2,0,0,0,.69-.28,5.07,5.07,0,0,0,.68-.27,4.71,4.71,0,0,0,.69-.27c.13,0,.26-.1.38-.15a10,10,0,0,0,7.27,3.48,8.35,8.35,0,0,0,3.37-.73c.23-.08.46-.17.68-.27S157,65.42,157.23,65.32ZM143.93,47c0,.7-.05,1.39-.08,2-.21-.59-.42-1.19-.6-1.77q0,1.05-.09,2-.32-.89-.6-1.77c0,.7-.05,1.38-.08,2-.21-.6-.41-1.19-.6-1.78,0,.71-.06,1.39-.09,2-.21-.59-.41-1.19-.6-1.77,0,.7-.05,1.38-.08,2.05-.21-.6-.41-1.19-.6-1.78,0,.7-.06,1.39-.08,2-.21-.6-.42-1.19-.61-1.78-.18,5-.42,9.09-.59,11.23a3.61,3.61,0,0,1-1.7-2.35c-.14-.72-.27-2.81-.39-5.78q-.31.42-.66.84c0-.19,0-.37,0-.57l-.66.84c0-.19,0-.37,0-.57q-.32.44-.66.84c0-.19,0-.37,0-.56l-.66.84c0-.19,0-.37,0-.57-.22.29-.44.56-.67.84,0-.19,0-.37,0-.57-.21.29-.44.57-.66.84,0-.18,0-.37,0-.56l-.67.84c0-.19,0-.37,0-.57-.21.29-.44.57-.66.84,0-.19,0-.37,0-.56l-.66.84,0-.57q-.31.42-.66.84c0-.19,0-.37,0-.57q-.33.43-.66.84l0-.56q-.31.42-.66.84c0-.19,0-.37,0-.57l-.66.84c0-.19,0-.37,0-.57a26.28,26.28,0,0,1-5.7,5.64,19.73,19.73,0,0,1-2.58.17c-7.39,0-11.9-3-14.31-7.65-.15.23-.31.45-.46.67-.08-.13-.15-.26-.22-.39l-.47.66-.22-.39-.46.66c-.07-.13-.15-.25-.22-.39-.15.23-.31.45-.47.67l-.22-.39-.46.66-.22-.39c-.15.23-.31.45-.47.66-.07-.13-.15-.25-.22-.39-.15.23-.3.45-.46.67l-.22-.39-.46.66c-.08-.13-.15-.25-.22-.39l-.47.67-.22-.39L99,56.6c-.08-.13-.15-.26-.22-.39l-.47.66c-.07-.13-.15-.25-.22-.39-.15.23-.31.45-.46.67-.08-.13-.15-.26-.22-.39l-.47.66L96.75,57a23.83,23.83,0,0,1-3.37,4c-6.06-.45-8.36-5.41-9-13.63-.17.61-.35,1.19-.54,1.75,0-.48-.1-1-.14-1.48-.18.61-.36,1.19-.54,1.76-.06-.49-.1-1-.15-1.49-.17.61-.35,1.2-.54,1.76,0-.48-.1-1-.14-1.48-.18.61-.36,1.19-.54,1.75-.06-.48-.1-1-.14-1.48-.18.61-.36,1.2-.55,1.76,0-.48-.1-1-.14-1.48-.18.61-.36,1.19-.54,1.75,0-.48-.1-1-.14-1.48-.18.61-.36,1.19-.54,1.76-.06-.49-.11-1-.15-1.49-.17.61-.36,1.2-.54,1.76,0-.48-.1-1-.14-1.48-.18.61-.36,1.19-.54,1.75-.06-.48-.11-1-.15-1.48-.17.61-.35,1.19-.54,1.76-.05-.48-.1-1-.14-1.49-.18.61-.36,1.2-.54,1.76-.06-.48-.11-1-.15-1.48-.17.61-.35,1.19-.54,1.76,0-.49-.1-1-.14-1.49-.18.61-.36,1.2-.54,1.76-.06-.48-.1-1-.15-1.48-1.31,4.55-2.86,7.79-4.65,10-6.22-1.13-7.44-9.46-7.44-20.15a97.12,97.12,0,0,1,.89-14.94,4.46,4.46,0,0,1,2.19,2.48c1.08,3.58-.24,14.15-.08,20.22,0,1.4.47,1.94,1.32,1.94a1.46,1.46,0,0,0,.81-.29,1.47,1.47,0,0,0,.68-.27,1.65,1.65,0,0,0,.69-.28,1.51,1.51,0,0,0,.68-.27,1.67,1.67,0,0,0,.68-.27,1.65,1.65,0,0,0,.69-.28,1.43,1.43,0,0,0,.68-.27,1.65,1.65,0,0,0,.69-.28,1.43,1.43,0,0,0,.68-.27,1.5,1.5,0,0,0,.69-.27,1.61,1.61,0,0,0,.68-.28,1.5,1.5,0,0,0,.69-.27A1.73,1.73,0,0,0,76.7,47c2.63-.31,6.68-10.57,7.86-20.53,1.18.67,2,1.55,2,2.57,0,2.25-.31,7.69-.31,16.24,0,4.82,1.09,6.92,3.11,6.92a1.89,1.89,0,0,0,1-.3,2.28,2.28,0,0,0,.68-.28,2,2,0,0,0,.69-.27,98.09,98.09,0,0,0,1.37-.55,2,2,0,0,0,.68-.27,2.06,2.06,0,0,0,.68-.27,2.23,2.23,0,0,0,.69-.28,1.93,1.93,0,0,0,.68-.27,2.23,2.23,0,0,0,.69-.28,2,2,0,0,0,.68-.27,2.2,2.2,0,0,0,.69-.27,2.28,2.28,0,0,0,.68-.28c1.6-.3,3.25-3,4.86-6.77.21-7.46,2.52-13.76,6.73-17.49.33,0,.65-.06,1-.06,7.93,0,12,7.54,11.19,13.61a6.34,6.34,0,0,1-.79,2.3,2.3,2.3,0,0,1-1-2c.08-6.38-.62-7.93-1.87-7.93a1.67,1.67,0,0,0-.91.3,1.86,1.86,0,0,0-.68.27,98.09,98.09,0,0,1-1.37.55,1.84,1.84,0,0,0-.69.27,1.73,1.73,0,0,0-.68.28,1.69,1.69,0,0,0-.69.27,1.73,1.73,0,0,0-.68.28,1.52,1.52,0,0,0-.68.27,1.84,1.84,0,0,0-.69.27,1.73,1.73,0,0,0-.68.28,1.69,1.69,0,0,0-.69.27,1.73,1.73,0,0,0-.68.28c-1.84.28-3.27,3.94-3.27,9.84,0,7.23,3,9.72,6.84,9.72a10.52,10.52,0,0,0,4.18-.87c.23-.08.46-.18.68-.27l.69-.28c.23-.08.46-.17.68-.27s.46-.18.69-.28.45-.17.68-.27.46-.18.68-.27.46-.18.69-.28.46-.17.68-.27.46-.18.69-.27l.68-.28c.24-.08.46-.18.69-.27s.46-.18.68-.28c5-1.76,8.52-7.29,11.36-13.58a247.73,247.73,0,0,1,1.33-27.51,3.58,3.58,0,0,1,1.82,2.18c.77,5.05.46,21.22-.08,34.05.25-.29.48-.57.71-.86l0,.59c.25-.29.48-.58.71-.86,0,.19,0,.39,0,.58.25-.28.47-.57.71-.86l0,.59c.25-.29.48-.57.71-.86,0,.2,0,.39,0,.59l.7-.86c0,.19,0,.39,0,.58.25-.28.48-.57.71-.86,0,.2,0,.39,0,.59l.7-.86c0,.19,0,.39,0,.58.25-.28.48-.57.71-.85l0,.58c.25-.29.48-.57.71-.86,0,.2,0,.39,0,.59.25-.29.48-.58.71-.86l0,.58c.25-.28.48-.57.71-.86,0,.2,0,.4,0,.59.25-.29.47-.57.71-.86l0,.58c.25-.28.48-.57.71-.85,0,.19,0,.39,0,.58A32.2,32.2,0,0,0,156,26c1.65.95,2.93,2.36,2.93,4.24,0,3.56-3.69,11.08-9.84,16-.13-.39-.27-.77-.39-1.16,0,.52,0,1-.06,1.51l-.17.13c-.16-.46-.31-.91-.45-1.36,0,.7-.06,1.38-.09,2-.21-.6-.41-1.19-.6-1.78,0,.71,0,1.39-.08,2.05-.21-.59-.41-1.19-.6-1.77,0,.7-.06,1.38-.08,2-.21-.6-.42-1.19-.61-1.78,0,.7,0,1.39-.08,2-.21-.6-.41-1.19-.6-1.78,0,.71-.06,1.39-.08,2.05-.21-.59-.42-1.19-.61-1.77,0,.7-.05,1.38-.08,2C144.32,48.2,144.12,47.61,143.93,47Zm-108,16c-.1.15-.22.28-.33.42l-.35-.15c-.11.15-.23.28-.33.42l-.36-.15c-.1.15-.22.28-.33.43l-.35-.15-.33.42-.36-.15c-.1.15-.22.28-.33.42l-.35-.15c-.11.16-.22.28-.33.43l-.36-.15c-.1.15-.22.28-.33.42l-.35-.15-.33.43-.36-.15c-.1.15-.22.28-.33.42l-.35-.15-.33.42-.35-.15c-.11.16-.23.28-.33.43L28.39,66c-.1.15-.22.28-.33.42l-.35-.15-.33.43L27,66.54a12.65,12.65,0,0,1-.81,1c-7-.68-9.07-7.48-5-11.42h0v0l.2-.18.49,0c0-.07,0-.13,0-.2l.69-.08a1.21,1.21,0,0,0,0-.19l.7-.08a1.27,1.27,0,0,1,0-.2c.23,0,.45-.06.69-.07,0-.07,0-.14,0-.2l.7-.08a1.21,1.21,0,0,1,0-.19l.69-.08c0-.07,0-.13,0-.2l.69-.08a1.21,1.21,0,0,0,0-.19l.7-.08c0-.06,0-.13,0-.2l.69-.07a1.27,1.27,0,0,0,0-.2l.7-.08c-.08-1.79-.23-3.73-.39-5.91-9.25-1.08-14.46-4.35-15.7-8a5.5,5.5,0,0,1,.17-3.59c2,3.26,3.82,5.43,5.85,6.84,0-.28,0-.57-.07-.85.25.2.5.4.76.57,0-.27-.05-.56-.07-.84q.38.3.75.57c0-.28,0-.57-.07-.85a7.92,7.92,0,0,0,.76.57c0-.27,0-.56-.07-.84l.75.57c0-.27,0-.57-.07-.84.25.2.5.39.76.57,0-.28-.05-.57-.07-.85.24.2.5.4.75.57,0-.27-.05-.56-.07-.84.25.2.5.39.76.57,0-.28-.05-.57-.08-.84.25.2.5.39.76.57,0-.28-.05-.57-.07-.85.25.2.5.4.75.57,0-.27,0-.56-.07-.84.25.2.5.39.76.57,0-.28-.05-.57-.07-.85a9.29,9.29,0,0,0,.75.57c0-.27,0-.56-.07-.84.25.2.5.39.76.57,0-.27,0-.57-.07-.84l.75.57c-.46-5.13-.85-10.81-.85-16.41a17.61,17.61,0,0,1,7.09-14,18.56,18.56,0,0,1,2.12-.13C48.63,8.63,50,25.34,50,30.08c0,7.28-1.76,13.44-7,17.27-1.1.2-2.27.37-3.51.48a1.27,1.27,0,0,0,0,.2l-.68.07a1.34,1.34,0,0,1,0,.2l-.67.07a1.48,1.48,0,0,0,0,.21l-.68.07a1.41,1.41,0,0,1,0,.2l-.67.07c0,.07,0,.14,0,.2l-.68.07a1.48,1.48,0,0,1,0,.21l-.67.07c0,.07,0,.13,0,.2l-.68.07V50L34,50c0,.06,0,.13,0,.2l-.67.07a1.41,1.41,0,0,0,0,.2l-.68.07c0,.07,0,.14,0,.21l-.67.07a1.34,1.34,0,0,0,0,.2l-.68.07a1.27,1.27,0,0,1,0,.2l-.67.08a53.35,53.35,0,0,1-.55,6.29A.49.49,0,0,1,30,58a58.64,58.64,0,0,0,8.31.86c6.53,0,9.8-2.49,11.82-2.49s2.26,1.4,2.26,3.73a16,16,0,0,1-1.74,8C45.88,67.56,41.08,65.16,35.92,63ZM47.2,48.3c.23-.08.45-.18.68-.27a20.88,20.88,0,0,0,4.67-2.37c0,2,.06,4.47.32,7a21.19,21.19,0,0,1-5.68.75,47.61,47.61,0,0,1-6.13-.55c.08-.66.14-1.38.2-2.13l.46-.2c.24-.08.46-.18.69-.27s.45-.18.68-.27l.69-.28c.23-.08.45-.18.68-.27l.68-.28c.24-.08.46-.18.69-.27s.45-.18.68-.27Zm70.92-2.82.27-.11.68-.28.69-.27c.23-.08.46-.18.68-.28s.46-.17.69-.27.46-.17.68-.27l.69-.28c.23-.08.45-.17.68-.27l.63-.25a25.68,25.68,0,0,1-3.2,4.48A3.93,3.93,0,0,1,118.12,45.48Zm42.25,4.37a4.53,4.53,0,0,1,.36,1.92,18.8,18.8,0,0,1-1.95,8.8c-3.33-1.38-5.92-5.28-7.88-9.68a5.12,5.12,0,0,0,3.23,1.27,2.64,2.64,0,0,0,1.29-.35,2.71,2.71,0,0,0,.68-.28,2.75,2.75,0,0,0,.69-.27,2.38,2.38,0,0,0,.68-.28,2.91,2.91,0,0,0,.69-.27,58,58,0,0,0,1.36-.55,2.61,2.61,0,0,0,.69-.27Z" style="fill:#231f20"></path>
  <path d="M31.44,44.1h0a6.91,6.91,0,0,0,.68-.28h0c.24-.08.46-.19.69-.29v0c.24-.09.46-.19.68-.29h0c.24-.08.46-.19.69-.29v0a7,7,0,0,0,.68-.29v0c.24-.09.46-.19.68-.29h0a7.13,7.13,0,0,0,.69-.29v0c.24-.09.46-.19.68-.29h0c.25-.08.46-.19.69-.28h0a7,7,0,0,0,.68-.29v0c.24-.09.46-.19.69-.29h0a7,7,0,0,0,.68-.29v0c6.3-2.18,6.69-9.72,6.69-15.39,0-6.46-2-9.41-4.51-9.41a1.86,1.86,0,0,0-1,.32,1.89,1.89,0,0,0-.68.28,1.73,1.73,0,0,0-.68.27,1.86,1.86,0,0,0-.69.28,1.6,1.6,0,0,0-.68.27,2,2,0,0,0-.69.27,1.75,1.75,0,0,0-.68.28,1.84,1.84,0,0,0-.69.27,2,2,0,0,0-.68.27,1.86,1.86,0,0,0-.69.28,1.86,1.86,0,0,0-.68.27,1.86,1.86,0,0,0-.69.28,1.7,1.7,0,0,0-.68.27c-1.25.25-2.31,1.86-2.38,4.92-.08,3.27.54,11.43.54,19.83C31,44.3,31.21,44.2,31.44,44.1Z" style="fill:#231f20"></path>
  <path d="M59,52.8c-2,0-5.29,2.49-11.82,2.49a58.92,58.92,0,0,1-8.32-.86c.08-.07.08-.23.08-.31a53.35,53.35,0,0,0,.55-6.29c15.16-1.33,19.43-10,19.43-21.31,0-4.74-1.4-21.45-14.77-21.45A17.94,17.94,0,0,0,26.05,22.79c0,5.6.39,11.28.85,16.41-2.25-1.56-4.2-4.05-6.53-7.93-2.49-4.12-10,3.42-8.39,8.24,1.24,3.65,6.45,6.92,15.7,8,.16,2.18.31,4.12.39,5.91-12.21.94-11.43,14.23-.7,14.23A10.14,10.14,0,0,0,35.92,63c5.91,2.48,11.35,5.28,16.79,5.28,5.68,0,8.55-4.2,8.55-11.74C61.26,54.2,61.11,52.8,59,52.8ZM39.11,21c.08-3.34,1.32-5,2.72-5,2.56,0,4.51,2.95,4.51,9.41,0,5.67-.39,13.21-6.69,15.39C39.65,32.43,39,24.27,39.11,21Z" style="fill:#fff"></path>
  <path d="M167.77,45.26c-1.4,0-2.33,3.34-4.74,3.34s-4.67-1.94-5.91-5.21c6.68-4.89,10.73-13,10.73-16.71,0-3.89-5.45-5.75-8.32-5.75-1.48,0-2.57.46-2.8,1.63-1,5.21-2.26,11.74-7.85,18.19.54-12.83.85-29,.07-34-.31-2-4.27-3.73-7.07-3.73-1.71,0-2.95.7-3.27,2.49-1.23,7.41-1.66,19.46-1.7,30.13-3.45,7.65-7.83,14.18-14.85,14.18-3.81,0-6.84-2.49-6.84-9.72,0-6.14,1.55-9.87,3.49-9.87,1.25,0,2,1.55,1.87,7.93-.08,4.9,9.79,2.49,10.65-3.81.86-6.07-3.27-13.61-11.19-13.61-10.48,0-16.28,9.07-16.62,21.11-1.71,4-3.46,6.8-5.15,6.8-2,0-3.11-2.1-3.11-6.92,0-8.55.31-14,.31-16.24s-4.12-3.89-7.07-3.89c-2.26,0-3.27,1.24-3.81,4.74v-.08C83.42,36.4,79.22,47,76.58,47c-.86,0-1.32-.54-1.32-1.94-.16-6.07,1.16-16.64.07-20.22C74.48,22,70.44,21.08,68,21.08c-2,0-2.8.78-3.19,2.26-1.16,4.51-1.4,11.27-1.4,17.49,0,11.5,1.4,20.29,8.94,20.29,5.21,0,9.18-3.73,12-13.68.7,8.63,3.19,13.68,10,13.68,4.48,0,8.33-3.18,11.35-7.65,2.41,4.6,6.92,7.65,14.31,7.65s13.14-4,17.18-9.36c.12,3,.25,5.06.39,5.78.39,2.18,3,3.58,6.45,3.58,2.56,0,3.81-1.17,4-3.58.16-1.4.47-6.22.7-12.44,2.41,7.47,6.45,16,12.67,16,5.68,0,8.24-6.45,8.24-12.91C169.63,46.35,168.93,45.26,167.77,45.26Z" style="fill:#fff"></path>
</svg>
