<?xml version="1.0" encoding="UTF-8"?>
<svg preserveAspectRatio="xMidYMid slice" width="1000px" height="1079px" xmlns="http://www.w3.org/2000/svg" id="Layer_1" viewBox="0 0 164.68 177.15">
  <path d="M100.65,117.41c3.73-4.7,6.73-10.3,9-16.79,2.27-6.49,3.97-12.85,5.11-19.1,1.13-6.24,1.78-11.15,1.95-14.72h46.23c-.49,5.35-1.5,11.36-3.04,18-1.54,6.65-3.61,13.38-6.2,20.19-2.6,6.81-5.68,13.26-9.25,19.34-3.57,6.08-7.71,11.23-12.41,15.45-6.17,9.25-12.82,16.51-19.95,21.78-7.14,5.27-14.84,9-23.11,11.19s-17.19,3.28-26.76,3.28-18.37-1.3-25.91-3.89c-7.54-2.59-13.95-6.16-19.22-10.71-5.27-4.54-9.25-9.81-11.92-15.81-2.68-6-4.01-12.33-4.01-18.98,0-9.08,2.84-17.52,8.52-25.3,5.68-7.79,13.95-14.07,24.82-18.86,10.87-4.78,24-6.93,39.42-6.45l-14.36,26.76c0,.16-.85.57-2.55,1.22-1.7.65-3.41,1.95-5.11,3.89s-2.55,5.11-2.55,9.49.89,8.11,2.68,10.71c1.78,2.6,4.17,4.42,7.18,5.47,3,1.06,6.45,1.58,10.34,1.58,4.22,0,7.82-.52,10.83-1.58,3-1.05,6.08-2.88,9.25-5.47,3.16-2.59,6.85-6.16,11.07-10.71ZM118.89,45.39c0,7.14-1.5,13.62-4.5,19.46-3,5.84-6.81,11.03-11.43,15.57-4.62,4.54-9.53,8.36-14.72,11.44-5.19,3.08-9.98,5.35-14.35,6.81l-25.3-8.27c-6.81-2.11-12.77-5.23-17.88-9.37-5.11-4.14-9.12-9.12-12.04-14.96-2.92-5.84-4.38-12.25-4.38-19.22,0-7.62,1.98-14.84,5.96-21.65,3.97-6.81,9.97-12.37,18-16.67,8.03-4.3,18.04-6.45,30.05-6.45s21.45,2.11,28.83,6.33c7.38,4.22,12.85,9.61,16.42,16.18,3.57,6.57,5.35,13.5,5.35,20.8ZM37.14,100.13l44.77-21.17,79.56,44.77v52.31h-1.22L37.14,100.13ZM57.58,54.64c0,2.43.52,4.5,1.58,6.2,1.05,1.7,2.43,2.96,4.14,3.77,1.7.81,3.61,1.22,5.72,1.22s4.01-.4,5.72-1.22c1.7-.81,3.08-2.07,4.14-3.77,1.05-1.7,1.58-3.77,1.58-6.2,0-2.59-.53-4.7-1.58-6.33-1.06-1.62-2.43-2.84-4.14-3.65-1.7-.81-3.61-1.22-5.72-1.22s-4.01.41-5.72,1.22c-1.7.81-3.08,2.03-4.14,3.65-1.06,1.62-1.58,3.73-1.58,6.33Z"></path>
</svg>
