<?xml version="1.0" encoding="UTF-8"?>
<svg preserveAspectRatio="xMidYMid slice" width="1000px" height="557px" xmlns="http://www.w3.org/2000/svg" viewBox="0 0 1671.17 930.09">
  <title>Slogan</title>
  <path d="M166.25,198.78h2.14c12.12-46.36,27.1-105.91,40.65-156.9h88.79c-20.33,49.57-59.19,166.53-77,223.94-22.82-.72-89.86-.72-109.83,0C99.21,226.59,59.27,106.42,34.67,41.88h92.71C134.51,78.61,151.63,146.36,166.25,198.78Z" style="fill:#010101"></path>
  <path d="M363.08,84.67c-1.43,38.87-2.5,87.36-2.5,106.26,0,13.91,8.56,18.19,17.83,18.19,18.18,0,29.95-11.41,31-32.81.36-19.25,1.43-51-1.07-91.64,22.11.72,49.92,1.43,74.17,0-2.14,42.08-3.57,134.79,0,181.15-19.25-.36-45.64-.36-69.18,0,0-14.62,0-29.6-.35-47.43h-2.86c-11.41,36-36,51-63.47,51-37.08,0-57.76-24.25-57.76-69.53,0-34.23,1.07-77.38-.72-115.18C311,85.39,337,85.39,363.08,84.67Z" style="fill:#010101"></path>
  <path d="M573.45,25.12c-1.07,76.31-2.85,168.67-2.85,240.7-20-.36-52.06-.36-72,0,1.78-72,1.07-164-.71-240.7C518.9,25.84,552.06,25.84,573.45,25.12Z" style="fill:#010101"></path>
  <path d="M724.28,67.56A102.85,102.85,0,0,0,699,64.7c-19.25,0-28.52,3.57-28.88,14.62a35.92,35.92,0,0,0,.71,6.42c25.32,0,48.5-.35,58.48-1.07-1.07,20-.35,44.22.72,63.12-10-.36-32.45-.72-56.7-.72,0,33.88.36,76,2.85,118.75H603.4c1.78-29.6,2.85-70.25,3.21-118.75-9.63.36-17.12.36-21.4.72,1.07-19.26,1.07-43.86-.71-63.12,4.28.36,11.77.72,21.4.72a55,55,0,0,1-3.57-18.19c0-36,27.46-52.06,82.37-52.06,20,0,34.95,1.07,49.57,3.92Z" style="fill:#010101"></path>
  <path d="M950,115.69c-2.5-15.69-14.62-22.46-33.87-22.46-15.34,0-24.25,3.21-24.25,12.12,0,8.56,8.91,12.13,33.87,15.34,73.82,9.27,104.48,26,104.48,74.52,0,42.79-32.8,75.6-103.05,75.6-54.91,0-104.48-18.19-118.39-68.11,17.48-4.28,56.7-14.62,73.46-19.26,6.42,20.33,22.82,24.61,44.57,24.61,16.05,0,23.18-3.92,23.18-11.05,0-8.56-8.56-12.49-30-15-65.26-7.85-103.41-21.75-103.41-72,0-41,34.94-73.1,97.7-73.1,62.4,0,95.21,22.11,110.19,65.61C1008.47,105,967.11,112.48,950,115.69Z" style="fill:#010101"></path>
  <path d="M1156.09,265.82c-1.07-16.76-1.79-26.75-2.14-34.95h-1.07c-11.77,27.46-32.81,38.51-56.34,38.51-42.79,0-61.34-23.89-61.34-52.77,0-32.45,21.76-53.13,76.67-53.13a328.56,328.56,0,0,1,41.72,2.85V154.21c0-13.2-6.06-21.4-20.33-21.4s-19.25,9.27-21,21c-23.18-5.71-46-7.85-69.18-9.63,7.49-39.94,36-63.83,93.78-63.83,59.19,0,90.93,26,90.93,73.1,0,20,0,84.87,2.85,112.33Zm-2.86-77c-9.27-.71-18.18-.71-26.38-.71-17.83,0-23.54,7.85-23.54,17.12,0,11.41,8.2,16.4,21.4,16.4C1141.47,221.6,1152.52,210.9,1153.23,188.79Z" style="fill:#010101"></path>
  <path d="M1364.32,265.82c.36-38.87,1.43-87.37,1.43-106.27,0-13.9-8.56-18.18-17.83-18.18-18.19,0-30,11.41-31,32.8-.36,19.26-1.43,51,1.07,91.65-22.11-.72-49.93-1.43-74.53,0,2.14-42.08,3.92-134.44.36-181.15,19.25.36,45.64.36,69.17,0,0,14.62,0,29.6.36,47.43h2.85c11.41-36,36-51,63.48-51,37.08,0,57.76,24.24,57.76,69.53,0,34.23-2.49,77,1.78,115.18C1416.38,265.1,1390.35,265.1,1364.32,265.82Z" style="fill:#010101"></path>
  <path d="M1626.05,124.61c-11.77,4.63-41.72,19.25-49.57,23.89-7.13-14.26-21.75-18.54-38.15-18.54-17.12,0-23.54,3.92-23.54,9.63,0,6.77,11.77,9.62,33.52,12.12,61,6.77,80.23,28.88,80.23,57,0,37.8-24.6,62.76-87.72,62.76-50.63,0-84.51-15.69-100.91-45.29,13.19-6.77,36.37-21.39,49.92-29.23,9.27,14.61,29.6,25.31,57.77,25.31,14.26,0,19.25-2.49,19.25-8.56,0-7.48-11-9.62-37.08-13.9-57.41-9.27-76-29.6-76-60.62,0-36,27.81-59.19,88.79-59.19C1591.46,80,1614.64,101.07,1626.05,124.61Z" style="fill:#010101"></path>
  <rect x="34.67" y="296.78" width="1598.23" height="15.27" style="fill:#010101"></rect>
  <path d="M100.37,480.11c-10.55-.17-27.95-.35-40.25-.17-2.29,7.91-4.22,15.64-6.15,22.49H17.58c8.79-20.56,30.24-84,39.73-110.38,9.84.36,38.31.36,47.28,0,5.8,19.34,28.65,85.07,39,110.38h-38C104.24,496.11,102.48,488.37,100.37,480.11ZM94,456c-4.39-16.52-9.14-33-13-45.52H79.1C75.41,423,70.84,439.34,66.45,456Z" style="fill:#010101"></path>
  <path d="M274.2,433.36c-4.39,1.76-17.75,8.44-20.56,10.19-3.87-7.73-11.43-10.72-21.62-10.72-10,0-13.89,3-13.89,7.21.18,5.1,6.68,6.85,18.81,8.26,28.12,3.16,38.49,13,38.49,27.42,0,17.93-12.48,29.53-40.77,29.53-24.26,0-40.61-7.74-48.51-23.38,4.92-2.46,15.81-9,20.91-11.78,4.57,8.79,15.12,14.42,30.06,14.42,9.49,0,12.83-2.64,12.83-6.86,0-5.1-5.8-7-20.21-9.14C203,464.29,193,455.33,193,439.69c0-16.53,13.18-27.77,40.78-27.77C256.63,411.92,267.7,421.23,274.2,433.36Z" style="fill:#010101"></path>
  <path d="M335.72,504.54c-35.68,0-50.44-18.63-50.44-45.7,0-27.59,15.47-46.57,48.34-46.57,27.41,0,45.52,13,45.52,41.13a91.23,91.23,0,0,1-.7,11.77c-18.46,0-46.23-.17-64.86.18,1.93,11.77,9.66,17.4,22.5,17.4,13,0,18.8-5.45,22.49-11.43a202,202,0,0,0,19.51,13.54C370.7,496.11,357.7,504.54,335.72,504.54Zm-22.32-52c10.72,0,25.14-.18,38-.35.17-12.83-6.51-19.87-17.75-19.87C322,432.3,315,438.81,313.4,452.52Z" style="fill:#010101"></path>
  <path d="M455.42,450.58c-1.41-10.19-8.79-15.82-19.16-15.82-12.65,0-20.56,7.56-20.56,23.56s8.26,23.9,21.09,23.9c12.3,0,17.75-9.14,18.63-14.59,2.29.71,22.32,3.17,26.89,3.69-3.51,20.22-19.51,33.75-45.52,33.75-34.1,0-49-19.16-49-46.75,0-27.42,16-46.4,47.81-46.4,26.72,0,43.24,13.35,45.7,36.73C476.86,449,458.23,450.23,455.42,450.58Z" style="fill:#010101"></path>
  <path d="M538.38,504.72c-33,0-48.86-18.81-48.86-46.23s15.64-46.57,48.86-46.57c32.87,0,48.69,19.15,48.69,46.57S571.25,504.72,538.38,504.72Zm0-69.6c-12.3,0-19.51,7.91-19.51,23.2s7.21,23.2,19.51,23.2c12.13,0,19.34-7.91,19.34-23.2S550.51,435.12,538.38,435.12Z" style="fill:#010101"></path>
  <path d="M659.14,502.43c.35-17.4.88-41.48.88-51.14,0-10.55-4.93-14.24-12.31-14.24-10.72,0-19,8.61-19.33,22.15-.18,9.66-.53,24.78.35,43.23-9.14-.35-20.39-.52-30.41,0,1.06-19.33,1.76-62.74.18-88.23,7.2.18,19.68.18,28.47,0v24.08l1.23.18c5.63-18.46,17.93-26,31.64-26,19.33,0,29.18,12.48,29.18,34.8,0,15.3-1.06,34.45.52,55.19C680.23,502.08,669.68,502.08,659.14,502.43Z" style="fill:#010101"></path>
  <path d="M767.06,502.43c.17-3,.52-12.83.52-25.66h-.87c-5.63,16.7-15.65,27.42-32.52,27.42-23.55,0-34.45-17.4-34.45-45.35,0-31.11,13.88-45.87,36.56-45.87,14.76,0,24.43,6.15,29.88,15.64l.88-.17c-.18-15.82-.71-38.85-.88-47.64,12,.36,19.33.71,30.41-.17-1.76,51-1.76,91.75-.18,121.8Zm-20.57-68c-13.53,0-19,8.62-19,24.08,0,12.13,4.39,21.8,18.28,21.8,12.66,0,20.92-10.72,20.92-28C766.71,439.69,759.15,434.41,746.49,434.41Z" style="fill:#010101"></path>
  <path d="M888.51,414.9c15.65,0,31.29-.35,37.09-.7-.35,8.26,0,18.1.35,26-6.15-.35-22.14-.52-38.32-.52-.17,9.84-.35,18.63-.35,23,0,10.9,5.45,14.94,13.54,14.94,7.38,0,11.07-3,15.46-6.33A262.27,262.27,0,0,0,930.35,494c-10.2,8.26-19.87,10.19-32,10.19-27.25,0-37.79-12.13-37.79-36,0-7.38.17-17.58.35-28.3-5.63,0-10,.18-12.48.35a160.26,160.26,0,0,0-.35-26c2.46.18,7.2.35,13.18.53,0-7.91,0-15.29-.18-21.45a261.52,261.52,0,0,0,28.83,0C889.39,397.85,888.87,405.94,888.51,414.9Z" style="fill:#010101"></path>
  <path d="M1035.63,414.38c-11.25,28.12-24.61,61.87-31.64,78.74-13.18,32.69-24.6,44.29-49.91,44.29-8.79,0-19.69-1.23-24.44-3.51.88-8.26,3-20.92,3.52-27.95a38.5,38.5,0,0,0,17.58,3.87c7.73,0,12.83-1.94,16.87-5.28-10.72-29.35-28.3-73.82-35.15-90.16,5.8.17,24.95.17,30.58,0,2.81,9.66,12.65,37.79,21.09,61.16h2.29c6.5-20.39,13.71-43.06,19.15-61.16C1010.14,414.55,1030.71,414.55,1035.63,414.38Z" style="fill:#010101"></path>
  <path d="M1072.19,414.2c-.18,3.16-.53,13-.53,25.84h1.06c5.45-16.88,15.64-27.6,32.51-27.6,23.56,0,34.45,17.58,34.45,45.35,0,31.29-13.88,46-36.56,46-14.94,0-24.78-6.33-30-16.17l-.7.18c.17,15.82.7,39,1.05,48-12.13-.35-19.51-.7-30.58.18,1.75-51,1.75-91.75.17-121.81Zm20.56,68c13.71,0,19.16-8.61,19.16-23.9,0-12.31-4.57-22-18.28-22-12.83,0-20.91,10.89-20.91,28.12C1072.72,477,1080.28,482.22,1092.75,482.22Z" style="fill:#010101"></path>
  <path d="M1197.51,504.54c-35.68,0-50.44-18.63-50.44-45.7,0-27.59,15.46-46.57,48.33-46.57,27.42,0,45.53,13,45.53,41.13a89.52,89.52,0,0,1-.71,11.77c-18.45,0-46.22-.17-64.85.18,1.93,11.77,9.66,17.4,22.49,17.4,13,0,18.81-5.45,22.5-11.43a200.74,200.74,0,0,0,19.51,13.54C1232.49,496.11,1219.48,504.54,1197.51,504.54Zm-22.32-52c10.72,0,25.14-.18,38-.35.17-12.83-6.51-19.87-17.76-19.87C1183.8,432.3,1176.77,438.81,1175.19,452.52Z" style="fill:#010101"></path>
  <path d="M1313.69,402.07a45.37,45.37,0,0,0-12.83-1.76c-9.49,0-15.29,2.29-15.29,9.67a22,22,0,0,0,.53,4.75c12.65,0,24.43-.18,29.18-.53a251.68,251.68,0,0,0,.17,25.84c-4.57-.18-16-.35-28.3-.53,0,16.52.18,38.14,1.06,62.92H1258.5c1.06-16.34,1.59-38.14,1.59-62.74-5.63,0-10.2.17-12.48.35a210.69,210.69,0,0,0-.36-25.84c2.29.18,6.68.35,12.13.53a40.91,40.91,0,0,1-1.58-9.67c0-17.75,13.53-25.31,37.61-25.31,9.5,0,16.53.7,23,2.46Z" style="fill:#010101"></path>
  <path d="M1383.12,502.43c-.52-8.08-.88-13-1.23-17h-.52c-6,13.35-16.88,18.8-28.65,18.8-21.45,0-30.59-11.6-30.59-25.48,0-15.65,10.72-25.67,37.62-25.67a184.26,184.26,0,0,1,22,1.41c.17-2.46.17-4.57.17-6.15,0-8.79-4-14.24-13.71-14.24-9,0-12.83,5.28-14.06,12.83-9.31-2.46-18.63-3.51-28.12-4.39,3.69-18.11,16.7-30.23,43.59-30.23,27.24,0,42.18,12.65,42.18,35.68,0,9.66-.17,41.13,1.41,54.48Zm-1.58-37.61c-5.62-.53-11.25-.7-16.17-.7-11.78,0-15.29,4.74-15.29,10.19,0,6.86,4.75,10,13.53,10C1374.86,484.33,1381.54,477.65,1381.54,464.82Z" style="fill:#010101"></path>
  <path d="M1490.52,450.58c-1.41-10.19-8.79-15.82-19.16-15.82-12.66,0-20.57,7.56-20.57,23.56s8.27,23.9,21.1,23.9c12.3,0,17.75-9.14,18.63-14.59,2.28.71,22.32,3.17,26.89,3.69-3.52,20.22-19.51,33.75-45.52,33.75-34.1,0-49-19.16-49-46.75,0-27.42,16-46.4,47.81-46.4,26.71,0,43.23,13.35,45.7,36.73C1512,449,1493.33,450.23,1490.52,450.58Z" style="fill:#010101"></path>
  <path d="M1575.06,504.54c-35.68,0-50.44-18.63-50.44-45.7,0-27.59,15.46-46.57,48.33-46.57,27.42,0,45.53,13,45.53,41.13a89.52,89.52,0,0,1-.71,11.77c-18.45,0-46.22-.17-64.85.18,1.93,11.77,9.66,17.4,22.49,17.4,13,0,18.81-5.45,22.5-11.43a200.74,200.74,0,0,0,19.51,13.54C1610,496.11,1597,504.54,1575.06,504.54Zm-22.32-52c10.72,0,25.13-.18,38-.35.17-12.83-6.51-19.87-17.76-19.87C1561.35,432.3,1554.32,438.81,1552.74,452.52Z" style="fill:#010101"></path>
  <path d="M86.13,587.61a45,45,0,0,0-12.83-1.76c-9.49,0-15.29,2.29-15.29,9.67a21.86,21.86,0,0,0,.53,4.74c12.65,0,24.43-.17,29.17-.52a254.48,254.48,0,0,0,.18,25.84c-4.57-.18-16-.36-28.3-.53,0,16.52.18,38.14,1.06,62.92H30.94c1.06-16.34,1.58-38.14,1.58-62.75-5.62,0-10.19.18-12.48.36a208.71,208.71,0,0,0-.35-25.84c2.29.17,6.68.35,12.13.52a40.83,40.83,0,0,1-1.58-9.66c0-17.76,13.53-25.31,37.61-25.31,9.49,0,16.52.7,23,2.46Z" style="fill:#010101"></path>
  <path d="M158,631a37.36,37.36,0,0,0-13.71-2.81c-8.43,0-16.34,5.8-16.34,20.39,0,9,0,22.85.52,39.37-9.31-.35-20.56-.53-30.4,0,.87-19.33,1.58-62.75,0-88.23,7.2.17,18.1.17,26.89,0,.17,7.2.17,17.75.53,29.35l1,.18c4.22-21.1,11.6-31.29,25.84-31.29a32.19,32.19,0,0,1,10.72,1.58Z" style="fill:#010101"></path>
  <path d="M214.27,690.26c-33.05,0-48.87-18.81-48.87-46.23s15.65-46.58,48.87-46.58c32.87,0,48.68,19.16,48.68,46.58S247.14,690.26,214.27,690.26Zm0-69.61c-12.31,0-19.51,7.91-19.51,23.2s7.2,23.21,19.51,23.21c12.12,0,19.33-7.91,19.33-23.21S226.39,620.65,214.27,620.65Z" style="fill:#010101"></path>
  <path d="M395.66,688c.17-17.4.7-41.48.7-51.15,0-10.54-4.92-14.23-12.3-14.23-10.72,0-19,8.61-19.34,22.14-.17,14.24,0,28.3.36,43.24-9-.35-19.51-.35-30.06,0,.35-17.4.88-41.48.88-51.15,0-10.54-4.92-14.23-12.31-14.23-10.72,0-19,8.61-19.33,22.14-.18,9.67-.53,24.79.53,43.24-9.32-.35-20.57-.53-30.41,0,.88-19.33,1.58-62.75,0-88.23,7.21.17,19.69.17,28.47,0v24.08l1.23.17c5.63-18.45,17.93-26,31.64-26,16.7,0,25.49,9.84,27.77,25.84l1.06.17c5.62-18.45,17.93-26,31.64-26,19.51,0,29.35,12.48,29.35,34.8,0,15.29-1.06,34.28.53,55.19C416.58,687.62,406.2,687.62,395.66,688Z" style="fill:#010101"></path>
  <path d="M517.47,600.44c15.64,0,31.28-.35,37.08-.7-.35,8.26,0,18.1.36,26-6.16-.35-22.15-.53-38.32-.53-.18,9.85-.35,18.63-.35,23,0,10.9,5.45,14.94,13.53,14.94,7.38,0,11.07-3,15.47-6.33a261.28,261.28,0,0,0,14.06,22.68c-10.19,8.26-19.86,10.19-32,10.19-27.24,0-37.79-12.13-37.79-36,0-7.38.18-17.58.35-28.3-5.62,0-10,.18-12.48.35a160.24,160.24,0,0,0-.35-26c2.46.17,7.21.35,13.18.52,0-7.9,0-15.29-.17-21.44a261.34,261.34,0,0,0,28.82,0C518.35,583.39,517.82,591.48,517.47,600.44Z" style="fill:#010101"></path>
  <path d="M630,688c.35-17.57.88-42,.88-51.67,0-10.55-4.92-14.24-12.31-14.24-10.72,0-19,8.61-19.33,22.15-.18,9.84-.53,25.13.53,43.76-9.32-.35-20.57-.53-30.41,0,1.23-25.66,2.11-85.07,0-118.64,7.56.18,20.39.18,30.58,0-.53,13.71-1,30.76-.88,54.14,5.63-18.46,17.93-26,31.64-26,19.34,0,29.18,12.48,29.18,34.8,0,15.47-1.06,34.81.53,55.72C651.05,687.62,640.5,687.62,630,688Z" style="fill:#010101"></path>
  <path d="M721,690.08c-35.68,0-50.45-18.63-50.45-45.7,0-27.59,15.47-46.58,48.34-46.58,27.42,0,45.52,13,45.52,41.13a91.28,91.28,0,0,1-.7,11.78c-18.46,0-46.23-.18-64.86.18,1.93,11.77,9.67,17.4,22.5,17.4,13,0,18.8-5.45,22.5-11.43a202.51,202.51,0,0,0,19.51,13.54C756,681.64,743,690.08,721,690.08Zm-22.33-52c10.73,0,25.14-.17,38-.35.18-12.83-6.5-19.86-17.75-19.86C707.3,617.84,700.27,624.34,698.68,638.05Z" style="fill:#010101"></path>
  <path d="M864.26,690.26c-33,0-48.87-18.81-48.87-46.23s15.65-46.58,48.87-46.58c32.86,0,48.68,19.16,48.68,46.58S897.12,690.26,864.26,690.26Zm0-69.61c-12.31,0-19.51,7.91-19.51,23.2s7.2,23.21,19.51,23.21c12.12,0,19.33-7.91,19.33-23.21S876.38,620.65,864.26,620.65Z" style="fill:#010101"></path>
  <path d="M985,688c.35-17.4.88-41.48.88-51.15,0-10.54-4.92-14.23-12.31-14.23-10.72,0-19,8.61-19.33,22.14-.18,9.67-.53,24.79.35,43.24-9.14-.35-20.39-.53-30.41,0,1.06-19.33,1.76-62.75.18-88.23,7.21.17,19.68.17,28.47,0v24.08l1.23.17c5.63-18.45,17.93-26,31.64-26,19.34,0,29.18,12.48,29.18,34.8,0,15.29-1.06,34.45.53,55.19C1006.1,687.62,995.55,687.62,985,688Z" style="fill:#010101"></path>
  <path d="M1060.24,569.33c-.53,34.27-1.41,84.37-1.23,118.64-7.39-.17-22-.17-29.36,0,.88-33,.71-83.84-.17-118.64C1037.21,569.51,1052.33,569.51,1060.24,569.33Z" style="fill:#010101"></path>
  <path d="M1170.27,599.91c-11.25,28.13-24.61,61.87-31.64,78.75C1125.45,711.35,1114,723,1088.71,723c-8.79,0-19.68-1.23-24.43-3.52.88-8.26,3-20.91,3.52-27.94a38.56,38.56,0,0,0,17.57,3.86c7.74,0,12.83-1.93,16.88-5.27-10.73-29.35-28.3-73.82-35.16-90.17,5.8.18,25,.18,30.59,0,2.81,9.67,12.65,37.79,21.09,61.17h2.28c6.51-20.39,13.71-43.06,19.16-61.17C1144.78,600.09,1165.35,600.09,1170.27,599.91Z" style="fill:#010101"></path>
  <path d="M1250.94,569.33c-.35,6.33-1.58,31.11-1.93,56.07h.7c5.63-16.7,15.65-27.42,32.52-27.42,23.55,0,34.45,17.58,34.45,45.35,0,31.28-13.89,46-36.56,46-14.59,0-24.08-6-29.53-15.29l-.88.35c.18,5.45.53,10.9.53,13.53-12-.53-19.33-.7-30.41.18,1.76-49.74,1.76-89.47.18-118.82Zm18.81,98.43c13.71,0,19.16-8.61,19.16-23.91,0-12.3-4.57-22-18.28-22-12.83,0-20.92,10.9-20.92,28.13C1249.71,662.49,1257.27,667.76,1269.75,667.76Z" style="fill:#010101"></path>
  <path d="M1385.58,688c-.53-8.08-.88-13-1.23-17.05h-.53c-6,13.36-16.87,18.81-28.65,18.81-21.44,0-30.58-11.6-30.58-25.49,0-15.64,10.72-25.66,37.61-25.66a184.29,184.29,0,0,1,22,1.41c.17-2.46.17-4.57.17-6.15,0-8.79-4-14.24-13.71-14.24-9,0-12.83,5.27-14.06,12.83-9.31-2.46-18.63-3.52-28.12-4.39,3.69-18.11,16.7-30.24,43.59-30.24,27.24,0,42.18,12.66,42.18,35.68,0,9.67-.17,41.13,1.41,54.49ZM1384,650.36c-5.62-.53-11.25-.71-16.17-.71-11.78,0-15.29,4.75-15.29,10.2,0,6.85,4.74,10,13.53,10C1377.32,669.87,1384,663.19,1384,650.36Z" style="fill:#010101"></path>
  <path d="M1490,688c.35-17.4.88-41.48.88-51.15,0-10.54-4.92-14.23-12.31-14.23-10.72,0-19,8.61-19.33,22.14-.18,9.67-.53,24.79.35,43.24-9.14-.35-20.39-.53-30.41,0,1.06-19.33,1.76-62.75.18-88.23,7.21.17,19.68.17,28.47,0v24.08l1.23.17c5.63-18.45,17.93-26,31.64-26,19.34,0,29.18,12.48,29.18,34.8,0,15.29-1.06,34.45.53,55.19C1511.08,687.62,1500.53,687.62,1490,688Z" style="fill:#010101"></path>
  <path d="M1597.91,688c.18-3,.53-12.83.53-25.66h-.88c-5.63,16.7-15.64,27.42-32.52,27.42-23.55,0-34.45-17.4-34.45-45.35,0-31.11,13.89-45.87,36.56-45.87,14.77,0,24.43,6.15,29.88,15.64l.88-.18c-.17-15.81-.7-38.84-.88-47.63,12,.35,19.34.71,30.41-.17-1.76,51-1.76,91.75-.18,121.8Zm-20.56-68c-13.54,0-19,8.61-19,24.08,0,12.13,4.4,21.8,18.28,21.8,12.66,0,20.92-10.73,20.92-28C1597.56,625.22,1590,620,1577.35,620Z" style="fill:#010101"></path>
  <path d="M177.53,785.27c-9,23.91-23.73,68-30.41,88.24-5.8-.7-22-.35-28.82,0-2.64-8.26-7.38-24.26-11.78-37.79-1.93-6.15-4-12.3-6-18.1h-.88c-1.94,5.8-4,12-6,17.92C88.77,849.6,84,865.6,81.39,873.68c-8.09-1-22.68-.7-33.4-.17-5.8-19.16-22.67-68.9-29.7-88.06h30.4c1.41,6.5,6.68,27.42,12.84,47.63,1.58,4.92,3,9.67,4.21,14.06H67.5c1.23-3.86,2.46-7.91,3.87-11.95,5.8-18.28,13-38.67,16-49.92,4,.36,20.22.36,26.19,0,3.34,11.25,8.26,26.54,14.06,45.53,1.59,5.09,3.34,10.9,4.75,16.34h1.76c1.23-5.62,2.63-11.42,4.39-17,4-14.06,7.73-26.54,12-44.82Z" style="fill:#010101"></path>
  <path d="M200.73,774.9c-13,0-18.28-6.15-18.28-15.46,0-7.74,6-14.94,18.28-14.94,12.13,0,18.11,7.2,18.11,14.94C218.84,768.75,213.56,774.9,200.73,774.9Zm15.12,10.37c-.18,6.86-1.23,61.17-.7,88.24-7.74-.18-22.5-.18-29.88,0,.87-25.49.7-60.82-.18-88.24C192.82,785.63,207.94,785.63,215.85,785.27Z" style="fill:#010101"></path>
  <path d="M266.12,786c15.64,0,31.28-.35,37.08-.71-.35,8.27,0,18.11.36,26-6.16-.35-22.15-.53-38.32-.53-.18,9.84-.35,18.63-.35,23,0,10.89,5.45,14.94,13.53,14.94,7.38,0,11.07-3,15.47-6.33A259.59,259.59,0,0,0,308,865.07c-10.19,8.26-19.86,10.2-32,10.2-27.24,0-37.79-12.13-37.79-36,0-7.38.18-17.57.35-28.29-5.62,0-10,.17-12.48.35a160.36,160.36,0,0,0-.35-26c2.46.18,7.21.36,13.18.53,0-7.91,0-15.29-.17-21.44a261.34,261.34,0,0,0,28.82,0C267,768.93,266.47,777,266.12,786Z" style="fill:#010101"></path>
  <path d="M378.61,873.51c.35-17.58.88-42,.88-51.68,0-10.54-4.92-14.23-12.31-14.23-10.72,0-19,8.61-19.33,22.14-.18,9.85-.53,25.14.53,43.77-9.32-.35-20.57-.53-30.41,0,1.23-25.66,2.11-85.07,0-118.64,7.56.17,20.39.17,30.58,0-.52,13.71-1.05,30.76-.88,54.13,5.63-18.45,17.93-26,31.64-26,19.34,0,29.18,12.48,29.18,34.8,0,15.47-1.06,34.8.53,55.72C399.7,873.16,389.15,873.16,378.61,873.51Z" style="fill:#010101"></path>
  <path d="M523.09,873.51c-.53-8.09-.88-13-1.23-17h-.53c-6,13.36-16.87,18.81-28.65,18.81-21.44,0-30.58-11.6-30.58-25.49,0-15.64,10.72-25.66,37.61-25.66a186.09,186.09,0,0,1,22,1.4c.18-2.46.18-4.56.18-6.15,0-8.78-4-14.23-13.71-14.23-9,0-12.83,5.27-14.06,12.83-9.32-2.46-18.63-3.52-28.13-4.4,3.7-18.1,16.7-30.23,43.6-30.23,27.24,0,42.18,12.66,42.18,35.68,0,9.67-.18,41.13,1.41,54.49Zm-1.58-37.62c-5.63-.52-11.25-.7-16.17-.7-11.78,0-15.3,4.75-15.3,10.2,0,6.85,4.75,10,13.54,10C514.83,855.41,521.51,848.73,521.51,835.89Z" style="fill:#010101"></path>
  <path d="M644,786c15.64,0,31.28-.35,37.08-.71-.35,8.27,0,18.11.36,26-6.16-.35-22.15-.53-38.32-.53-.18,9.84-.35,18.63-.35,23,0,10.89,5.45,14.94,13.53,14.94,7.38,0,11.07-3,15.47-6.33a259.59,259.59,0,0,0,14.06,22.67c-10.19,8.26-19.86,10.2-32,10.2-27.24,0-37.79-12.13-37.79-36,0-7.38.18-17.57.35-28.29-5.62,0-10,.17-12.48.35a160.36,160.36,0,0,0-.35-26c2.46.18,7.21.36,13.18.53,0-7.91,0-15.29-.17-21.44a261.34,261.34,0,0,0,28.82,0C644.9,768.93,644.37,777,644,786Z" style="fill:#010101"></path>
  <path d="M791.13,785.45c-11.24,28.12-24.6,61.87-31.63,78.74-13.19,32.7-24.61,44.3-49.92,44.3-8.79,0-19.69-1.23-24.43-3.52.88-8.26,3-20.92,3.51-28a38.5,38.5,0,0,0,17.58,3.87c7.73,0,12.83-1.93,16.87-5.27-10.72-29.36-28.29-73.82-35.15-90.17,5.8.18,25,.18,30.58,0,2.82,9.67,12.66,37.79,21.1,61.17h2.28c6.5-20.39,13.71-43.07,19.16-61.17C765.65,785.63,786.21,785.63,791.13,785.45Z" style="fill:#010101"></path>
  <path d="M827.69,785.27c-.17,3.17-.52,13-.52,25.84h1.05c5.45-16.87,15.64-27.59,32.52-27.59,23.55,0,34.45,17.57,34.45,45.34,0,31.29-13.89,46.06-36.56,46.06-14.94,0-24.78-6.33-30.06-16.18l-.7.18c.17,15.82.7,39,1,48-12.12-.35-19.51-.7-30.58.18,1.76-51,1.76-91.75.18-121.81Zm20.57,68c13.71,0,19.16-8.62,19.16-23.91,0-12.3-4.57-22-18.28-22-12.83,0-20.92,10.9-20.92,28.12C828.22,848,835.78,853.3,848.26,853.3Z" style="fill:#010101"></path>
  <path d="M953,875.62c-35.68,0-50.45-18.63-50.45-45.7,0-27.6,15.47-46.58,48.34-46.58,27.42,0,45.52,13,45.52,41.13a91.28,91.28,0,0,1-.7,11.78c-18.46,0-46.23-.18-64.86.17,1.93,11.78,9.67,17.4,22.5,17.4,13,0,18.8-5.45,22.5-11.42a200.67,200.67,0,0,0,19.51,13.53C988,867.18,975,875.62,953,875.62Zm-22.33-52c10.73,0,25.14-.17,38-.35.18-12.83-6.5-19.86-17.75-19.86C939.31,803.38,932.28,809.88,930.69,823.59Z" style="fill:#010101"></path>
  <path d="M1069.2,773.15a45.07,45.07,0,0,0-12.83-1.76c-9.49,0-15.29,2.28-15.29,9.67a21.85,21.85,0,0,0,.52,4.74c12.66,0,24.43-.17,29.18-.53a248.78,248.78,0,0,0,.18,25.84c-4.57-.17-16-.35-28.3-.52,0,16.52.17,38.14,1,62.92H1014c1-16.35,1.58-38.14,1.58-62.75-5.63,0-10.19.18-12.48.35a212.71,212.71,0,0,0-.35-25.84c2.28.18,6.68.36,12.13.53a40.88,40.88,0,0,1-1.59-9.66c0-17.76,13.54-25.32,37.62-25.32,9.49,0,16.52.71,23,2.47Z" style="fill:#010101"></path>
  <path d="M1138.63,873.51c-.53-8.09-.88-13-1.23-17h-.53c-6,13.36-16.87,18.81-28.65,18.81-21.44,0-30.58-11.6-30.58-25.49,0-15.64,10.72-25.66,37.61-25.66a186.22,186.22,0,0,1,22,1.4c.18-2.46.18-4.56.18-6.15,0-8.78-4.05-14.23-13.71-14.23-9,0-12.83,5.27-14.06,12.83-9.32-2.46-18.64-3.52-28.13-4.4,3.69-18.1,16.7-30.23,43.59-30.23,27.25,0,42.19,12.66,42.19,35.68,0,9.67-.18,41.13,1.4,54.49ZM1137,835.89c-5.62-.52-11.24-.7-16.17-.7-11.77,0-15.29,4.75-15.29,10.2,0,6.85,4.75,10,13.54,10C1130.37,855.41,1137,848.73,1137,835.89Z" style="fill:#010101"></path>
  <path d="M1246,821.66c-1.4-10.2-8.79-15.82-19.16-15.82-12.65,0-20.56,7.56-20.56,23.55s8.26,23.91,21.09,23.91c12.31,0,17.75-9.14,18.63-14.59,2.29.7,22.33,3.16,26.89,3.69-3.51,20.21-19.5,33.75-45.52,33.75-34.1,0-49-19.16-49-46.76,0-27.42,16-46.4,47.81-46.4,26.72,0,43.24,13.36,45.7,36.73C1267.47,820.08,1248.83,821.31,1246,821.66Z" style="fill:#010101"></path>
  <path d="M1330.57,875.62c-35.68,0-50.45-18.63-50.45-45.7,0-27.6,15.47-46.58,48.34-46.58,27.42,0,45.52,13,45.52,41.13a91.28,91.28,0,0,1-.7,11.78c-18.46,0-46.23-.18-64.86.17,1.93,11.78,9.67,17.4,22.5,17.4,13,0,18.8-5.45,22.5-11.42a200.67,200.67,0,0,0,19.51,13.53C1365.54,867.18,1352.54,875.62,1330.57,875.62Zm-22.33-52c10.73,0,25.14-.17,38-.35.18-12.83-6.5-19.86-17.75-19.86C1316.86,803.38,1309.83,809.88,1308.24,823.59Z" style="fill:#010101"></path>
  <path d="M1404.56,875.27c-14.41,0-20.56-9-20.56-20.39,0-11.25,7.38-20,20.56-20s20.39,8.79,20.39,20C1425,866.3,1417.75,875.27,1404.56,875.27Z" style="fill:#010101"></path>
</svg>
