<?xml version="1.0" encoding="UTF-8"?>
<svg preserveAspectRatio="xMidYMid slice" width="1000px" height="1243px" xmlns="http://www.w3.org/2000/svg" viewBox="0 0 314.8 390.33">
  <title>thank you</title>
  <path d="M53.73,269.73v9.41H45.27v26.18h-10V279.14H26.87v-9.41Z"></path>
  <path d="M85.25,305.32h-10V292.05H64.55v13.27h-10V269.73h10v12.91H75.21V269.73h10Z"></path>
  <path d="M121.31,305.32h-11.5l-1.46-4.7H96.54L95,305.32H84.26L99.2,269.21h7.21ZM102.7,282.38l-3.39,10.08h6.53Z"></path>
  <path d="M129.72,289.12v16.2h-9.4V268.84h1.46l19.34,17V269.73h9.4v36.11h-1.46Z"></path>
  <path d="M161.81,288.33v17h-10V269.73h10v15.73l9.51-15.73h11.45V270l-11.34,16.93,12.33,18.14v.26H172.32Z"></path>
  <path d="M199.65,305.32V291.78l-12-21.74v-.31H199l6,13.17,5.49-13.17h11V270l-11.76,21.74v13.54Z"></path>
  <path d="M252.12,287.5c0,11.55-7.32,18.55-18,18.55s-18-7-18-18.55,7.26-18.5,18-18.5S252.12,275.9,252.12,287.5Zm-25.92-.05c0,5.33,3,8.67,7.84,8.67s7.89-3.34,7.89-8.67-3.4-8.52-7.89-8.52S226.2,282.27,226.2,287.45Z"></path>
  <path d="M274,269.73h9.93V289c0,9.78-4.86,17.09-15.47,17.09S253,298.79,253,289V269.73h10v19.6c0,4.23,1.57,6.84,5.44,6.84s5.54-2.66,5.54-6.84Z"></path>
  <path d="M53.74,229.84v9.41H45.27v26.18h-10V239.25H26.87v-9.41H53.74m1.37-1.37H25.5v12.16h8.36v26.18H46.65V240.63h8.46V228.47Z"></path>
  <path d="M121.78,229l19.34,17V229.84h9.41V266h-1.47l-19.33-16.71v16.18H109.81l-1.45-4.7H96.56L95,265.43H75.22V252.16H64.55v13.27h-10V229.84h10v12.91H75.22V229.84h10V263l14-33.71h7.21l13.9,33.7V229h1.46M99.3,252.58h6.53l-3.13-10.09-3.4,10.09m23-25h-3.36v28.5L107.69,228.8l-.35-.86h-9l-.36.85-11.3,27.32V228.47H73.84v12.91H65.93V228.47H53.14v38.34H65.93V253.53h7.91v13.28H96l.31-.94,1.27-3.76h9.8l1.16,3.73.3,1h22.3V252.25L148.17,267l.38.33h3.35V228.47H139.74V243l-17.05-15-.39-.34ZM101.22,251.2l1.42-4.24L104,251.2Z"></path>
  <path d="M182.77,229.84v.26L171.44,247l12.33,18.14v.26H172.32l-10.5-17v17h-10V229.84h10v15.74l9.51-15.74h11.44m1.38-1.37h-13.6l-.4.66-7,11.52V228.47H150.4v38.34h12.79V253.29l8,12.87.4.65h13.59v-2.06l-.24-.35L173.1,247l10.82-16.16.23-.35v-2.05Z"></path>
  <path d="M221.34,229.84v.32L209.58,251.9v13.53h-10V251.88l-12-21.72v-.32h11.34l6,13.16,5.5-13.16h11m1.38-1.37H209.45l-.35.84-4.28,10.25-4.7-10.29-.37-.8h-13.6v2l.17.31,11.85,21.41v14.58H211V252.25l11.59-21.44.17-.31v-2Z"></path>
  <path d="M234,229.11a19.41,19.41,0,0,1,9.43,2.2,15.55,15.55,0,0,1,6.33,6.35,20.49,20.49,0,0,1,2.27,10,21.44,21.44,0,0,1-1.31,7.76A16.53,16.53,0,0,1,247,261.2a16.13,16.13,0,0,1-5.7,3.69,20.31,20.31,0,0,1-7.34,1.28,19.28,19.28,0,0,1-9.41-2.23,15.65,15.65,0,0,1-6.35-6.37,20.53,20.53,0,0,1-2.27-10,21.44,21.44,0,0,1,1.31-7.76A16.57,16.57,0,0,1,221,234a15.55,15.55,0,0,1,5.7-3.65,20.52,20.52,0,0,1,7.34-1.26m-.05,27.13a7.83,7.83,0,0,0,4.2-1.08,7.13,7.13,0,0,0,2.72-3,10.1,10.1,0,0,0,1-4.6,9.23,9.23,0,0,0-1.05-4.52,7.43,7.43,0,0,0-2.82-2.95,8.24,8.24,0,0,0-8.05,0,7.36,7.36,0,0,0-2.79,2.95,9.45,9.45,0,0,0-1,4.52,10.37,10.37,0,0,0,.94,4.6,7,7,0,0,0,2.72,3,7.86,7.86,0,0,0,4.18,1.08m.05-28.5a22.11,22.11,0,0,0-7.83,1.34,17.09,17.09,0,0,0-6.19,4,18.08,18.08,0,0,0-4,6.3,23.06,23.06,0,0,0-1.4,8.25A21.9,21.9,0,0,0,217,258.23a17,17,0,0,0,6.89,6.92A20.76,20.76,0,0,0,234,267.54a21.73,21.73,0,0,0,7.84-1.37,17.59,17.59,0,0,0,6.18-4,18.22,18.22,0,0,0,4-6.31,23,23,0,0,0,1.4-8.25A21.88,21.88,0,0,0,251,237a16.85,16.85,0,0,0-6.87-6.9A20.91,20.91,0,0,0,234,227.74Zm-.05,27.12a6.6,6.6,0,0,1-3.47-.87,5.7,5.7,0,0,1-2.2-2.43,9.17,9.17,0,0,1-.8-4,8.13,8.13,0,0,1,.86-3.87,5.93,5.93,0,0,1,2.28-2.42,6.93,6.93,0,0,1,6.65,0,6.18,6.18,0,0,1,2.32,2.43,8,8,0,0,1,.87,3.86,8.8,8.8,0,0,1-.82,4,5.77,5.77,0,0,1-2.2,2.45,6.6,6.6,0,0,1-3.49.87Z"></path>
  <path d="M283.8,229.84v19.29a23.93,23.93,0,0,1-.92,6.77,15.27,15.27,0,0,1-2.82,5.43,12.8,12.8,0,0,1-4.83,3.61,19.24,19.24,0,0,1-13.8,0,12.92,12.92,0,0,1-4.84-3.61,15.27,15.27,0,0,1-2.82-5.43,23.94,23.94,0,0,1-.91-6.77V229.84h10v19.6a10.91,10.91,0,0,0,.55,3.63,4.77,4.77,0,0,0,1.75,2.38,5.37,5.37,0,0,0,3.14.84,5.48,5.48,0,0,0,3.16-.84,4.79,4.79,0,0,0,1.8-2.38,10.16,10.16,0,0,0,.58-3.63v-19.6h9.93m1.37-1.37H272.49v21a9,9,0,0,1-.49,3.15,3.36,3.36,0,0,1-1.28,1.72,4.21,4.21,0,0,1-2.39.6,4.08,4.08,0,0,1-2.35-.59,3.31,3.31,0,0,1-1.24-1.71,9.29,9.29,0,0,1-.47-3.17v-21H251.48v20.66a25.43,25.43,0,0,0,1,7.15,16.62,16.62,0,0,0,3.08,5.92,14.05,14.05,0,0,0,5.35,4,20.66,20.66,0,0,0,14.9,0,14.09,14.09,0,0,0,5.34-4,16.47,16.47,0,0,0,3.08-5.92,25.07,25.07,0,0,0,1-7.15V228.47Z"></path>
  <path d="M28.6,319.76h1.84v11H28.6v-11Zm.8,1.67v-1.67h6.07v1.67Zm5.82,4.93H29.4v-1.67h5.82Z"></path>
  <path d="M44.18,320.29a4.92,4.92,0,0,1,1.92,2,6,6,0,0,1,.7,3,6.16,6.16,0,0,1-.41,2.33,5.35,5.35,0,0,1-1.13,1.8,4.81,4.81,0,0,1-1.7,1.14,5.75,5.75,0,0,1-2.15.39,5.59,5.59,0,0,1-2.78-.69,5,5,0,0,1-1.93-2,6.21,6.21,0,0,1-.7-3,6.4,6.4,0,0,1,.41-2.33,5.34,5.34,0,0,1,1.14-1.78,4.87,4.87,0,0,1,1.7-1.15,5.85,5.85,0,0,1,2.16-.4A5.41,5.41,0,0,1,44.18,320.29Zm-4.69,1.52a3.44,3.44,0,0,0-1.2,1.43,4.5,4.5,0,0,0-.43,2,4.68,4.68,0,0,0,.43,2,3.44,3.44,0,0,0,1.2,1.43,3.48,3.48,0,0,0,1.92.51,3.4,3.4,0,0,0,1.91-.51,3.44,3.44,0,0,0,1.2-1.43,5.08,5.08,0,0,0,0-4,3.55,3.55,0,0,0-5-1.43Z"></path>
  <path d="M49.62,325.31v5.43H47.8v-11h1.82Zm1.3,1h-2l0-1.58H52a2.21,2.21,0,0,0,1.39-.4,1.5,1.5,0,0,0,.53-1.27,1.78,1.78,0,0,0-.18-.83,1.33,1.33,0,0,0-.63-.58,2.77,2.77,0,0,0-1.19-.22h-2.6l-1.23-1.69h4a4.82,4.82,0,0,1,2,.38,2.55,2.55,0,0,1,1.21,1.1,3.73,3.73,0,0,1,.39,1.77,3.16,3.16,0,0,1-.52,1.88A3.13,3.13,0,0,1,53.89,326a4.44,4.44,0,0,1-1.79.36Zm2.46-.71,3.61,5v.08H54.82l-3.22-4.82Z"></path>
  <path d="M61.86,323.57a1.59,1.59,0,0,0,.74.48,11.74,11.74,0,0,0,1.32.36,7.13,7.13,0,0,1,1.73.6,2.88,2.88,0,0,1,1.11,1,2.68,2.68,0,0,1,.4,1.53A3.14,3.14,0,0,1,66,330a3.91,3.91,0,0,1-1.32.67,5.81,5.81,0,0,1-1.67.23,8.93,8.93,0,0,1-1.74-.17,7.93,7.93,0,0,1-1.49-.46v-1.86c.34.15.67.29,1,.41a7.37,7.37,0,0,0,1.1.28,8.3,8.3,0,0,0,1.26.09,2.54,2.54,0,0,0,1.62-.46,1.43,1.43,0,0,0,.59-1.17,1.21,1.21,0,0,0-.49-1A4.26,4.26,0,0,0,63.4,326a8.79,8.79,0,0,1-2-.66,2.76,2.76,0,0,1-1.14-1,2.92,2.92,0,0,1-.36-1.5,3,3,0,0,1,.28-1.35,2.74,2.74,0,0,1,.82-1,3.69,3.69,0,0,1,1.28-.65,5.86,5.86,0,0,1,1.63-.21,6.38,6.38,0,0,1,1.42.15,12.32,12.32,0,0,1,1.21.37V322a4.89,4.89,0,0,0-1.19-.51,5.85,5.85,0,0,0-1.54-.2,2.59,2.59,0,0,0-1.6.42,1.29,1.29,0,0,0-.55,1A1.34,1.34,0,0,0,61.86,323.57Z"></path>
  <path d="M70.05,325.33v5.41H68.23v-11h1.82Zm6,.61H68.81v-1.67H76Zm1.38-.61v5.41H75.56v-11H77.4Z"></path>
  <path d="M86.56,320.29a5,5,0,0,1,1.92,2,6,6,0,0,1,.7,3,6.36,6.36,0,0,1-.41,2.33,5.51,5.51,0,0,1-1.13,1.8,4.81,4.81,0,0,1-1.7,1.14,5.75,5.75,0,0,1-2.15.39,5.59,5.59,0,0,1-2.78-.69,5,5,0,0,1-1.93-2,6.1,6.1,0,0,1-.7-3,6.4,6.4,0,0,1,.41-2.33,5.48,5.48,0,0,1,1.13-1.78A4.91,4.91,0,0,1,81.63,320a5.85,5.85,0,0,1,2.16-.4A5.41,5.41,0,0,1,86.56,320.29Zm-4.69,1.52a3.53,3.53,0,0,0-1.21,1.43,4.64,4.64,0,0,0-.42,2,4.82,4.82,0,0,0,.42,2,3.53,3.53,0,0,0,1.21,1.43,3.48,3.48,0,0,0,1.92.51,3.4,3.4,0,0,0,1.91-.51,3.44,3.44,0,0,0,1.2-1.43,5.08,5.08,0,0,0,0-4,3.55,3.55,0,0,0-5-1.43Z"></path>
  <path d="M92,325.31v5.43H90.18v-11H92Zm1.2,1.42h-2l.06-1.63h2.92a2,2,0,0,0,1.49-.5,1.81,1.81,0,0,0,.48-1.31,2.32,2.32,0,0,0-.19-1,1.41,1.41,0,0,0-.62-.66,2.35,2.35,0,0,0-1.14-.24H91.7l-1.23-1.67h3.82a4.51,4.51,0,0,1,2,.42,3,3,0,0,1,1.29,1.18,3.61,3.61,0,0,1,.45,1.86,3.52,3.52,0,0,1-.33,1.57,3.07,3.07,0,0,1-.88,1.09,3.75,3.75,0,0,1-1.22.64,4.54,4.54,0,0,1-1.36.21Z"></path>
  <path d="M100.5,325.31v5.43H98.68v-11h1.82Zm1.2,1.42h-2l.06-1.63h2.92a2,2,0,0,0,1.48-.5,1.77,1.77,0,0,0,.49-1.31,2.32,2.32,0,0,0-.19-1,1.46,1.46,0,0,0-.62-.66,2.35,2.35,0,0,0-1.14-.24h-2.56L99,319.76h3.81a4.52,4.52,0,0,1,2,.42,3,3,0,0,1,1.29,1.18,3.61,3.61,0,0,1,.45,1.86,3.52,3.52,0,0,1-.33,1.57,3.1,3.1,0,0,1-.89,1.09,3.71,3.71,0,0,1-1.21.64,4.6,4.6,0,0,1-1.37.21Z"></path>
  <path d="M109,325.33v5.41h-1.82v-11H109Z"></path>
  <path d="M111,322l1.38-.59v9.36h-1.75v-11h.52l7.83,8.61-1.08.33v-8.91h1.75v11.11h-.56Z"></path>
  <path d="M127.68,328.79a2.9,2.9,0,0,0,1-1.13,3.21,3.21,0,0,0,.35-1.55l1.11.23h-4.39v-1.53h5a3,3,0,0,1,0,.42c0,.14,0,.28,0,.41s0,.24,0,.34a5.17,5.17,0,0,1-.35,1.9,4.75,4.75,0,0,1-1,1.55,4.9,4.9,0,0,1-1.55,1.08,4.84,4.84,0,0,1-2,.4,5.12,5.12,0,0,1-4.66-2.76,6.08,6.08,0,0,1-.69-2.92A5.91,5.91,0,0,1,121,323a5.45,5.45,0,0,1,1.16-1.81A5.34,5.34,0,0,1,124,320a6.5,6.5,0,0,1,2.4-.42,10.13,10.13,0,0,1,1.56.1,8.28,8.28,0,0,1,1.38.32v1.77a7.3,7.3,0,0,0-1.29-.36,9.34,9.34,0,0,0-1.63-.14,4.26,4.26,0,0,0-2.18.51,3.22,3.22,0,0,0-1.3,1.41,4.67,4.67,0,0,0-.43,2.05,4.8,4.8,0,0,0,.41,2,3.27,3.27,0,0,0,1.2,1.42,3.22,3.22,0,0,0,1.88.53A3.11,3.11,0,0,0,127.68,328.79Z"></path>
  <path d="M136.91,328.38l3.63-8.77H141l3.9,8.77-.81,2.51-3.61-8.61.69-.23-3.58,8.84h-.77l-3.7-11.13h1.86l2.78,8.62Zm7.14,2.51,0-2.51,2.73-8.62h1.8l-3.65,11.13Z"></path>
  <path d="M150.54,325.33v5.41h-1.83v-11h1.83Z"></path>
  <path d="M159.38,319.76v1.65h-8v-1.65Zm-5,0h2l0,.6v10.55h-1.84V320.47Z"></path>
  <path d="M162.06,325.33v5.41h-1.82v-11h1.82Zm6,.61h-7.21v-1.67H168Zm1.38-.61v5.41h-1.84v-11h1.84Z"></path>
  <path d="M180.87,319.76h1.82v6.3a6.55,6.55,0,0,1-.31,2.11,3.87,3.87,0,0,1-.89,1.52,3.8,3.8,0,0,1-1.4.92,5.05,5.05,0,0,1-1.83.32,5.35,5.35,0,0,1-1.91-.31,3.36,3.36,0,0,1-1.39-.92,4.2,4.2,0,0,1-.86-1.51,6.73,6.73,0,0,1-.29-2.11v-6.32h1.84V326a4.67,4.67,0,0,0,.28,1.74,2.29,2.29,0,0,0,.88,1.09,2.67,2.67,0,0,0,1.47.37,2.57,2.57,0,0,0,1.42-.37,2.38,2.38,0,0,0,.87-1.07,4.21,4.21,0,0,0,.3-1.68Z"></path>
  <path d="M185.87,323.57a1.59,1.59,0,0,0,.74.48,11.74,11.74,0,0,0,1.32.36,7.13,7.13,0,0,1,1.73.6,2.88,2.88,0,0,1,1.11,1,2.68,2.68,0,0,1,.4,1.53A3.14,3.14,0,0,1,190,330a3.91,3.91,0,0,1-1.32.67,5.81,5.81,0,0,1-1.67.23,8.93,8.93,0,0,1-1.74-.17,7.93,7.93,0,0,1-1.49-.46v-1.86c.33.15.67.29,1,.41a7.37,7.37,0,0,0,1.1.28,8.3,8.3,0,0,0,1.26.09,2.54,2.54,0,0,0,1.62-.46,1.43,1.43,0,0,0,.59-1.17,1.21,1.21,0,0,0-.49-1,4.26,4.26,0,0,0-1.45-.58,8.79,8.79,0,0,1-2-.66,2.76,2.76,0,0,1-1.14-1,2.92,2.92,0,0,1-.36-1.5,3,3,0,0,1,.28-1.35,2.74,2.74,0,0,1,.82-1,3.69,3.69,0,0,1,1.28-.65,5.86,5.86,0,0,1,1.63-.21,6.38,6.38,0,0,1,1.42.15,12.32,12.32,0,0,1,1.21.37V322a4.89,4.89,0,0,0-1.19-.51,5.85,5.85,0,0,0-1.54-.2,2.59,2.59,0,0,0-1.6.42,1.29,1.29,0,0,0-.55,1A1.34,1.34,0,0,0,185.87,323.57Z"></path>
  <path d="M199.38,319.57l.06,2-3.82,9.21h-1.94l5.1-11.17Zm2.42,8.69h-5.93v-1.59h5.93Zm2.7,2.48h-2l-3.86-9.21.71-2Z"></path>
  <path d="M211.91,319.76v1.65h-8v-1.65Zm-5,0h2l0,.6v10.55H207V320.47Z"></path>
  <path d="M221.59,322.33l.15,8.41H216.4l.15-8.41-.15-8.58h5.34Zm.49,2.57c-.44,0-.87-.11-1.29-.2s-.85-.18-1.32-.3l.8-3.26a11.84,11.84,0,0,0,1.25.06h2.12a1.64,1.64,0,0,0,1-.3,1.09,1.09,0,0,0,.39-.92,2.06,2.06,0,0,0-.15-.79,1.15,1.15,0,0,0-.53-.56,2.34,2.34,0,0,0-1.07-.2l-1.67,0c-.63,0-1.16,0-1.6.07l-2.89-4.79h7.08a7,7,0,0,1,3.22.65,4.27,4.27,0,0,1,1.85,1.76,5.2,5.2,0,0,1,.6,2.51,7.66,7.66,0,0,1-.45,2.73,5.24,5.24,0,0,1-1.29,2,5.42,5.42,0,0,1-2,1.2,8.22,8.22,0,0,1-2.61.4A12.84,12.84,0,0,1,222.08,324.9Zm4.77-1.69,4.49,7.4v.13h-5.86l-3.32-6.64Z"></path>
  <path d="M244.56,329.81a11.33,11.33,0,0,1-2.66.9,14.58,14.58,0,0,1-3.3.35,9.84,9.84,0,0,1-4.22-.82,5.83,5.83,0,0,1-2.66-2.46,8,8,0,0,1-.93-4,8.17,8.17,0,0,1,.68-3.47,6.54,6.54,0,0,1,1.82-2.37,7.83,7.83,0,0,1,2.59-1.36,10.3,10.3,0,0,1,3-.43,7.84,7.84,0,0,1,3.5.68,4.42,4.42,0,0,1,2,2,7.52,7.52,0,0,1,.65,3.28c0,.35,0,.72,0,1.11s-.05.78-.09,1.16l-12.27-.07,0-1.52,10.93-.5-3.17.92a3.09,3.09,0,0,0-.17-1.59,1.81,1.81,0,0,0-.82-.88,2.65,2.65,0,0,0-1.23-.27,3.71,3.71,0,0,0-1.6.3,2,2,0,0,0-.92.88,3.13,3.13,0,0,0-.3,1.44,4.28,4.28,0,0,0,.35,1.78,2.48,2.48,0,0,0,1.07,1.17,3.73,3.73,0,0,0,1.87.41,15.37,15.37,0,0,0,3.17-.33,10.43,10.43,0,0,0,2.72-1Z"></path>
  <path d="M254.29,316.52v4.89h-9v-3.07l1.23-.82,4.39-4h.37l-.18,4.64v6.23a2.12,2.12,0,0,0,.17.95.85.85,0,0,0,.5.45,2.55,2.55,0,0,0,.86.13,5.6,5.6,0,0,0,.83-.08,5.84,5.84,0,0,0,.74-.15v4.84a9.31,9.31,0,0,1-1.45.32A11.09,11.09,0,0,1,251,331a6.38,6.38,0,0,1-2.7-.51,3.31,3.31,0,0,1-1.64-1.73,7.87,7.87,0,0,1-.5-3.39l.1-5.19,3.36-3.62Z"></path>
  <path d="M265,327.52a18.64,18.64,0,0,1-2,1.92,8.33,8.33,0,0,1-2.12,1.24,6.94,6.94,0,0,1-2.52.43,4,4,0,0,1-1.85-.43,3.37,3.37,0,0,1-1.36-1.29,4,4,0,0,1-.51-2.12,4.34,4.34,0,0,1,.6-2.37,3.77,3.77,0,0,1,1.72-1.44,7,7,0,0,1,2.69-.55l4.59-.2,0,1.54-3.34.38a2.69,2.69,0,0,0-1.14.32.74.74,0,0,0-.33.65,1,1,0,0,0,.16.55,1.1,1.1,0,0,0,.51.39,2.6,2.6,0,0,0,.92.13,6.41,6.41,0,0,0,.95-.08,9.65,9.65,0,0,0,1-.24c.33-.1.65-.21,1-.33ZM263.33,322a1.37,1.37,0,0,0-.73-.54,4.44,4.44,0,0,0-1.43-.18q-1.07,0-2.46.12c-.92.08-1.76.18-2.53.28v-5c.54-.09,1.08-.16,1.62-.23s1.11-.11,1.69-.15,1.16-.05,1.76-.05a11.86,11.86,0,0,1,4.35.65,4.21,4.21,0,0,1,2.27,2,8.63,8.63,0,0,1,.73,3.58l.18,8.31h-4.24l-1-4.29v-3.62A1.65,1.65,0,0,0,263.33,322Z"></path>
  <path d="M274.68,311.68a1.93,1.93,0,0,1,.78,1.65,2.61,2.61,0,0,1-.81,2.14,3.52,3.52,0,0,1-2.31.68,3.73,3.73,0,0,1-2.24-.58,1.92,1.92,0,0,1-.8-1.67,2.57,2.57,0,0,1,.81-2.14,3.67,3.67,0,0,1,2.33-.65A3.78,3.78,0,0,1,274.68,311.68Zm.66,19.06h-5.51V320.06l-.23-3.54H275v4.27Z"></path>
  <path d="M281.9,330.74h-5.52V320.06l-.22-8.4h5.41v9.13Z"></path>
  <path d="M290.15,311.13a3.64,3.64,0,0,1,1.32.84,3.86,3.86,0,0,1,.86,1.33,5.14,5.14,0,0,1,0,3.46,3.9,3.9,0,0,1-.86,1.34,3.64,3.64,0,0,1-1.32.84,5,5,0,0,1-3.36,0,3.76,3.76,0,0,1-1.33-.84,4,4,0,0,1-.86-1.33,4.57,4.57,0,0,1-.31-1.74,4.5,4.5,0,0,1,.31-1.72,3.81,3.81,0,0,1,.86-1.34,3.76,3.76,0,0,1,1.33-.84,5,5,0,0,1,3.36,0Zm-3.11.8a2.72,2.72,0,0,0-1,.71,3.12,3.12,0,0,0-.63,1.07,4.06,4.06,0,0,0-.21,1.32,3.85,3.85,0,0,0,.38,1.72,2.86,2.86,0,0,0,1.11,1.2,3.42,3.42,0,0,0,1.81.44,3.46,3.46,0,0,0,1.82-.44,2.8,2.8,0,0,0,1.11-1.2,4.06,4.06,0,0,0,0-3.43,2.8,2.8,0,0,0-1.11-1.2,3.41,3.41,0,0,0-1.82-.45A3.67,3.67,0,0,0,287,311.93Zm.68,1.19V317h-.85v-4.08h1.74a1.92,1.92,0,0,1,1.18.3,1.16,1.16,0,0,1,.38.95,1.27,1.27,0,0,1-.22.76,1.41,1.41,0,0,1-.56.44,2,2,0,0,1-.73.14h-1.14v-.72h1.09a.71.71,0,0,0,.55-.17.57.57,0,0,0,.17-.42.49.49,0,0,0-.16-.4,1,1,0,0,0-.57-.13h-1.24Zm1.34,2.1,1.41,1.74V317h-1.08l-1.2-1.8Z"></path>
  <path d="M236.22,333h.42a.5.5,0,0,0,.27,0,.23.23,0,0,1,.25,0c.19.13.37,0,.55,0a.62.62,0,0,1,.5,0l.49.46c-.06.14-.1.26-.3.23a.07.07,0,0,0-.07,0c-.05,0-.09.06-.05.11s.09.07.12.06.28-.13.44,0c0-.08.07-.12.07-.16a2.32,2.32,0,0,0,0-.37c-.06,0-.11,0-.08-.11s.12-.17.19-.28a.91.91,0,0,1,.6.08.11.11,0,0,1,0,.18l-.09.05c-.12.06-.2.14-.18.28a.46.46,0,0,1,0,.2c0,.07,0,.12.05.13s.1,0,.11-.11a.14.14,0,0,1,0-.06.23.23,0,0,0,.29,0c.08-.06.14,0,.23,0l.16-.39.41,0c-.08.07-.16.14-.11.28a.7.7,0,0,1,.36-.12.42.42,0,0,0,.31-.15s-.08-.07-.12-.07l-.45.07-.1-.31.12-.06c.18-.08.18-.08.26.09l.06.09h-.11s0,0,0,.05,0,0,0,0l.06,0,.05,0,.34-.06c.08,0,0,.17.14.18a.13.13,0,0,0,.11,0c.1-.05.11-.17,0-.3l.25-.1a.68.68,0,0,0,.8-.05l.11-.07c.1.1.19,0,.28,0a.34.34,0,0,0,.14,0c.12,0,.22-.09.34-.13s.24,0,.35,0,0,.19.16.23a.36.36,0,0,0,.32,0,1.57,1.57,0,0,1,.23-.09.53.53,0,0,1,0-.12.15.15,0,0,1,0-.14.71.71,0,0,0,.1.14l.15.09.41-.08c.05.16.19.19.35.23s.29.09.44,0a.35.35,0,0,1,.33,0c.08,0,.12.14.18.2-.17.21-.38.05-.58.11a.3.3,0,0,1-.06.33,1,1,0,0,0,.26-.14,1.41,1.41,0,0,0,0,.21c0,.05.09.06.15,0s0-.05,0-.05a.65.65,0,0,0,.53-.24l.05,0a.25.25,0,0,1,.39.06.44.44,0,0,1,.06.1l.29,0-.1-.25.52-.07a.75.75,0,0,1,.06-.4c0-.07.17-.07.18,0s.11.12.16.18,0,.09.11.06l.33-.07s.09,0,.11,0c.22.15.45,0,.67,0l-.35.26,0,.19.36,0c.12,0,.21.14.36.09,0,0,0,0,0,.05a.07.07,0,0,1,0,.06,1,1,0,0,0-.21.11.8.8,0,0,0-.13.22l.14.15a1.21,1.21,0,0,1,.38,0,.7.7,0,0,0,.52-.12c.1-.06.08-.17.12-.25a.26.26,0,0,0-.3-.12.77.77,0,0,1-.3,0,.16.16,0,0,1-.08-.1.13.13,0,0,1,0-.09,2.27,2.27,0,0,1,.25-.06c.16.18.18.19.38.19h.32c0,.07,0,.11,0,.16s0,.2.14.27a1.94,1.94,0,0,0,.9.13c0-.06,0-.11,0-.15s-.06-.2-.24-.19a3,3,0,0,1-.42,0,.31.31,0,0,1-.28-.17c.12-.06.29,0,.32-.23a.35.35,0,0,1-.43-.13s0,0-.07,0a1.17,1.17,0,0,1-.58-.13.25.25,0,0,0-.28.06h0a.6.6,0,0,0-.33-.08c0-.07,0-.14,0-.21s0-.06-.06-.07a.13.13,0,0,0-.09,0s0,.06,0,.09.15.05.14.14l-.06.2-.17-.28-.14-.22.1-.21.26-.05.07.15.17-.11.2.2c-.08,0-.19,0-.22.1s.13,0,.17-.05l0-.06.18-.06.24-.1c.09,0,0-.2.18-.18a2.89,2.89,0,0,1,.29,0h0l-.21.13a.52.52,0,0,0,.47,0c.09,0,.2-.06.18-.18s-.19,0-.29,0h0v-.11a.77.77,0,0,1,.56,0c.06,0,.13,0,.16.07s.17.1.26.15a.89.89,0,0,0,.62.09h.16c0,.18-.23.09-.32.18.06.18.22.23.41.24a.29.29,0,0,0,.14,0,.39.39,0,0,1,.59,0,.2.2,0,0,0,.25,0l.17-.13v.16c.11.06.28,0,.36.17l-.24.13a.63.63,0,0,0,.49-.06c0-.07,0-.16-.07-.24s0-.25-.18-.33,0-.06,0-.09h0c.06,0,.13,0,.17,0a.44.44,0,0,1,.49-.13,1.73,1.73,0,0,0,.76,0l-.3.2.15.2v0h0v0c.06,0,.17,0,.22.09s.16.06.24.05.43-.05.49-.29a4.1,4.1,0,0,0,.49-.06v-.06c-.18.1-.35-.08-.53,0l0,.1a.59.59,0,0,0-.37,0,1.44,1.44,0,0,1-.38.05l.27-.17v-.11a.12.12,0,0,1,.05,0,.31.31,0,0,1,.19,0,.39.39,0,0,0,.39,0,2.53,2.53,0,0,1,.32,0l.1-.17.15.17c.18.06.35-.08.5,0h0l-.21.08-.22.08c.08.12.21,0,.29.08a.52.52,0,0,0,.29.08,4.09,4.09,0,0,1,1,.21h.13l.12-.12c-.06-.12-.08-.25-.26-.27v.15c-.05,0-.15,0-.17,0s-.24-.05-.34-.1a.7.7,0,0,0-.32-.05c-.13,0-.15-.1-.21-.17s.2-.08.33-.08v-.3c.14-.06.15.08.26.09s.11-.13.2-.16a1.45,1.45,0,0,1,.3,0l.57,0a.4.4,0,0,0,.39.28c.11,0,.14.14.27.14-.18,0-.2.17-.24.29a1.5,1.5,0,0,1,.11.13.09.09,0,0,1,0,.1s-.06,0-.1,0-.12-.11-.2-.15h-.07s-.05.06,0,.08a.23.23,0,0,0,.08.11l.24.14c.13-.05.31,0,.41-.14l-.08-.15c.08-.1.21-.09.32-.1a2,2,0,0,0,.64-.08.08.08,0,0,1,.07,0c.18.14.31,0,.44-.07s0,0,.07,0a.88.88,0,0,0,.62.08c0-.24,0-.24-.34-.37v-.23h0a.88.88,0,0,0,.36.14,1.09,1.09,0,0,0,.69-.05c0,.07-.07.15-.1.21a.59.59,0,0,0,.55.11.52.52,0,0,1,.13.3,1.7,1.7,0,0,0-.32,0c-.06,0-.13,0-.1.11s.05,0,.07,0a.46.46,0,0,1,.44,0,.35.35,0,0,0,.33,0c.08,0,.1-.12,0-.17a.37.37,0,0,1-.17-.22.17.17,0,0,0-.18-.11.68.68,0,0,1-.52-.16.48.48,0,0,0-.18,0l-.1-.19.31-.05-.2-.14h0a.65.65,0,0,1,.56,0l0,.15a1,1,0,0,0,.43,0c.08-.18-.14-.17-.21-.28a1,1,0,0,1,.57,0l0,.11h0a.15.15,0,0,0-.23,0,.27.27,0,0,0,0,.2c0,.12.19.1.29.14l0,.18h.19a.1.1,0,0,0,.11-.08c0-.09.11,0,.17,0l-.07-.22h.35a.33.33,0,0,0,.14,0c.1-.16.3-.12.44-.21a.52.52,0,0,1-.08.2s.13.07,0,.16-.1.2-.14.31,0,.05.07.09l-.22,0c0,.08.05.12.1.2h.18l.21,0a.73.73,0,0,0-.05-.12l-.06-.09c.17-.05.36-.06.48-.24l-.29-.11s0-.06,0-.09a.2.2,0,0,1,.09-.05.85.85,0,0,0,.73.09s0,0,.06,0-.22-.06-.2-.21-.26,0-.19-.19l.26,0v-.2c.23-.07.35.12.56.15l0,.39.44-.1c.15.11.28-.05.44,0a2.22,2.22,0,0,0,.45,0l0,.37a4,4,0,0,0,.41.17,3,3,0,0,0,.44,0c-.15.12-.3,0-.43.07s.13,0,.18.09v.11s0,0,0,0c.16,0,.24.22.44.16h0c-.07.06-.13.13-.07.21a.7.7,0,0,0,.21.11s.07,0,.1,0h0a1.06,1.06,0,0,0,.72.09c0,.07,0,.09-.08.13s-.06.08-.05.11.08.11.13.11a3.74,3.74,0,0,0,.58,0,2.32,2.32,0,0,1,.44,0c-.08.16-.26.08-.34.16,0,.27,0,.27.15.38a1.54,1.54,0,0,1,.3,0,2.8,2.8,0,0,1,.34.05,1.14,1.14,0,0,1-.06-.14c0-.06,0-.15,0-.19a.51.51,0,0,0-.21-.1c0-.11.12-.14.23-.16l.33-.07s0,0,0-.06h-.06l-.09-.23c-.14-.1-.31-.05-.47,0l-.06.18-.08-.21.18-.12c-.12-.06-.22-.16-.32-.17s-.22,0-.29-.09c.15-.11.35-.11.51-.2-.08-.15-.1-.17-.2-.13a.77.77,0,0,1-.45.05s-.11,0-.18.08-.34-.3-.6-.29h0v-.19l-.36-.12v-.27l.25,0a.21.21,0,0,1,.25-.23c.23,0,.46,0,.69.05l.11.34c.47.1.47.1.69.46l.16-.1.14.27a2.32,2.32,0,0,0,.38.06.7.7,0,0,1,.4.06,1.23,1.23,0,0,0,.06.22c0,.13.12.23.31.19,0,0,.08,0,.21,0l-.82.12c0,.08,0,.12.06.11.28,0,.55-.05.84-.06h.23a.85.85,0,0,1,.17.06l0,.18c.06,0,.12,0,.16,0a1.61,1.61,0,0,1,.84-.09c.17.09.36,0,.53,0l.2,0a.63.63,0,0,1-.15.1l-.45.07c-.25-.17-.56,0-.86,0-.05,0-.09.07-.13.11s.06.05.08.05a.48.48,0,0,1,.34.11c.17.16.18.14.38,0h.06c0,.08.06.17,0,.25s0,.17.13.2l.17,0,0,.25a.56.56,0,0,1-.22,0,1.16,1.16,0,0,0-.79-.15.52.52,0,0,0-.3.13c-.17.18-.36.13-.56.09s-.28-.13-.44-.07c-.18-.11-.43-.09-.57-.26,0,0,.09,0,.12,0a.35.35,0,0,0,.38,0c0-.08-.17-.12,0-.24s0-.15-.06-.21-.42.13-.53.34l.14.16c-.18.08-.29.24-.51.31a.93.93,0,0,0-.25-.1,2.06,2.06,0,0,1-.26,0c-.12,0-.18.05-.23.15a.76.76,0,0,0,.49,0c0,.08-.08.07-.12.08a1,1,0,0,1-.42,0c-.15,0-.22.09-.35.08s-.34,0-.47-.13a1,1,0,0,1-.72.17,3.25,3.25,0,0,0-.54,0,.26.26,0,0,1-.25-.14.27.27,0,0,0-.08.07.47.47,0,0,0-.09.1l-1.29,0-.36-.35c-.17.15-.41.1-.62.18l.1.22-.14.05-.77.1a.4.4,0,0,1-.22,0c-.11-.08-.2-.16-.34-.06s-.05,0-.07,0c-.24-.21-.55-.12-.85-.14,0,.19.23,0,.26.17a.77.77,0,0,1-.16.07l-.27,0a.46.46,0,0,1-.26,0,.84.84,0,0,0-.56.07.55.55,0,0,1-.22.06,3,3,0,0,1-1.16-.08.88.88,0,0,1-.58.13,1.27,1.27,0,0,0-.34,0,1,1,0,0,1-.46,0,.61.61,0,0,0-.19,0,1.34,1.34,0,0,1-.85,0,1,1,0,0,1-.49.11,14.54,14.54,0,0,0-1.48.05,2.15,2.15,0,0,1-.91-.09c-.11,0-.19.17-.34.09h-.07c-.2.12-.42.05-.64.05s-.57-.07-.82.11a.36.36,0,0,1-.15,0c-.38-.05-.75,0-1.13,0l-.3,0a.91.91,0,0,0-.49,0c-.15.06-.29-.07-.43-.09l-.25.15c-.12,0-.22-.13-.32,0l-.85.05-.81.06a.77.77,0,0,1-.56-.13.16.16,0,0,0,.25,0c-.09-.12-.17-.05-.25,0s-.07.15-.18.15a5.48,5.48,0,0,1-1.28,0,.42.42,0,0,0-.19,0,2.24,2.24,0,0,1-.73.07H247a.35.35,0,0,1-.34-.14.9.9,0,0,1-.19.14.59.59,0,0,1-.23,0,7.3,7.3,0,0,0-.81,0c-.15,0-.3,0-.45,0s-.3,0-.46,0-.3,0-.45,0c-.36,0-.72,0-1.07,0-.57,0-1.14.08-1.71.08l-.39,0a8.16,8.16,0,0,1-1.31.08c-.23,0-.46,0-.69,0s-.75,0-1.12,0-.8,0-1.19.09-.78,0-1.17,0-.57,0-.85,0a1.29,1.29,0,0,0-.19,0,.65.65,0,0,1-.19,0,1.91,1.91,0,0,0-.63,0c-.2,0-.41,0-.62,0l-.46,0a1.77,1.77,0,0,1-.46,0,1.56,1.56,0,0,0-.3,0c-.15,0-.3.09-.45,0a.11.11,0,0,0-.08,0c-.19.11-.4.05-.6.07l-.58,0c-.05,0-.11,0-.14,0a.16.16,0,0,0-.24,0,.38.38,0,0,1-.49,0s-.07,0-.1,0-.07,0-.1,0a7,7,0,0,0-1.12.09c-.27,0-.54,0-.81.07l-.92.09-.74,0-1.32.08c-.7,0-1.39.15-2.09.15-.16,0-.31.05-.47.06-.37,0-.75,0-1.12,0s-.75,0-1.13,0a.53.53,0,0,1-.48-.16s-.11-.05-.17-.07l-.2-.09.13-.2-.28-.1.11-.17c-.32-.14-.22-.37-.17-.59-.18-.13-.18-.13-.12-.37a.38.38,0,0,1-.23-.25c0-.15-.19-.29,0-.45s0-.11,0-.17,0-.19.12-.28c-.14-.05-.24-.14-.21-.27s0-.25.26-.27a.44.44,0,0,0,0,.14.1.1,0,0,0,.13.09c.09,0,0-.09,0-.17s.12,0,.15,0a1.59,1.59,0,0,1,.21.15l.1,0a1.14,1.14,0,0,1,.64-.22.41.41,0,0,0,.4.1.3.3,0,0,1,.21.06c.09.05.17.13.29.21a.24.24,0,0,0,.23-.1.72.72,0,0,1,.87-.25.35.35,0,0,0,.29,0c.05,0,.06-.1.08-.15a1.1,1.1,0,0,1,.54,0c.06,0,.15,0,.18.06s.31.09.46.08.21-.08.33,0a1.16,1.16,0,0,1,.64,0,2.39,2.39,0,0,0,.6,0,.89.89,0,0,0,.57-.28c.24.06.49.23.71,0l.11.12.14-.07,0-.18,0,0a1.64,1.64,0,0,1,.7,0v.16a1.83,1.83,0,0,0,.87,0,.73.73,0,0,0,.5-.16s.08-.05.1,0,.25,0,.38-.05a.28.28,0,0,1,.27.07c.1.08.23.11.31.22s.13,0,.28.08l-.18-.24a.15.15,0,0,1,0-.13s.1,0,.16,0l.27.13-.06,0-.06,0,0,0,.07,0s.07,0,.09,0a.51.51,0,0,1,.13.09l.06-.18c.11,0,.21,0,.27.07a.15.15,0,0,0,.14.09c.15,0,.21.08.17.21s0,0,0,.08l.11-.2.21,0a.37.37,0,0,0,.15,0,.16.16,0,0,0,.09-.09.17.17,0,0,0-.08-.06c-.14,0-.28,0-.42,0s-.1-.05-.06-.13h.1a3,3,0,0,0,.84-.05.42.42,0,0,1,.41.1l.34-.31.23.24h.41c0,.12-.12.06-.18.15.13-.05.26.06.35-.08h0c.22,0,.34.14.51.24s.24-.19.41-.08c0,0,.05,0,.07,0a3.06,3.06,0,0,1,.58-.14c.14-.05.25.06.37,0,0-.24,0-.24.27-.42l.23.11c.17.07.18.06.25-.14a.41.41,0,0,1,.29,0,.69.69,0,0,0,.38,0Zm23.14,1.39.05,0s0,0,0,0l0,0-.06,0v-.07h0ZM258,333.25l-.14,0s0,0,0,0h0l.14,0v0Zm-4.81.45c-.09-.05,0-.09,0-.13s0,0,0,0h0s0,0,0,0,.11.05.07.12l0,0c.05,0,.13,0,.13-.08v0a.12.12,0,0,0-.13.09Zm1.89-.42h.07l0,0-.05,0s0,0,0,.05-.14,0-.15,0,.07.11.15.1l0,0,0,0h-.08Zm-2.67.4.07,0s0,0,0,0h0l-.07,0-.12.13C252.49,333.82,252.45,333.74,252.45,333.68Zm-1.68.6s0,.05,0,.06a.18.18,0,0,0,0,.09l.09-.05,0-.07-.07,0-.18,0c-.05,0-.09,0-.1.06Zm-6.3.05.12.23.37,0a.85.85,0,0,0-.5-.19l-.05-.09h-.07s0,.05,0,.06Zm22.43-.21a.47.47,0,0,1,0,.17.67.67,0,0,1-.12.17.51.51,0,0,0,.38-.17l-.24-.16c0-.06.1-.14,0-.16Zm3.18-.71H270l0,0h.1a1.09,1.09,0,0,0,.18,0c.06,0,.14-.07.14-.09a.58.58,0,0,0-.08-.22h-.07c0,.11-.05.18-.19.19A.36.36,0,0,1,270.08,333.41Zm1.45.65c.05-.22-.13-.23-.31-.28l-.09.15.4.12.09,0,0,0Zm-10.53.71,0-.16c-.15,0-.35-.12-.48.13.19,0,.35.11.52,0l0,.05s-.06.08,0,.11a.08.08,0,0,0,.08,0s.06-.06,0-.1Zm9.89-1c0-.1-.08-.11-.15-.12s-.25,0-.39,0l-.05.33c.21-.12.43-.07.6-.2l.05,0h0l0,0Zm-8.42.16,0,.11a6.75,6.75,0,0,0,1.1,0s0,0,0-.06a1.34,1.34,0,0,0-.63,0,1.57,1.57,0,0,1-.53,0c-.06.05-.17-.07-.24.07Zm.95-1a.67.67,0,0,0,.18.11c.08,0,.13,0,.14-.1l0,0h-.29c-.07,0-.1,0-.11-.05s0-.25-.14-.34-.17.24-.35.27a.13.13,0,0,0,0,.09s0,.07,0,.12h.3l.3,0Zm-6.15.19c-.06-.1-.1-.2-.24-.24l-.07.2a.67.67,0,0,0-.69.08l.56.22s-.06,0-.06,0,0,.05,0,.08l.06,0a.27.27,0,0,0,0-.09c.05,0,.12,0,.14-.05a1,1,0,0,1,.3-.2s0,0,0,.06l0,0v-.09Zm4-.3-.07.28.13.14,0,0a.17.17,0,0,0,.27-.07c.05-.12.19-.06.24-.19l0-.31-.23,0,.05.24c-.15,0-.15,0-.26-.07a.34.34,0,0,0-.14-.05l-.1,0,0,0,0,0Zm-15.86.3c0,.07-.1.07-.16.07a2.14,2.14,0,0,0-.62,0,.64.64,0,0,0-.14.08c0,.11.25,0,.16.19-.14,0-.25-.15-.42-.06.07.08.13.15.24.15a.94.94,0,0,0,.34,0c.11,0,.22,0,.31,0v-.25h0a1,1,0,0,0,.25,0c.07,0,.12,0,.18,0s.13,0,.14-.05-.06-.06-.1-.08l-.18,0-.05-.12a.34.34,0,0,0-.12,0s0,0-.08.09Zm3.08,1c0-.12.11-.24,0-.37h-.17l.07-.11-.24-.1-.1.17-.27,0a.46.46,0,0,1-.42.18.58.58,0,0,0-.19,0c-.1,0-.11.08,0,.16a.34.34,0,0,0,.1,0,1,1,0,0,1,.64,0,.36.36,0,0,0,.23,0l.29-.08c.1,0,.14,0,.13.12l.24,0A.18.18,0,0,0,248.53,334.09Zm8.54-.31a.15.15,0,0,0-.07,0l0,0h.11a.69.69,0,0,1,.33.22l-.11.06s-.11.05-.11.07a.13.13,0,0,0,.08.1.89.89,0,0,0,.17.08.38.38,0,0,0,.43,0c.07-.06.21-.1.18-.2s.18-.1.12-.22l-.31-.15.13-.13c0-.08-.06-.17-.19-.11l-.1,0-.61,0C257,333.63,257.06,333.7,257.07,333.78Zm5.78-.59-.54-.06a1,1,0,0,0-.13.16,1.25,1.25,0,0,0,0,.19l-.55.31c.48,0,.48,0,.73-.27.06,0,.14,0,.17,0a.91.91,0,0,0,.49.22c.11,0,.07-.14.13-.17s.11-.1.16-.16.1,0,.15.08c.21-.07.45-.09.57-.3l-.26-.11-.07.18a1.81,1.81,0,0,1-.27-.06,1.43,1.43,0,0,1-.21-.12l-.18.11s0-.1-.06-.12S262.83,333.1,262.85,333.19Zm-2.21.12a.44.44,0,0,1-.58,0,.34.34,0,0,0-.25-.06c-.13,0-.25,0-.37.06l-.12-.18c-.11,0-.21,0-.26-.11l.17-.1a.94.94,0,0,0-.56-.06l0,.24a.86.86,0,0,0-.23,0c-.05,0-.08.06-.15.12a1.4,1.4,0,0,0,.89-.08.45.45,0,0,1,.11,0,.9.9,0,0,0-.19.36,2.21,2.21,0,0,0,0,.35c-.07,0-.15.06-.17.1s.06.11.13.14l.14,0c.1-.1.22-.18.25-.31a.79.79,0,0,1,.08-.16l.57.2.09-.13c.12.12,0,.27.1.39a1.36,1.36,0,0,0,.42-.1c.1-.07.12-.22.18-.33v0c-.14-.11-.14-.11-.24-.35h-.11v0Zm7.8-.54a1.91,1.91,0,0,1-.43-.21,2.64,2.64,0,0,0-.45-.15s0,0,0-.05.14,0,.22,0a.11.11,0,0,0,.08-.05.12.12,0,0,0,0-.1l-.15-.08a.25.25,0,0,1-.31.12c-.15-.05-.19.07-.23.14a1.06,1.06,0,0,1,.09.13c0,.07-.06.08-.16,0h0l-.05.13a1.6,1.6,0,0,1,.66.07l.1.29-.3.27c.07,0,.13.09.17.08a3.87,3.87,0,0,0,.63-.16,3.57,3.57,0,0,1,.84-.13l.11.16.21,0,.18,0a.8.8,0,0,1,0-.22,1,1,0,0,1,.13-.21,1,1,0,0,1-.62-.18.24.24,0,0,0-.15,0s-.12,0-.13,0,0,.1,0,.15c.24-.06.25,0,.26.22-.13.05-.18,0-.22-.1l-.5,0Zm-3.28.72a3.51,3.51,0,0,0,.42-.06.2.2,0,0,0,.16-.24c0-.11-.07-.16-.2-.17h-.34a.83.83,0,0,1-.18-.07l.07-.14s.07-.07,0-.12a2.06,2.06,0,0,1-.62.09,1,1,0,0,0-.37.09.1.1,0,0,0-.05.17,2.21,2.21,0,0,1,.27-.12,1.72,1.72,0,0,1,.34-.06c.1,0,.17,0,.13.15l-.24.07c.08.24.08.26.29.25A.31.31,0,0,1,265.16,333.49Zm-8.7.43h-.25c-.14,0-.25,0-.23-.21,0,0,0-.09-.08-.09a.87.87,0,0,0-.5.05.5.5,0,0,0,0,.13c0,.14.24.05.33.13a.27.27,0,0,1-.2.16c-.07,0-.17.07-.14.2l.48-.12.23-.11a.37.37,0,0,1,.18,0C256.43,334.08,256.36,334,256.46,333.92Zm-13.13.17c-.48-.18-.92,0-1.36-.07l-.15.12a.1.1,0,0,0,0,.09.11.11,0,0,0,.09,0,.25.25,0,0,0,.15,0,1.74,1.74,0,0,0,.2-.13,1.06,1.06,0,0,0,.34.1A5.6,5.6,0,0,0,243.33,334.09Zm-3.88,0a3.2,3.2,0,0,0,.27.25c.13.08.24-.07.36-.07h.15a.33.33,0,0,0,0-.33s-.07,0-.08,0a.6.6,0,0,1-.54.08A.16.16,0,0,0,239.45,334.06Zm26.9-.4c0-.06-.06-.13-.1-.14a.77.77,0,0,0-.87.2c.06,0,.12.08.17.08A2.54,2.54,0,0,0,266.35,333.66Zm-11.32.91c-.19-.19-.42-.1-.63-.09-.06,0-.12.12-.09.17s.1.16.22.17l.29,0Zm3.09-1.83c-.14.1-.35.08-.48.23l.33.17L258,333l.35,0,0-.16Zm-4.46.39a.37.37,0,0,0-.4-.22l-.12,0v.3l0,0,.45-.11Zm18-1.14s-.1-.13.06-.12.07-.08,0-.1l-.28-.09-.21.25C271.35,332.06,271.49,332,271.63,332Zm-9.83,2.84-.26.2c-.05,0-.09.09,0,.14A4.38,4.38,0,0,0,262,335a.58.58,0,0,0,.15-.16Zm-7.64-1.73c-.26-.14-.27-.13-.39.08l-.08.13c.19.05.24.05.25,0S254.09,333.17,254.16,333.1Zm.53.77a1.19,1.19,0,0,0,.46-.15.79.79,0,0,0-.56-.09Zm2,.69c-.16.05-.16.16-.15.27a.45.45,0,0,0,.38-.05Zm-7.76-.65a.74.74,0,0,0,0,.14l.05,0a.18.18,0,0,0,.22-.06s0-.2-.05-.2l-.17,0S248.93,333.89,248.9,333.91Zm23.58-1.09c.06,0,.09.07.11.07s.34,0,.44-.19C272.8,332.66,272.8,332.66,272.48,332.82Zm-5.82,0-.17.15a.41.41,0,0,0,.38.1A.36.36,0,0,0,266.66,332.86Zm-28,1.31c-.14-.08-.25-.12-.36-.05s-.13.07-.07.16A.66.66,0,0,0,238.68,334.17Zm.45-.35c.13,0,0-.17.11-.2s0-.09-.07-.1a.17.17,0,0,0-.2.06.11.11,0,0,0,0,.15Zm0,1,.31-.11a.24.24,0,0,0-.29,0C239.14,334.68,239.11,334.74,239.17,334.82Zm4.41-.3a2.07,2.07,0,0,0-.33-.1c-.06,0-.1,0-.08.08A.37.37,0,0,0,243.58,334.52Zm29.73-1a.37.37,0,0,0,.37.07c-.12-.15-.13-.16-.2-.15A1.22,1.22,0,0,0,273.31,333.48Zm.22-.77s0-.06-.09-.06-.16,0-.17.09a.22.22,0,0,0,.09.13C273.42,332.9,273.52,332.81,273.53,332.71Zm-18.23,2.37v.22a2.19,2.19,0,0,0,.23-.07s0-.08.05-.13Zm-19-.72c-.13,0-.21-.13-.32,0v.19c.07,0,.16.09.17,0S236.28,334.43,236.34,334.36Zm30.26-.23c0-.05.06-.08,0-.09s-.16-.1-.37,0Zm2.55-2.26c-.17-.07-.26-.08-.34,0a.11.11,0,0,0,0,.06s0,0,0,0Zm5.48,1.66-.25.22s0,0,0,.06.06,0,.07,0a.55.55,0,0,0,.17-.13S274.64,333.63,274.63,333.53Zm-22.19-.13c.14,0,.15-.12.11-.2s-.12-.07-.19,0-.07,0-.12.09Zm8.42.58s.06.1.1.1a1.15,1.15,0,0,0,.26,0v0s0-.06,0-.06A.4.4,0,0,0,260.86,334Zm-1.15.41c0,.13,0,.17.05.17a.4.4,0,0,0,.15,0s0,0,.06-.07Zm11.5-2.68-.18-.2-.12.09C271.11,331.76,271.11,331.76,271.21,331.71Zm-18.51,2.05a.35.35,0,0,0,.43,0Zm-23.87.33s0-.08-.07-.08a.18.18,0,0,0-.13,0s0,.09,0,.12a.18.18,0,0,0,.13,0Zm39.36.17v0l.31.08a.08.08,0,0,0,.06,0s0,0,0,0Zm-1.7.18-.15-.06c-.06,0-.1,0-.11,0s0,.06,0,.07S266.43,334.54,266.49,334.44ZM257,335c0,.28,0,.28.2.21Zm17.06-1.73a.19.19,0,0,0-.26,0,.17.17,0,0,0,0,.06.18.18,0,0,0,.08,0Zm-44.84,1.58,0-.08a.75.75,0,0,0-.21,0,.08.08,0,0,0,0,.08.12.12,0,0,0,.08.06Zm42.26-.41a.23.23,0,0,0-.24,0s0,0,0,.06a.07.07,0,0,0,.05,0C271.39,334.53,271.49,334.56,271.52,334.43Zm-19.41-1.31c-.11-.09-.18-.1-.25,0a.06.06,0,0,0,0,.06c.07.09.15,0,.23,0S252.1,333.13,252.11,333.12Zm12.78,1.51c-.29-.11-.29-.11-.34,0Zm-29.49-1.35,0-.07h-.18a0,0,0,0,0,0,0c0,.07.09.06.15.06S235.37,333.3,235.4,333.28Zm7,1.48c.08-.06.18-.07.14-.16s-.07,0-.14-.07ZM259.77,333h-.19s0,0,0,.05,0,0,0,0S259.73,333.14,259.77,333Zm11.19.16,0,0a1.4,1.4,0,0,0-.09.17l.06.07s.07,0,.08-.06A.85.85,0,0,0,271,333.2Zm-21.4,1.15c.09,0,.13.07.17.07a.1.1,0,0,0,.08-.06.09.09,0,0,0-.07-.06A.85.85,0,0,0,249.56,334.35Zm3.15,1c-.06,0-.09-.08-.13-.09s-.05,0-.08.05.05.07.09.09S252.65,335.4,252.71,335.37Zm-22.45-.63c.05.11.05.11.29,0A.41.41,0,0,0,230.26,334.74Zm38.6-2.31.06-.08-.06,0-.09,0Zm-36.1,1.7c-.08,0-.12,0-.15,0s-.05,0-.08,0,.05.06.07.06Zm28.15.12-.09.08.07.05.09-.08Zm8.36-.81.11.05c.05,0,.09,0,.12,0s0,0,0-.06a.21.21,0,0,0-.13,0S269.31,333.41,269.27,333.44ZM270,333l.1-.06s0-.05-.06-.05l-.09,0Zm-24.48,2,.12-.07s.09-.05,0-.09a.08.08,0,0,0-.13,0A.49.49,0,0,0,245.5,335Zm4.05-.09-.1.08s.07,0,.1,0,0,0,.06,0Zm-10.17-1.74v0l-.13,0-.06,0s0,.07.05.07A.28.28,0,0,0,239.38,333.19Zm7.41.75c0,.06-.06.09,0,.11a.09.09,0,0,0,.06.07s.07,0,.07-.05A.76.76,0,0,0,246.79,333.94Zm1.19.42.06-.07s0,0-.06,0l-.06.06Zm18-1.29-.07,0a0,0,0,0,0,0,0,.24.24,0,0,0,.09.06.18.18,0,0,0,.09,0s0,0,0-.06A.3.3,0,0,0,265.94,333.07Zm-17.28,1.13-.07,0,.06.08h.06Zm10.22-2,0,0s0,.06,0,.08l.08.06,0,0Zm-18.52,2.18h0a.61.61,0,0,0,.13,0v0a.09.09,0,0,0-.13,0S240.37,334.39,240.36,334.41Zm32.26-2.05s-.08,0-.09.07,0,0,0,.07.07,0,.08-.05S272.63,332.4,272.62,332.36Zm-13.18,1.75c.07,0,.13.06.18,0S259.49,334,259.44,334.11Zm-22.6,1.36c.06,0,.08.09.11.1s.07,0,.1,0,0-.07,0-.08Zm21.43-1.1-.09.05.1.09.07-.05Zm1.74-1.31.06,0,.06,0-.06,0Zm1.75.29-.08,0-.05,0s.05,0,.07,0Zm.9-.54-.08-.05a.2.2,0,0,0,0,.08.25.25,0,0,0,.09,0Zm.37,1.79.05,0s0,0,0-.06l-.07.05Zm-25.77,0v0l-.13,0s0,.05,0,.05Zm30.95-2.24v0h.12v0Zm-12.9.58v0Zm-8.65.93s-.06,0-.09,0,0,0-.06.05l.08.05Zm24.59-2.5-.06,0s0,0,0,.06l.08,0Zm-17.56,2.31-.13,0s0,0,0,0l.11.06S253.66,333.77,253.69,333.73Zm-14.71.33.09,0s0,0,0,0l-.08,0Zm-.12.67h.07c0-.05,0-.1,0-.14s0,0,0,0a0,0,0,0,0,0,0Zm13.4.17-.06,0s0,0,0,.05a.1.1,0,0,0,0,0Zm-10.68.08-.05.08.06,0a.2.2,0,0,0,.06-.07Zm16.76-1.49.05,0s0,0,0-.06-.05,0-.06,0S258.35,333.47,258.34,333.49Zm-7.57.63-.06,0,0,0s0,0,0,0Zm-4.55,0a.16.16,0,0,0,0,.08s0,0,0,0l.08-.06Zm-4.4-.56,0,0h.08Zm.21.14.05,0,.1,0,0,0Zm.69-.63,0,0-.07,0Zm-7,.23,0,.05.07,0,0-.06Zm15.52,1-.09,0s0,0,0,0,0,0,.06,0S251.26,334.24,251.26,334.22Zm-13.19-.08,0,0H238s0,0,0,0Zm10.64-.87,0,.05.07,0,0-.06Zm7.52.08s0,0,0,.06l.06,0s0-.05,0-.06S256.25,333.36,256.23,333.35Zm-13.78.08-.06,0h.1Zm30.32.14h.06l0,0-.07,0Zm-3.92-1.46s0,0,0,0l.07,0-.07-.06Zm1.93-.46,0,0h0s0,0,0,0Zm-42.07,2.1-.05,0v0h.06Zm32.53-.39v0h0l0,0Zm5.12-.48h0l0,0h0Zm-3.76,1.3s0,0,0,.06,0,0,0,0l0,0ZM260,332.86l0-.06a.07.07,0,0,0,0,.05s0,0,0,.06Zm0,1.46h0Zm-5,.66,0,0,.05,0,0,0Zm-.9-1.16h0v0h0Zm7.06-.18,0-.05s0,0,0,0v.05Zm-6.52-.27-.06,0v0h.06Zm16.16.57h0v0h0Zm-4.85.57h0Zm2.36-2.52h0Zm.46,2.3s0,0,0,0h0v0Zm-.08-1h0v0Zm.11.5h0l0,.06,0,0S268.86,333.8,268.85,333.78Zm-1.74,0-.06,0s0,0,0,0h.06Zm0-.34h0v0l0,0Zm-2.76.59v0Zm-8.56.69v0h0Zm7.36,0h0v0h0Zm10.27-1.47h0v0Zm-8.21.41v0h0Zm8-.38h0v0Zm1,.13-.06,0,0,0h.07ZM244.92,333l0-.05,0,0,0,.06S244.92,333,244.92,333Zm-1.24,2,0,0v0Zm-9.46.69,0,0h0s0,0,0,0Zm.73-2.12-.06,0s0,0,0,0,0,0,.06,0Zm4.81.82-.06,0,0,0h.06Zm-2.28-.18-.06,0,0,0,.06,0Zm13.35.9v0h0s0,0,0,0Zm-1-.1,0,.05,0,0,0-.05Zm.82-2.35h0a0,0,0,0,0,0,0h0Zm3.4,2.64a.09.09,0,0,0,0,0l.06,0-.06,0A.09.09,0,0,0,254,335.31Zm-1.1-1.64h0v0h0Zm-5.78.71h0v0h0Zm2.13.06h0v0h0Zm.11-.29-.06,0,0,0h.06Zm.1.6h0v0Zm-1.15-.27h.06s0,0,0,0ZM230.41,334l0,0v0Zm.43,1.18-.06,0s0,0,0,0h.07Zm.57-1.68h0l0,0,0,0Zm-8,2.13,0,0,0,0,0,0Z"></path>
  <path d="M281.38,331.54c.11.14.23.12.36,0l.12.19-.18.2c-.12-.15-.23-.09-.33.05-.11-.06-.18-.16-.32-.17s-.24,0-.27-.12l-.52-.09a.48.48,0,0,0-.33.08c.1.16.1.16.35.28-.33.09-.36.08-.59,0l.06-.2-.15-.11c.12,0,.27,0,.26-.2s-.14,0-.21.07l-.31-.07a.34.34,0,0,1,0,.11v.09a.15.15,0,0,1-.1,0,.91.91,0,0,1-.2-.24s0-.08,0-.13h0c.06,0,.12-.05.17,0a.64.64,0,0,0,.44-.07l0-.25h.16l.18-.06h.2l0,.19c.13,0,.25.07.28-.12s.12-.07.2-.06.1,0,.1-.08a.16.16,0,0,0-.09-.06.67.67,0,0,1-.19-.05,1.46,1.46,0,0,1,1.09.25c0,.07,0,.21.13.28h.36c.08,0,.13,0,.12.1a.15.15,0,0,1-.08.11c-.19,0-.36.13-.56.1h0v-.14a.71.71,0,0,1-.2,0,.91.91,0,0,1-.23,0,1.6,1.6,0,0,0-.23,0,.14.14,0,0,0-.15.09l.26.17c.14-.05.16.11.28.14l0-.17.15,0Zm-1.37-.12.07,0,0,0-.05,0S280,331.41,280,331.42Z"></path>
  <path d="M278.43,332.14c-.07.11,0,.2.1.33l-.43,0s0-.05,0,0v0l-.31-.11,0-.21-.53.21,0-.09v0l0,0v.1a.21.21,0,0,1-.3,0,.93.93,0,0,0-.36-.21V332s0,0-.06,0c-.2.11-.37,0-.54-.06s-.05-.12,0-.14a.16.16,0,0,0,.11-.15c0-.07.12-.13.19-.2s-.08-.09-.14-.08a1.63,1.63,0,0,1-.54,0s-.11,0-.11-.07,0-.14.07-.15.17-.09.28-.05l.11,0a.72.72,0,0,1,.49.05l0,.17c.07.07.15.09.22,0s.14,0,.27,0l-.18.14-.15.09.22.09a.85.85,0,0,1,.14.11.74.74,0,0,0,.3-.31.4.4,0,0,1,.37,0,1.09,1.09,0,0,0,.71.09s.07,0,.11,0l-.47.12.21.18V332c.1,0,.25,0,.25.17s0,0,0,0h0c-.07,0-.17-.07-.24,0C278.29,332.23,278.35,332.14,278.43,332.14Zm-.49-.32-.09.12s.06,0,.09,0,.06,0,.07-.06S278,331.87,277.94,331.82Zm-.52.06,0,0,.06,0,0,0Z"></path>
  <path d="M274.85,331.78s-.1-.13-.11-.12-.13,0-.16-.08a.24.24,0,0,0-.16-.08c-.2.09-.4-.06-.61,0v-.33l0-.05c.08-.07.21-.09.24-.21a.28.28,0,0,1,.26-.14,2.05,2.05,0,0,1,.74,0,1,1,0,0,1-.19.12c-.11,0-.26,0-.29.16h-.1c-.07,0-.11,0-.1.07a.08.08,0,0,0,.11.06.13.13,0,0,1,.2.09,1.43,1.43,0,0,1,.06.21c.17.13.35,0,.51.09s0,.18-.14.15a1,1,0,0,0-.3,0Z"></path>
  <path d="M274.84,331.77c0,.21,0,.21.3.11l.23.21a.34.34,0,0,0,.34.12.55.55,0,0,1,.29.09s0,.07.07.13a1.72,1.72,0,0,1-.93,0,.7.7,0,0,1-.23-.11c-.07-.1-.18-.07-.3-.1l.08-.15-.16-.12s.09-.07.11-.06a.2.2,0,0,0,.21-.07Z"></path>
  <path d="M278.74,333.49l0-.3s0,0,.08,0l.65,0c.11,0,.21,0,.28.07s-.16.05-.2.12l-.24-.1c-.05,0-.08,0-.1,0s-.17.13-.27.19S278.83,333.46,278.74,333.49Z"></path>
  <path d="M270.26,332.68s.08-.07.12-.07a1.53,1.53,0,0,1,.76.07l-.65.27h0l.07-.21c-.17.08-.23,0-.31-.08Z"></path>
  <path d="M278.09,332.94c.25-.05.42-.09.6-.11a1.38,1.38,0,0,1,.26,0,.28.28,0,0,1-.27.23h0Z"></path>
  <path d="M256.15,332.19c0-.08-.06-.14,0-.16a1,1,0,0,1,.3,0,2.41,2.41,0,0,1,.38,0s0,0,.09.09Z"></path>
  <path d="M277.26,333.18c-.06.29-.36.11-.45.32a.46.46,0,0,1,0-.26C276.91,333.19,277.08,333.26,277.26,333.18Z"></path>
  <path d="M282.34,332a1.59,1.59,0,0,1-.49,0c0-.11.06-.22.1-.32s.06,0,.1,0,0,.05,0,.08a.18.18,0,0,1,0,.09c0,.14.26,0,.29.19Z"></path>
  <path d="M274.26,332.41l.06-.14a2.47,2.47,0,0,1,.29.06s.05.05.05.08,0,.07-.07.07A.34.34,0,0,1,274.26,332.41Z"></path>
  <path d="M283.46,330.65a.15.15,0,0,1-.14.2.14.14,0,0,1-.21-.1c.1-.07.2-.17.36-.1Z"></path>
  <path d="M282.94,330.73l-.31,0a1.15,1.15,0,0,0-.22,0C282.55,330.61,282.61,330.6,282.94,330.73Z"></path>
  <path d="M254.44,332.07c.13-.12.21,0,.31,0l-.1.12Z"></path>
  <path d="M261.36,331.77c.18.07.05.15.05.21l-.06,0s0,0,0-.05S261.34,331.85,261.36,331.77Z"></path>
  <path d="M283.44,331.08c.14,0,.18.06.19.14a.1.1,0,0,1,0,0c-.09.07-.1.07-.12,0S283.45,331.15,283.44,331.08Z"></path>
  <path d="M280.55,334.23l-.14-.15s0-.05,0-.11a2,2,0,0,1,.16.19l-.07.06Z"></path>
  <path d="M249,332.5s.06.07.06.1a.12.12,0,0,1-.13.1s-.12,0-.09-.07S248.87,332.56,249,332.5Z"></path>
  <path d="M247.56,332.65l.19-.11s.05,0,.07,0,0,.05,0,.05Z"></path>
  <path d="M254.85,332.17s0-.06,0-.07l.09,0a.1.1,0,0,1,0,.08.13.13,0,0,1,0,.05.15.15,0,0,1-.09,0S254.86,332.19,254.85,332.17Z"></path>
  <path d="M279.21,333.74c.06-.09.14,0,.2-.07s-.05.08-.09.08S279.25,333.74,279.21,333.74Z"></path>
  <path d="M279,331.24h0c-.12,0-.17,0-.12-.17Z"></path>
  <path d="M258.2,332.29,258,332h.18c0,.09,0,.16,0,.23Z"></path>
  <path d="M270.52,331.31l-.26.1C270.26,331.26,270.26,331.26,270.52,331.31Z"></path>
  <path d="M275.75,332.78l.17,0v0l-.16.05Z"></path>
  <path d="M262.58,331.84l-.13,0c0-.08,0-.15.11-.15v.13Z"></path>
  <path d="M238.51,332.9l.08.1s-.05,0-.05,0a.34.34,0,0,1-.09-.08Z"></path>
  <path d="M279.28,333.05h-.15s-.05,0-.05,0,0,0,0-.06h.07Z"></path>
  <path d="M239.93,332.52a.22.22,0,0,1,0,.08l-.06,0-.06-.07Z"></path>
  <path d="M276.44,333.67c0-.07.06-.09.13-.06s0,.07-.06.07Z"></path>
  <path d="M261.58,332.17l.1-.07.06.06-.12.08Z"></path>
  <path d="M282.33,332l.07,0s.09-.05.13,0a0,0,0,0,1,0,0l-.12.06s-.05,0-.08-.06Z"></path>
  <path d="M283.47,330.65l.16,0v0h-.16Z"></path>
  <path d="M261.45,332.17a.14.14,0,0,1,0,.06l-.06,0a.21.21,0,0,1,0-.06Z"></path>
  <path d="M259.49,331.61l0,0,0,0,0,0A.1.1,0,0,1,259.49,331.61Z"></path>
  <path d="M277.77,332.75l.05,0a.18.18,0,0,1,.07.05l0,0Z"></path>
  <path d="M246.34,333.27h.16v0h-.16Z"></path>
  <path d="M276.23,332.74l.07,0s-.05,0-.08,0,0,0-.05,0Z"></path>
  <path d="M279.74,333.43s0,0,0,.06l-.06,0s0,0,0-.05Z"></path>
  <path d="M279.49,333v0l.13,0,0,.05-.13,0Z"></path>
  <path d="M250.82,332.1h0l0,0h0Z"></path>
  <path d="M236.22,333h0l.06-.11,0,0Z"></path>
  <path d="M257.3,332l0,0-.08,0,0-.05Z"></path>
  <path d="M253.17,332.2h-.12v0h.12Z"></path>
  <path d="M271.41,332.7v0h0Z"></path>
  <path d="M270.85,332.1l-.18,0s0,0,0,0l0,0,.17.07Z"></path>
  <path d="M282,332.2h0Z"></path>
  <path d="M282.12,331.54h-.06s0,0,0,0l0,0Z"></path>
  <path d="M280.12,330.68l0,0-.05,0h0Z"></path>
  <path d="M280.45,332v0h0Z"></path>
  <path d="M283.27,331.26l0,0,0,0s0,0,0,0Z"></path>
  <path d="M264.94,331.63l.15-.08,0,0-.17,0Z"></path>
  <path d="M262.2,331.72l.05,0,.07.06,0,0Z"></path>
  <path d="M233.5,333.31l-.07,0,.06-.06s0,0,.06,0Z"></path>
  <path d="M232.72,333.33c0-.07.07-.06.11,0a.25.25,0,0,1,0,.09h0l-.17-.07Z"></path>
  <path d="M260.78,332.39v0l0,0Z"></path>
  <path d="M281.55,331.47l-.17.07h0l.15-.07Z"></path>
  <path d="M261.93,332.32l0,0,0,0v0Z"></path>
  <path d="M262.06,332l0,0h0v0Z"></path>
  <path d="M254.76,332.41l-.08,0,0,0,0,0Z"></path>
  <path d="M280.54,334.22l-.06,0,.07,0Z"></path>
  <path d="M262.06,332h0Z"></path>
  <path d="M270.92,332.27l0,0h-.05v0Z"></path>
  <path d="M268.08,331.36l0,0-.06,0,0,0Z"></path>
  <polygon points="275.59 331.62 275.57 331.64 275.56 331.62 275.59 331.62"></polygon>
  <polygon points="275.23 333.52 275.25 333.52 275.24 333.54 275.23 333.52"></polygon>
  <path d="M263.62,331.57l0,0c-.07,0,0,0,0,0Z"></path>
  <polygon points="276.18 333.61 276.19 333.64 276.17 333.63 276.18 333.61"></polygon>
  <path d="M265.34,331.54l0,0,0,0Z"></path>
  <path d="M265.34,331.53h0Z"></path>
  <path d="M272.9,333.27h0Z"></path>
  <polygon points="255.99 332.09 255.98 332.06 256 332.07 255.99 332.09"></polygon>
  <path d="M234.71,333v0h0v0Z"></path>
  <path d="M251.28,332.35c0-.09.09-.07.15-.07h0c0,.08-.09.07-.15.07Z"></path>
  <polygon points="250.39 332.19 250.42 332.19 250.42 332.21 250.39 332.19"></polygon>
  <path d="M247.91,336.68s0,0,0-.06h0a.08.08,0,0,1,0,.05Z"></path>
  <path d="M233,333.19h0l0,0,0,0Z"></path>
  <polygon points="228.03 333.2 228.06 333.2 228.05 333.22 228.03 333.2"></polygon>
  <path d="M226.84,333.29l.06,0s0,0,0,0l-.06,0Z"></path>
  <path d="M250.26,333.08h.11l0,0-.05,0-.08-.06Z"></path>
  <path d="M268.43,332.77a.61.61,0,0,1,.05.12s0,.06,0,.08l-.13,0,.12-.15Z"></path>
  <path d="M259.29,333.59l0,0,.07-.06s0,0,0,.07Z"></path>
  <path d="M260.54,333.94v0h0l0,0Z"></path>
  <path d="M262.85,333.19l.17,0s-.07,0-.09,0Z"></path>
  <path d="M245.15,333.23a.39.39,0,0,1-.1.08s0,0-.05,0v0h.14Z"></path>
  <polygon points="244.86 333.31 244.85 333.29 244.87 333.29 244.86 333.31"></polygon>
  <polygon points="254.72 334.62 254.72 334.59 254.74 334.6 254.72 334.62"></polygon>
  <path d="M53.74,190.23v9.41H45.27v26.18h-10V199.64H26.87v-9.41H53.74m1.37-1.37H25.5V201h8.36V227.2H46.65V201h8.46V188.86Z"></path>
  <path d="M121.78,189.34l19.34,17V190.23h9.41v36.12h-1.47l-19.33-16.71v16.18H109.81l-1.45-4.7H96.56L95,225.82H75.22V212.55H64.55v13.27h-10V190.23h10v12.91H75.22V190.23h10v33.19l14-33.71h7.21l13.9,33.7V189.34h1.46M99.3,213h6.53l-3.13-10.09L99.3,213m23-25h-3.36v28.5l-11.25-27.28-.35-.86h-9l-.36.85L86.63,216.5V188.86H73.84v12.91H65.93V188.86H53.14V227.2H65.93V213.92h7.91V227.2H96l.31-.94,1.27-3.76h9.8l1.16,3.73.3,1h22.3V212.64l17.07,14.75.38.33h3.35V188.86H139.74v14.48l-17.05-15-.39-.34Zm-21.08,23.62,1.42-4.24,1.32,4.24Z"></path>
  <path d="M182.77,190.23v.26l-11.33,16.93,12.33,18.14v.26H172.32l-10.5-17v17h-10V190.23h10V206l9.51-15.74h11.44m1.38-1.37h-13.6l-.4.66-7,11.52V188.86H150.4V227.2h12.79V213.68l8,12.87.4.65h13.59v-2.06l-.24-.35-11.8-17.37,10.82-16.16.23-.35v-2Z"></path>
  <path d="M221.34,190.23v.32l-11.76,21.74v13.53h-10V212.27l-12-21.72v-.32h11.34l6,13.16,5.5-13.16h11m1.38-1.37H209.45l-.35.84L204.82,200l-4.7-10.29-.37-.8h-13.6v2l.17.31,11.85,21.41V227.2H211V212.64l11.59-21.44.17-.31v-2Z"></path>
  <path d="M234,189.5a19.41,19.41,0,0,1,9.43,2.2,15.55,15.55,0,0,1,6.33,6.35A20.49,20.49,0,0,1,252,208a21.44,21.44,0,0,1-1.31,7.76,16.53,16.53,0,0,1-3.68,5.83,16.13,16.13,0,0,1-5.7,3.69,20.31,20.31,0,0,1-7.34,1.28,19.28,19.28,0,0,1-9.41-2.23,15.65,15.65,0,0,1-6.35-6.37A20.53,20.53,0,0,1,216,208a21.44,21.44,0,0,1,1.31-7.76,16.57,16.57,0,0,1,3.68-5.83,15.7,15.7,0,0,1,5.7-3.66A20.75,20.75,0,0,1,234,189.5m-.05,27.13a7.83,7.83,0,0,0,4.2-1.08,7.13,7.13,0,0,0,2.72-3,10.1,10.1,0,0,0,1-4.6,9.23,9.23,0,0,0-1.05-4.52,7.43,7.43,0,0,0-2.82-3,8.24,8.24,0,0,0-8.05,0,7.36,7.36,0,0,0-2.79,3,9.45,9.45,0,0,0-1,4.52,10.37,10.37,0,0,0,.94,4.6,7,7,0,0,0,2.72,3,7.86,7.86,0,0,0,4.18,1.08m.05-28.5a22.11,22.11,0,0,0-7.83,1.34,17.09,17.09,0,0,0-6.19,4,18.08,18.08,0,0,0-4,6.3,23.06,23.06,0,0,0-1.4,8.25A21.9,21.9,0,0,0,217,218.62a17,17,0,0,0,6.89,6.92A20.76,20.76,0,0,0,234,227.93a21.73,21.73,0,0,0,7.84-1.37,17.59,17.59,0,0,0,6.18-4,18.22,18.22,0,0,0,4-6.31,23,23,0,0,0,1.4-8.25A21.88,21.88,0,0,0,251,197.39a16.85,16.85,0,0,0-6.87-6.9A20.91,20.91,0,0,0,234,188.13Zm-.05,27.12a6.6,6.6,0,0,1-3.47-.87,5.7,5.7,0,0,1-2.2-2.43,9.17,9.17,0,0,1-.8-4,8.1,8.1,0,0,1,.86-3.87,5.93,5.93,0,0,1,2.28-2.42,6.93,6.93,0,0,1,6.65,0,6.18,6.18,0,0,1,2.32,2.43,8,8,0,0,1,.87,3.86,8.8,8.8,0,0,1-.82,4,5.77,5.77,0,0,1-2.2,2.45,6.6,6.6,0,0,1-3.49.87Z"></path>
  <path d="M283.8,190.23v19.29a23.93,23.93,0,0,1-.92,6.77,15.27,15.27,0,0,1-2.82,5.43,12.8,12.8,0,0,1-4.83,3.61,19.24,19.24,0,0,1-13.8,0,12.92,12.92,0,0,1-4.84-3.61,15.27,15.27,0,0,1-2.82-5.43,23.94,23.94,0,0,1-.91-6.77V190.23h10v19.6a10.91,10.91,0,0,0,.55,3.63,4.77,4.77,0,0,0,1.75,2.38,5.37,5.37,0,0,0,3.14.84,5.48,5.48,0,0,0,3.16-.84,4.79,4.79,0,0,0,1.8-2.38,10.16,10.16,0,0,0,.58-3.63v-19.6h9.93m1.37-1.37H272.49v21A9,9,0,0,1,272,213a3.36,3.36,0,0,1-1.28,1.72,4.21,4.21,0,0,1-2.39.6,4.08,4.08,0,0,1-2.35-.59,3.31,3.31,0,0,1-1.24-1.71,9.29,9.29,0,0,1-.47-3.17v-21H251.48v20.66a25.43,25.43,0,0,0,1,7.15,16.62,16.62,0,0,0,3.08,5.92,14.05,14.05,0,0,0,5.35,4,20.66,20.66,0,0,0,14.9,0,14.09,14.09,0,0,0,5.34-4,16.47,16.47,0,0,0,3.08-5.92,25.07,25.07,0,0,0,1-7.15V188.86Z"></path>
  <path d="M53.74,150.55V160H45.27v26.18h-10V160H26.87v-9.41H53.74m1.37-1.37H25.5v12.16h8.36v26.18H46.65V161.34h8.46V149.18Z"></path>
  <path d="M121.78,149.67l19.34,17V150.55h9.41v36.12h-1.47L129.73,170v16.18H109.81l-1.45-4.7H96.56L95,186.14H75.22V172.87H64.55v13.27h-10V150.55h10v12.91H75.22V150.55h10v33.19l14-33.71h7.21l13.9,33.71V149.67h1.46M99.3,173.29h6.53L102.7,163.2l-3.4,10.09m23-25h-3.36v28.5l-11.25-27.28-.35-.85h-9l-.36.85-11.3,27.31V149.18H73.84v12.91H65.93V149.18H53.14v38.34H65.93V174.25h7.91v13.27H96l.31-.94,1.27-3.76h9.8l1.16,3.73.3,1h22.3V173l17.07,14.75.38.33h3.35V149.18H139.74v14.48l-17.05-15-.39-.34Zm-21.08,23.62,1.42-4.24,1.32,4.24Z"></path>
  <path d="M182.77,150.55v.26l-11.33,16.94,12.33,18.13v.26H172.32l-10.5-17v17h-10V150.55h10V166.3l9.51-15.75h11.44m1.38-1.37h-13.6l-.4.66-7,11.52V149.18H150.4v38.34h12.79V174l8,12.86.4.65h13.59v-2.06l-.24-.35-11.8-17.37,10.82-16.16.23-.35v-2Z"></path>
  <path d="M221.34,150.55v.32l-11.76,21.74v13.53h-10V172.59l-12-21.72v-.32h11.34l6,13.16,5.5-13.16h11m1.38-1.37H209.45l-.35.84-4.28,10.26-4.7-10.3-.37-.8h-13.6v2l.17.31,11.85,21.41v14.58H211V173l11.59-21.44.17-.3v-2Z"></path>
  <path d="M234,149.82a19.41,19.41,0,0,1,9.43,2.2,15.55,15.55,0,0,1,6.33,6.35,20.51,20.51,0,0,1,2.27,9.95,21.4,21.4,0,0,1-1.31,7.76,16.53,16.53,0,0,1-3.68,5.83,16.13,16.13,0,0,1-5.7,3.69,20.31,20.31,0,0,1-7.34,1.28,19.39,19.39,0,0,1-9.41-2.22,15.73,15.73,0,0,1-6.35-6.38,20.53,20.53,0,0,1-2.27-10,21.44,21.44,0,0,1,1.31-7.76,16.57,16.57,0,0,1,3.68-5.83,15.55,15.55,0,0,1,5.7-3.65,20.52,20.52,0,0,1,7.34-1.26M233.94,177a7.92,7.92,0,0,0,4.2-1.07,7.22,7.22,0,0,0,2.72-3,10.1,10.1,0,0,0,1-4.6,9.23,9.23,0,0,0-1.05-4.52A7.43,7.43,0,0,0,238,160.8a8.24,8.24,0,0,0-8.05,0,7.36,7.36,0,0,0-2.79,2.95,9.45,9.45,0,0,0-1,4.52,10.37,10.37,0,0,0,.94,4.6,7,7,0,0,0,2.72,3,8,8,0,0,0,4.18,1.07m.05-28.5a22.11,22.11,0,0,0-7.83,1.34,17.09,17.09,0,0,0-6.19,4,18.08,18.08,0,0,0-4,6.3,23.06,23.06,0,0,0-1.4,8.25A21.9,21.9,0,0,0,217,178.94a17,17,0,0,0,6.89,6.92A20.76,20.76,0,0,0,234,188.25a21.73,21.73,0,0,0,7.84-1.37,17.59,17.59,0,0,0,6.18-4,18.13,18.13,0,0,0,4-6.31,23,23,0,0,0,1.4-8.25A21.88,21.88,0,0,0,251,157.71a16.85,16.85,0,0,0-6.87-6.9A20.91,20.91,0,0,0,234,148.45Zm-.05,27.12a6.5,6.5,0,0,1-3.47-.87,5.7,5.7,0,0,1-2.2-2.43,9.14,9.14,0,0,1-.8-4,8.13,8.13,0,0,1,.86-3.87,5.93,5.93,0,0,1,2.28-2.42,6.93,6.93,0,0,1,6.65,0,6.18,6.18,0,0,1,2.32,2.43,8,8,0,0,1,.87,3.86,8.77,8.77,0,0,1-.82,4,5.77,5.77,0,0,1-2.2,2.45,6.6,6.6,0,0,1-3.49.87Z"></path>
  <path d="M283.8,150.55v19.29a23.93,23.93,0,0,1-.92,6.77,15.27,15.27,0,0,1-2.82,5.43,12.7,12.7,0,0,1-4.83,3.61,19.24,19.24,0,0,1-13.8,0,12.81,12.81,0,0,1-4.84-3.61,15.27,15.27,0,0,1-2.82-5.43,23.94,23.94,0,0,1-.91-6.77V150.55h10v19.6a10.91,10.91,0,0,0,.55,3.63,4.73,4.73,0,0,0,1.75,2.38,5.37,5.37,0,0,0,3.14.84,5.48,5.48,0,0,0,3.16-.84,4.75,4.75,0,0,0,1.8-2.38,10.16,10.16,0,0,0,.58-3.63v-19.6h9.93m1.37-1.37H272.49v21a8.91,8.91,0,0,1-.49,3.15,3.43,3.43,0,0,1-1.28,1.73,4.29,4.29,0,0,1-2.39.59A4,4,0,0,1,266,175a3.31,3.31,0,0,1-1.24-1.71,9.29,9.29,0,0,1-.47-3.17v-21H251.48v20.66a25.55,25.55,0,0,0,1,7.16,16.79,16.79,0,0,0,3.08,5.92,14.13,14.13,0,0,0,5.35,4,20.66,20.66,0,0,0,14.9,0,14.09,14.09,0,0,0,5.34-4A16.47,16.47,0,0,0,284.2,177a25.07,25.07,0,0,0,1-7.15V149.18Z"></path>
  <path d="M53.74,110.94v9.41H45.27v26.18h-10V120.35H26.87v-9.41H53.74m1.37-1.37H25.5v12.16h8.36v26.18H46.65V121.73h8.46V109.57Z"></path>
  <path d="M121.78,110.05l19.34,17V110.94h9.41v36.12h-1.47l-19.33-16.71v16.18H109.81l-1.45-4.7H96.56L95,146.53H75.22V133.26H64.55v13.27h-10V110.94h10v12.91H75.22V110.94h10v33.19l14-33.71h7.21l13.9,33.7V110.05h1.46M99.3,133.68h6.53l-3.13-10.09-3.4,10.09m23-25h-3.36v28.5L107.69,109.9l-.35-.85h-9l-.36.84-11.3,27.32V109.57H73.84v12.91H65.93V109.57H53.14v38.34H65.93V134.64h7.91v13.27H96l.31-.94,1.27-3.76h9.8l1.16,3.73.3,1h22.3V133.35l17.07,14.75.38.33h3.35V109.57H139.74v14.48l-17.05-15-.39-.34ZM101.22,132.3l1.42-4.24L104,132.3Z"></path>
  <path d="M182.77,110.94v.26l-11.33,16.93,12.33,18.14v.26H172.32l-10.5-17v17h-10V110.94h10v15.75l9.51-15.75h11.44m1.38-1.37h-13.6l-.4.66-7,11.52V109.57H150.4v38.34h12.79V134.4l8,12.86.4.65h13.59v-2.06l-.24-.35-11.8-17.37L183.92,112l.23-.35v-2.05Z"></path>
  <path d="M221.34,110.94v.32L209.58,133v13.53h-10V133l-12-21.72v-.32h11.34l6,13.16,5.5-13.16h11m1.38-1.37H209.45l-.35.84-4.28,10.25-4.7-10.29-.37-.8h-13.6v2l.17.31,11.85,21.41v14.58H211V133.35l11.59-21.44.17-.3v-2Z"></path>
  <path d="M234,110.21a19.41,19.41,0,0,1,9.43,2.2,15.55,15.55,0,0,1,6.33,6.35,20.51,20.51,0,0,1,2.27,10,21.4,21.4,0,0,1-1.31,7.76A16.53,16.53,0,0,1,247,142.3a16.13,16.13,0,0,1-5.7,3.69,20.31,20.31,0,0,1-7.34,1.28,19.39,19.39,0,0,1-9.41-2.22,15.73,15.73,0,0,1-6.35-6.38,20.53,20.53,0,0,1-2.27-10,21.44,21.44,0,0,1,1.31-7.76,16.57,16.57,0,0,1,3.68-5.83,15.55,15.55,0,0,1,5.7-3.65,20.52,20.52,0,0,1,7.34-1.26m-.05,27.13a7.92,7.92,0,0,0,4.2-1.07,7.22,7.22,0,0,0,2.72-3,10.1,10.1,0,0,0,1-4.6,9.23,9.23,0,0,0-1.05-4.52,7.43,7.43,0,0,0-2.82-3,8.24,8.24,0,0,0-8.05,0,7.36,7.36,0,0,0-2.79,3,9.45,9.45,0,0,0-1,4.52,10.37,10.37,0,0,0,.94,4.6,7,7,0,0,0,2.72,3,8,8,0,0,0,4.18,1.07m.05-28.5a22.11,22.11,0,0,0-7.83,1.34,17.09,17.09,0,0,0-6.19,4,18.08,18.08,0,0,0-4,6.3,23.06,23.06,0,0,0-1.4,8.25A21.9,21.9,0,0,0,217,139.33a17,17,0,0,0,6.89,6.92A20.76,20.76,0,0,0,234,148.64a21.73,21.73,0,0,0,7.84-1.37,17.59,17.59,0,0,0,6.18-4,18.22,18.22,0,0,0,4-6.31,23,23,0,0,0,1.4-8.25A21.88,21.88,0,0,0,251,118.1a16.85,16.85,0,0,0-6.87-6.9A20.91,20.91,0,0,0,234,108.84ZM233.94,136a6.5,6.5,0,0,1-3.47-.87,5.7,5.7,0,0,1-2.2-2.43,9.14,9.14,0,0,1-.8-4,8.13,8.13,0,0,1,.86-3.87,5.93,5.93,0,0,1,2.28-2.42,6.93,6.93,0,0,1,6.65,0,6.18,6.18,0,0,1,2.32,2.43,8,8,0,0,1,.87,3.86,8.8,8.8,0,0,1-.82,4,5.77,5.77,0,0,1-2.2,2.45,6.6,6.6,0,0,1-3.49.87Z"></path>
  <path d="M283.8,110.94v19.29a23.93,23.93,0,0,1-.92,6.77,15.27,15.27,0,0,1-2.82,5.43,12.8,12.8,0,0,1-4.83,3.61,19.24,19.24,0,0,1-13.8,0,12.92,12.92,0,0,1-4.84-3.61,15.27,15.27,0,0,1-2.82-5.43,23.94,23.94,0,0,1-.91-6.77V110.94h10v19.6a10.91,10.91,0,0,0,.55,3.63,4.73,4.73,0,0,0,1.75,2.38,5.37,5.37,0,0,0,3.14.84,5.48,5.48,0,0,0,3.16-.84,4.75,4.75,0,0,0,1.8-2.38,10.16,10.16,0,0,0,.58-3.63v-19.6h9.93m1.37-1.37H272.49v21a8.91,8.91,0,0,1-.49,3.15,3.43,3.43,0,0,1-1.28,1.73,4.29,4.29,0,0,1-2.39.59,4,4,0,0,1-2.35-.59,3.31,3.31,0,0,1-1.24-1.71,9.29,9.29,0,0,1-.47-3.17v-21H251.48v20.66a25.43,25.43,0,0,0,1,7.15,16.75,16.75,0,0,0,3.08,5.93,14.13,14.13,0,0,0,5.35,4,20.66,20.66,0,0,0,14.9,0,14.09,14.09,0,0,0,5.34-4,16.47,16.47,0,0,0,3.08-5.92,25.07,25.07,0,0,0,1-7.15V109.57Z"></path>
  <path d="M53.74,71.33v9.41H45.27v26.18h-10V80.74H26.87V71.33H53.74M55.11,70H25.5V82.12h8.36V108.3H46.65V82.12h8.46V70Z"></path>
  <path d="M121.78,70.44l19.34,17V71.33h9.41v36.12h-1.47L129.73,90.74v16.18H109.81l-1.45-4.7H96.56L95,106.92H75.22V93.65H64.55v13.27h-10V71.33h10V84.24H75.22V71.33h10v33.19l14-33.71h7.21l13.9,33.7V70.44h1.46M99.3,94.07h6.53L102.7,84,99.3,94.07m23-25h-3.36v28.5L107.69,70.29l-.35-.85h-9l-.36.84L86.63,97.6V70H73.84V82.87H65.93V70H53.14V108.3H65.93V95h7.91V108.3H96l.31-.94,1.27-3.76h9.8l1.16,3.73.3,1h22.3V93.74l17.07,14.75.38.33h3.35V70H139.74V84.44l-17.05-15-.39-.34ZM101.22,92.69l1.42-4.24L104,92.69Z"></path>
  <path d="M182.77,71.33v.26L171.44,88.52l12.33,18.14v.26H172.32l-10.5-17v17h-10V71.33h10V87.07l9.51-15.74h11.44M184.15,70h-13.6l-.4.66-7,11.52V70H150.4V108.3h12.79V94.79l8,12.86.4.65h13.59v-2.06l-.24-.35L173.1,88.52l10.82-16.16.23-.35V70Z"></path>
  <path d="M221.34,71.33v.32L209.58,93.39v13.53h-10V93.37l-12-21.72v-.32h11.34l6,13.16,5.5-13.16h11M222.72,70H209.45l-.35.84-4.28,10.25-4.7-10.29-.37-.8h-13.6v2l.17.31,11.85,21.41V108.3H211V93.74L222.55,72.3l.17-.31V70Z"></path>
  <path d="M234,70.6a19.41,19.41,0,0,1,9.43,2.2,15.55,15.55,0,0,1,6.33,6.35A20.51,20.51,0,0,1,252,89.1a21.44,21.44,0,0,1-1.31,7.76,16.53,16.53,0,0,1-3.68,5.83,16.13,16.13,0,0,1-5.7,3.69,20.31,20.31,0,0,1-7.34,1.28,19.28,19.28,0,0,1-9.41-2.23,15.65,15.65,0,0,1-6.35-6.37,20.53,20.53,0,0,1-2.27-10,21.44,21.44,0,0,1,1.31-7.76A16.57,16.57,0,0,1,221,75.51a15.55,15.55,0,0,1,5.7-3.65A20.52,20.52,0,0,1,234,70.6m-.05,27.13a7.83,7.83,0,0,0,4.2-1.08,7.13,7.13,0,0,0,2.72-3,10.1,10.1,0,0,0,1-4.6,9.23,9.23,0,0,0-1.05-4.52,7.43,7.43,0,0,0-2.82-3,8.24,8.24,0,0,0-8.05,0,7.36,7.36,0,0,0-2.79,3,9.45,9.45,0,0,0-1,4.52,10.37,10.37,0,0,0,.94,4.6,7,7,0,0,0,2.72,3,7.86,7.86,0,0,0,4.18,1.08m.05-28.5a22.11,22.11,0,0,0-7.83,1.34,17.09,17.09,0,0,0-6.19,4,18.08,18.08,0,0,0-4,6.3,23.06,23.06,0,0,0-1.4,8.25A21.9,21.9,0,0,0,217,99.72a17,17,0,0,0,6.89,6.92A20.76,20.76,0,0,0,234,109a21.73,21.73,0,0,0,7.84-1.37,17.59,17.59,0,0,0,6.18-4,18.22,18.22,0,0,0,4-6.31,23,23,0,0,0,1.4-8.25A21.88,21.88,0,0,0,251,78.49a16.85,16.85,0,0,0-6.87-6.9A20.91,20.91,0,0,0,234,69.23Zm-.05,27.12a6.5,6.5,0,0,1-3.47-.87,5.7,5.7,0,0,1-2.2-2.43,9.14,9.14,0,0,1-.8-4,8.13,8.13,0,0,1,.86-3.87,5.93,5.93,0,0,1,2.28-2.42,6.93,6.93,0,0,1,6.65,0,6.18,6.18,0,0,1,2.32,2.43,8,8,0,0,1,.87,3.86,8.8,8.8,0,0,1-.82,4,5.77,5.77,0,0,1-2.2,2.45,6.6,6.6,0,0,1-3.49.87Z"></path>
  <path d="M283.8,71.33V90.62a23.93,23.93,0,0,1-.92,6.77,15.27,15.27,0,0,1-2.82,5.43,12.8,12.8,0,0,1-4.83,3.61,19.24,19.24,0,0,1-13.8,0,12.92,12.92,0,0,1-4.84-3.61,15.27,15.27,0,0,1-2.82-5.43,23.94,23.94,0,0,1-.91-6.77V71.33h10v19.6a10.91,10.91,0,0,0,.55,3.63,4.77,4.77,0,0,0,1.75,2.38,5.37,5.37,0,0,0,3.14.84,5.48,5.48,0,0,0,3.16-.84,4.79,4.79,0,0,0,1.8-2.38,10.16,10.16,0,0,0,.58-3.63V71.33h9.93M285.17,70H272.49v21a9,9,0,0,1-.49,3.15,3.43,3.43,0,0,1-1.28,1.73,4.29,4.29,0,0,1-2.39.59,4.08,4.08,0,0,1-2.35-.59,3.31,3.31,0,0,1-1.24-1.71,9.29,9.29,0,0,1-.47-3.17V70H251.48V90.62a25.43,25.43,0,0,0,1,7.15,16.75,16.75,0,0,0,3.08,5.93,14.13,14.13,0,0,0,5.35,4,20.66,20.66,0,0,0,14.9,0,14.09,14.09,0,0,0,5.34-4,16.47,16.47,0,0,0,3.08-5.92,25.07,25.07,0,0,0,1-7.15V70Z"></path>
  <path d="M53.74,31.72v9.41H45.27V67.31h-10V41.13H26.87V31.72H53.74m1.37-1.37H25.5V42.51h8.36V68.69H46.65V42.51h8.46V30.35Z"></path>
  <path d="M121.78,30.83l19.34,17V31.72h9.41V67.84h-1.47L129.73,51.13V67.31H109.81l-1.45-4.7H96.56L95,67.31H75.22V54H64.55V67.31h-10V31.72h10V44.63H75.22V31.72h10V64.91l14-33.71h7.21l13.9,33.7V30.83h1.46M99.3,54.46h6.53L102.7,44.37,99.3,54.46m23-25h-3.36V58L107.69,30.68l-.35-.85h-9l-.36.84L86.63,58V30.35H73.84V43.26H65.93V30.35H53.14V68.69H65.93V55.41h7.91V68.69H96l.31-.94L97.54,64h9.8l1.16,3.73.3,1h22.3V54.13l17.07,14.75.38.33h3.35V30.35H139.74V44.83l-17.05-15-.39-.34ZM101.22,53.08l1.42-4.24L104,53.08Z"></path>
  <path d="M182.77,31.72V32L171.44,48.91l12.33,18.14v.26H172.32l-10.5-17v17h-10V31.72h10V47.46l9.51-15.74h11.44m1.38-1.37h-13.6l-.4.66-7,11.52V30.35H150.4V68.69h12.79V55.17l8,12.87.4.65h13.59V66.63l-.24-.35L173.1,48.91l10.82-16.16.23-.35v-2Z"></path>
  <path d="M221.34,31.72V32L209.58,53.78V67.31h-10V53.76L187.53,32v-.32h11.34l6,13.16,5.5-13.16h11m1.38-1.37H209.45l-.35.84-4.28,10.25-4.7-10.29-.37-.8h-13.6v2l.17.31,11.85,21.41V68.69H211V54.13l11.59-21.44.17-.31v-2Z"></path>
  <path d="M234,31a19.41,19.41,0,0,1,9.43,2.2,15.55,15.55,0,0,1,6.33,6.35,20.49,20.49,0,0,1,2.27,10,21.44,21.44,0,0,1-1.31,7.76A16.53,16.53,0,0,1,247,63.08a16.13,16.13,0,0,1-5.7,3.69A20.31,20.31,0,0,1,234,68.05a19.28,19.28,0,0,1-9.41-2.23,15.65,15.65,0,0,1-6.35-6.37,20.53,20.53,0,0,1-2.27-10,21.44,21.44,0,0,1,1.31-7.76A16.57,16.57,0,0,1,221,35.9a15.55,15.55,0,0,1,5.7-3.65A20.52,20.52,0,0,1,234,31m-.05,27.13a7.83,7.83,0,0,0,4.2-1.08,7.13,7.13,0,0,0,2.72-3,10.1,10.1,0,0,0,1-4.6,9.23,9.23,0,0,0-1.05-4.52A7.43,7.43,0,0,0,238,42a8.24,8.24,0,0,0-8.05,0,7.36,7.36,0,0,0-2.79,3,9.45,9.45,0,0,0-1,4.52A10.37,10.37,0,0,0,227,54a7,7,0,0,0,2.72,3,7.86,7.86,0,0,0,4.18,1.08m.05-28.5A22.11,22.11,0,0,0,226.16,31a17.09,17.09,0,0,0-6.19,4,18.08,18.08,0,0,0-4,6.3,23.06,23.06,0,0,0-1.4,8.25A21.9,21.9,0,0,0,217,60.11,17,17,0,0,0,223.92,67,20.76,20.76,0,0,0,234,69.42a21.73,21.73,0,0,0,7.84-1.37,17.59,17.59,0,0,0,6.18-4,18.22,18.22,0,0,0,4-6.31,23,23,0,0,0,1.4-8.25A21.88,21.88,0,0,0,251,38.88a16.85,16.85,0,0,0-6.87-6.9A20.91,20.91,0,0,0,234,29.62Zm-.05,27.12a6.6,6.6,0,0,1-3.47-.87,5.7,5.7,0,0,1-2.2-2.43,9.17,9.17,0,0,1-.8-4,8.13,8.13,0,0,1,.86-3.87,5.93,5.93,0,0,1,2.28-2.42,6.93,6.93,0,0,1,6.65,0,6.18,6.18,0,0,1,2.32,2.43,8,8,0,0,1,.87,3.86,8.8,8.8,0,0,1-.82,4,5.77,5.77,0,0,1-2.2,2.45,6.6,6.6,0,0,1-3.49.87Z"></path>
  <path d="M283.8,31.72V51a23.93,23.93,0,0,1-.92,6.77,15.27,15.27,0,0,1-2.82,5.43,12.8,12.8,0,0,1-4.83,3.61,19.24,19.24,0,0,1-13.8,0,12.92,12.92,0,0,1-4.84-3.61,15.27,15.27,0,0,1-2.82-5.43,23.94,23.94,0,0,1-.91-6.77V31.72h10v19.6a10.91,10.91,0,0,0,.55,3.63,4.77,4.77,0,0,0,1.75,2.38,5.37,5.37,0,0,0,3.14.84,5.48,5.48,0,0,0,3.16-.84,4.79,4.79,0,0,0,1.8-2.38,10.16,10.16,0,0,0,.58-3.63V31.72h9.93m1.37-1.37H272.49v21a9,9,0,0,1-.49,3.15,3.39,3.39,0,0,1-1.29,1.73,4.23,4.23,0,0,1-2.38.59A4.08,4.08,0,0,1,266,56.2a3.31,3.31,0,0,1-1.24-1.71,9.29,9.29,0,0,1-.47-3.17v-21H251.48V51a25.43,25.43,0,0,0,1,7.15,16.62,16.62,0,0,0,3.08,5.92,14.05,14.05,0,0,0,5.35,4,20.66,20.66,0,0,0,14.9,0,14.09,14.09,0,0,0,5.34-4,16.47,16.47,0,0,0,3.08-5.92,25.07,25.07,0,0,0,1-7.15V30.35Z"></path>
  <path d="M53.73,31.79V41.2H45.27V67.38h-10V41.2H26.87V31.79Z" style="fill:#fff"></path>
  <path d="M85.25,67.38h-10V54.1H64.55V67.38h-10V31.79h10V44.7H75.21V31.79h10Z" style="fill:#fff"></path>
  <path d="M121.31,67.38h-11.5l-1.46-4.7H96.54L95,67.38H84.26L99.2,31.27h7.21ZM102.7,44.44,99.31,54.52h6.53Z" style="fill:#fff"></path>
  <path d="M129.72,51.18v16.2h-9.4V30.9h1.46l19.34,17V31.79h9.4V67.9h-1.46Z" style="fill:#fff"></path>
  <path d="M161.81,50.39v17h-10V31.79h10V47.52l9.51-15.73h11.45v.26L171.43,49l12.33,18.14v.26H172.32Z" style="fill:#fff"></path>
  <path d="M199.65,67.38V53.84l-12-21.74v-.31H199L205,45l5.49-13.17h11v.31L209.68,53.84V67.38Z" style="fill:#fff"></path>
  <path d="M252.12,49.56c0,11.55-7.32,18.55-18,18.55s-18-7-18-18.55,7.26-18.5,18-18.5S252.12,38,252.12,49.56Zm-25.92-.05c0,5.33,3,8.67,7.84,8.67s7.89-3.34,7.89-8.67c0-5.18-3.4-8.52-7.89-8.52S226.2,44.33,226.2,49.51Z" style="fill:#fff"></path>
  <path d="M274,31.79h9.93V51.07c0,9.78-4.86,17.09-15.47,17.09S253,60.85,253,51.07V31.79h10v19.6c0,4.23,1.57,6.84,5.44,6.84S274,55.57,274,51.39Z" style="fill:#fff"></path>
  <path d="M53.73,71.4v9.41H45.27V107h-10V80.81H26.87V71.4Z" style="fill:#fff"></path>
  <path d="M85.25,107h-10V93.72H64.55V107h-10V71.4h10V84.31H75.21V71.4h10Z" style="fill:#fff"></path>
  <path d="M121.31,107h-11.5l-1.46-4.7H96.54L95,107H84.26L99.2,70.88h7.21ZM102.7,84.05,99.31,94.13h6.53Z" style="fill:#fff"></path>
  <path d="M129.72,90.79V107h-9.4V70.51h1.46l19.34,17V71.4h9.4v36.11h-1.46Z" style="fill:#fff"></path>
  <path d="M161.81,90v17h-10V71.4h10V87.13l9.51-15.73h11.45v.26L171.43,88.59l12.33,18.14V107H172.32Z" style="fill:#fff"></path>
  <path d="M199.65,107V93.45l-12-21.74V71.4H199l6,13.17,5.49-13.17h11v.31L209.68,93.45V107Z" style="fill:#fff"></path>
  <path d="M252.12,89.17c0,11.55-7.32,18.55-18,18.55s-18-7-18-18.55,7.26-18.5,18-18.5S252.12,77.57,252.12,89.17Zm-25.92,0c0,5.33,3,8.67,7.84,8.67s7.89-3.34,7.89-8.67-3.4-8.52-7.89-8.52S226.2,83.94,226.2,89.12Z" style="fill:#fff"></path>
  <path d="M274,71.4h9.93V90.68c0,9.78-4.86,17.09-15.47,17.09S253,100.46,253,90.68V71.4h10V91c0,4.23,1.57,6.85,5.44,6.85S274,95.18,274,91Z" style="fill:#fff"></path>
  <path d="M53.73,111v9.41H45.27V146.6h-10V120.42H26.87V111Z" style="fill:#fff"></path>
  <path d="M85.25,146.6h-10V133.33H64.55V146.6h-10V111h10v12.91H75.21V111h10Z" style="fill:#fff"></path>
  <path d="M121.31,146.6h-11.5l-1.46-4.7H96.54L95,146.6H84.26L99.2,110.49h7.21ZM102.7,123.66l-3.39,10.08h6.53Z" style="fill:#fff"></path>
  <path d="M129.72,130.4v16.2h-9.4V110.12h1.46l19.34,17V111h9.4v36.11h-1.46Z" style="fill:#fff"></path>
  <path d="M161.81,129.62v17h-10V111h10v15.73L171.32,111h11.45v.26l-11.34,16.94,12.33,18.13v.26H172.32Z" style="fill:#fff"></path>
  <path d="M199.65,146.6V133.07l-12-21.75V111H199l6,13.17L210.47,111h11v.31l-11.76,21.75V146.6Z" style="fill:#fff"></path>
  <path d="M252.12,128.78c0,11.55-7.32,18.55-18,18.55s-18-7-18-18.55,7.26-18.5,18-18.5S252.12,117.18,252.12,128.78Zm-25.92-.05c0,5.33,3,8.67,7.84,8.67s7.89-3.34,7.89-8.67c0-5.18-3.4-8.52-7.89-8.52S226.2,123.55,226.2,128.73Z" style="fill:#fff"></path>
  <path d="M274,111h9.93V130.3c0,9.77-4.86,17.09-15.47,17.09S253,140.07,253,130.3V111h10v19.6c0,4.23,1.57,6.85,5.44,6.85s5.54-2.67,5.54-6.85Z" style="fill:#fff"></path>
  <path d="M53.73,150.62V160H45.27v26.18h-10V160H26.87v-9.41Z" style="fill:#fff"></path>
  <path d="M85.25,186.21h-10V172.94H64.55v13.27h-10V150.62h10v12.91H75.21V150.62h10Z" style="fill:#fff"></path>
  <path d="M121.31,186.21h-11.5l-1.46-4.7H96.54L95,186.21H84.26L99.2,150.1h7.21ZM102.7,163.27l-3.39,10.09h6.53Z" style="fill:#fff"></path>
  <path d="M129.72,170v16.2h-9.4V149.73h1.46l19.34,17V150.62h9.4v36.11h-1.46Z" style="fill:#fff"></path>
  <path d="M161.81,169.23v17h-10V150.62h10v15.73l9.51-15.73h11.45v.26l-11.34,16.94L183.76,186v.26H172.32Z" style="fill:#fff"></path>
  <path d="M199.65,186.21V172.68l-12-21.74v-.32H199l6,13.17,5.49-13.17h11v.32l-11.76,21.74v13.53Z" style="fill:#fff"></path>
  <path d="M252.12,168.39c0,11.55-7.32,18.55-18,18.55s-18-7-18-18.55,7.26-18.5,18-18.5S252.12,156.79,252.12,168.39Zm-25.92,0c0,5.33,3,8.67,7.84,8.67s7.89-3.34,7.89-8.67c0-5.17-3.4-8.52-7.89-8.52S226.2,163.17,226.2,168.34Z" style="fill:#fff"></path>
  <path d="M274,150.62h9.93v19.29c0,9.77-4.86,17.09-15.47,17.09S253,179.68,253,169.91V150.62h10v19.6c0,4.23,1.57,6.85,5.44,6.85s5.54-2.67,5.54-6.85Z" style="fill:#fff"></path>
  <path d="M53.73,190.23v9.41H45.27v26.18h-10V199.64H26.87v-9.41Z" style="fill:#fff"></path>
  <path d="M85.25,225.82h-10V212.55H64.55v13.27h-10V190.23h10v12.91H75.21V190.23h10Z" style="fill:#fff"></path>
  <path d="M121.31,225.82h-11.5l-1.46-4.7H96.54L95,225.82H84.26L99.2,189.71h7.21ZM102.7,202.88,99.31,213h6.53Z" style="fill:#fff"></path>
  <path d="M129.72,209.62v16.2h-9.4V189.35h1.46l19.34,17V190.23h9.4v36.12h-1.46Z" style="fill:#fff"></path>
  <path d="M161.81,208.84v17h-10V190.23h10V206l9.51-15.73h11.45v.26l-11.34,16.94,12.33,18.13v.26H172.32Z" style="fill:#fff"></path>
  <path d="M199.65,225.82V212.29l-12-21.74v-.32H199l6,13.17,5.49-13.17h11v.32l-11.76,21.74v13.53Z" style="fill:#fff"></path>
  <path d="M252.12,208c0,11.55-7.32,18.56-18,18.56s-18-7-18-18.56,7.26-18.5,18-18.5S252.12,196.4,252.12,208ZM226.2,208c0,5.33,3,8.68,7.84,8.68s7.89-3.35,7.89-8.68c0-5.17-3.4-8.52-7.89-8.52S226.2,202.78,226.2,208Z" style="fill:#fff"></path>
  <path d="M274,190.23h9.93v19.29c0,9.77-4.86,17.09-15.47,17.09S253,219.29,253,209.52V190.23h10v19.6c0,4.23,1.57,6.85,5.44,6.85S274,214,274,209.83Z" style="fill:#fff"></path>
  <path d="M53.73,229.85v9.4H45.27v26.18h-10V239.25H26.87v-9.4Z" style="fill:#fff"></path>
  <path d="M85.25,265.43h-10V252.16H64.55v13.27h-10V229.85h10v12.9H75.21v-12.9h10Z" style="fill:#fff"></path>
  <path d="M121.31,265.43h-11.5l-1.46-4.7H96.54L95,265.43H84.26L99.2,229.32h7.21ZM102.7,242.49l-3.39,10.09h6.53Z" style="fill:#fff"></path>
  <path d="M129.72,249.23v16.2h-9.4V229h1.46l19.34,17V229.85h9.4V266h-1.46Z" style="fill:#fff"></path>
  <path d="M161.81,248.45v17h-10V229.85h10v15.73l9.51-15.73h11.45v.26L171.43,247l12.33,18.13v.26H172.32Z" style="fill:#fff"></path>
  <path d="M199.65,265.43V251.9l-12-21.74v-.31H199L205,243l5.49-13.17h11v.31L209.68,251.9v13.53Z" style="fill:#fff"></path>
  <path d="M252.12,247.61c0,11.55-7.32,18.56-18,18.56s-18-7-18-18.56,7.26-18.5,18-18.5S252.12,236,252.12,247.61Zm-25.92-.05c0,5.33,3,8.68,7.84,8.68s7.89-3.35,7.89-8.68c0-5.17-3.4-8.52-7.89-8.52S226.2,242.39,226.2,247.56Z" style="fill:#fff"></path>
  <path d="M274,229.85h9.93v19.28c0,9.77-4.86,17.09-15.47,17.09S253,258.9,253,249.13V229.85h10v19.59c0,4.24,1.57,6.85,5.44,6.85s5.54-2.67,5.54-6.85Z" style="fill:#fff"></path>
</svg>
