<?xml version="1.0" encoding="utf-8"?>
<!-- Generator: Adobe Illustrator 18.1.0, SVG Export Plug-In . SVG Version: 6.00 Build 0)  -->
<!DOCTYPE svg PUBLIC "-//W3C//DTD SVG 1.1//EN" "http://www.w3.org/Graphics/SVG/1.1/DTD/svg11.dtd">
<svg version="1.1" id="Layer_1" xmlns="http://www.w3.org/2000/svg" xmlns:xlink="http://www.w3.org/1999/xlink" x="0px" y="0px"
	 viewBox="0 0 485.3 191.2" enable-background="new 0 0 485.3 191.2" xml:space="preserve">
<g>
	<path d="M149.5,104c0.7-7.2,0.9-10.3-1.2-10.5c-2.6-0.3-7,5.6-7.8,12.6c-0.6,5.4,0.9,11.3,2.6,16.8c-1.5,5.8-3.5,12.1-5.4,17.5
		c-0.7-1.6-1.3-3.3-1.8-4.8c-0.3-0.8-0.6-0.8-0.9,0.1c-0.3,0.9-0.1,1.9-0.3,3.3c-0.1,1.3-0.3,2.5,0.1,4.4c0.2,0.8,0.4,1.6,0.7,2.5
		c-1.6,3.7-3,6.2-4,6.5c-2.2-3.9,0.3-27.1,0.6-34.5c0.1-3-0.3-4.5-1.4-5.9c-0.8-1.1-1.4-1.4-2.4-2.7c-0.9-1-1.7-1-2.3,1
		c-1.4,4.8-1.3,14.8-2,24.2c-0.8,9.9-2.7,21.9-6.2,23.5c-4.1-5.8-1.5-38.2-1.4-49.5c0-2.1-0.2-3.2-0.7-3.9c-0.3-0.6-1-1.2-1.3-1.7
		c-0.4-0.7-0.9-0.5-1,0.2c-1.1,5.7-1.7,12.6-4.1,19.6c-1.3,4-3.5,7.4-6.2,8.8c-0.8-6.3-2.5-12.8-5.6-12.8c-2.3,0-4.4,5.7-4.4,10.3
		c0,4.3,1.5,7.9,4.8,9c-0.5,8.9-3.4,16-6.9,16.7c-5.8-6.8-2.9-30.5,5.2-42.6c0.4-0.6,0.2-0.7-0.4-0.6c-0.9,0.2-1.7,0.6-2.9,1.8
		c-1.4,1.3-2.3,1.1-4.1,3.4c-4.7,6-8.7,15.5-8.7,24.9c0,5.6,2,12.2,7.6,15.4c2.8,1.6,4.1,3.7,7.5,3.7c5,0,8.4-9.5,8.4-20.3
		c0-0.9,0-1.9-0.1-3c2.1-1.1,4-3.2,5.3-5.6c-1.2,11.3-2.3,21.8,4.2,28.1c3.4,3.4,4.6,5.6,7.5,5.6c3.3,0,5.6-6,5.8-13.9
		c1.2,3.7,4.2,8.2,7.7,8.2c1.6,0,3.2-2.2,4.8-5.8c2.7,4.9,6.4,9.1,10.2,9.1c1.9,0,3-1,4.6-3.5c1.5-2.3,3.3-4.2,3.3-9.6
		c0-8.5-6.8-22.5-9.6-30.5C148.5,113,149.2,107.6,149.5,104z M149.3,156.2c-2.4-0.3-5.4-4-8.2-8.8c1.6-5.1,3-11.3,4.3-17.6
		C148.1,138.6,151.3,152.6,149.3,156.2z"/>
	<path d="M193.9,124.7c-0.1-1.7-0.2-3.1-0.5-4.2c-0.3-1.1-0.8-1.1-1-0.1c-2.5,11.1-12.3,34.8-22.4,35.9c-2.3-2.1-3.3-6.8-3.4-12.2
		c5.3,1.9,10.3-1.6,13.1-10.2c2.8-8,2.2-14.5-1.6-17.6c-2-1.6-3.2-3.4-5.4-3.4c-5.7,0-14,15.9-14,31.1c0,6.1,1.1,10.6,6.7,13.9
		c3.1,1.7,4.4,2.9,7.9,2.9c10,0,17.2-15.9,19.7-26.2C194.3,129.5,194,127.4,193.9,124.7z M173.5,117.9c4.3,5.7-1.1,26.1-6.8,23.6
		C167,131.6,169.9,120.6,173.5,117.9z"/>
	<path d="M81.2,125.4c0.5-0.7,0.6-1.1-0.2-1.4c-1.8-0.7-3.5-1.2-5.2-1.5c-0.2-46.2-0.9-88.6-1.9-110.1c-0.2-3.8-0.6-5.9-1.4-8.1
		c-0.7-1.8-1.3-2.6-1.9-3.5c-0.6-1.2-1.3-0.8-1.4,0.2c-1.7,37.7-3,77-3.3,120.4c-7.4-0.3-18.4,0-27.7,0.5c-0.2-36.1-1-60.6-1.4-78.3
		c-0.1-2.9-0.9-4.3-1.9-5.9c-0.7-1.3-1-2.1-1.5-2.9c-0.6-0.9-1.3-0.8-1.3,0c-1.9,23.2-3.3,50.5-3.4,87.7c-1.4,0.1-2.6,0.1-3.7,0.2
		c-9.7,0.7-16.6,1-24.4,0.5c-0.7,0-0.7,0.2-0.3,0.9c0.4,0.7,1.7,2.3,2.8,3.1c1.5,1.1,1.7,0.6,3.4,1.7c1.9,1.6,1,1,4,2.1
		c3.1,1,5.2,1.5,8.9,1.6c2,0.1,6.8,0.1,9.1,0.1c0,7.9,0.1,14.9,0.2,19.1c0.3,6.1,0.5,9.2,3.1,11.2c1.8,1.4,2.6,2.4,3.8,2.9
		c1.1,0.5,1.5,0.2,1.7-1c0.4-2.6,0.7-7.1,0.8-12.1c0.1-4,0.1-11.4,0.1-20.4c9-0.5,18.9,0,27.6-1.4c-0.1,21,0.1,41.7,0.5,50.3
		c0.2,3.7,1.1,6.1,2.7,7.3c1.6,1.3,2.6,2,3.5,2.5c0.9,0.4,1.5,0.2,1.7-0.6c0.8-2.7,1.1-7,1.2-12.2c0.2-9.1,0.3-28.5,0.3-48.7
		c0.9-0.6,1.6-1,2.4-1.5C79.9,127,80.5,126.2,81.2,125.4z"/>
	<path d="M248.7,166.6c-7.2-0.3-17.1-0.2-27.1,0.1c0.1-21.5-0.4-88-1.5-119.3c8.2-0.4,15.5-1,19.4-1.7c2.4-0.5,3.6-1,4.9-1.8
		c1.1-0.7,2.4-1.5,2.9-2.2c0.8-1,0.7-1.3-0.6-1.4c-6.9-0.4-17.3-0.6-27-0.5c0-0.6-0.1-1.2-0.1-1.8c-0.1-2.5-0.4-4-1.8-5.4
		c-0.7-0.7-1.3-1.8-2.3-2.4c-0.9-0.5-1.3-0.3-1.4,0.9c0,2.6-0.1,5.5-0.2,8.7c-6.6,0.1-12.5,0.3-16.6,0.6c-2.5,0.2-3.9,1-5.2,2.2
		c-1.3,1.2-2.5,2.2-3.3,3.4c-0.7,1.1-0.3,1.8,1.4,1.8c5.7,0.2,14.6,0.1,23.5-0.2c-1.2,34.5-3.5,91.3-0.7,112.5
		c0.3,2.1,0.7,3.3,2,4.5c0.8,0.7,1.4,1.4,2.1,2.1c-12.3,0.5-24.3,1.4-31.9,2.6c-0.8,0.1-1.2,0.8-0.3,1.5c0.8,0.6,1.9,1.1,3,1.6
		c1.8,1,3.1,1.7,6.5,1.8c9,0.4,30.6,1,42.3,0.6c5.1-0.2,7.6-1.3,10-3.7c1.2-1.3,1.9-2,2.7-2.8C250.4,167.3,250.2,166.6,248.7,166.6z
		"/>
	<path d="M338,113.5c0.7-5.9,0.9-8.4-1.2-8.6c-2.5-0.2-6.9,4.6-7.7,10.3c-0.5,3.8,0.5,7.8,1.8,11.7c-1.4,4.5-2.8,9.4-4.4,13.6
		c-0.7-1.5-1.3-3.1-1.8-4.5c-0.3-0.7-0.6-0.7-0.9,0.1c-0.3,0.9-0.1,1.8-0.2,3.1c-0.1,1.3-0.3,2.4,0.1,4.1c0.1,0.5,0.3,1.1,0.5,1.7
		c-1.5,3.2-2.9,5.2-3.8,5.5c-2.6-2.4-0.7-23.2-0.7-29.9c0-3.7-0.3-5-1.6-6.3c-1.1-1.1-1.9-2.1-3-2.6c-1.5-0.8-2.1-0.1-2.3,1.4
		c-0.6,4.7-0.5,12.3-0.9,20.7c-0.4,10.2-2.8,18.5-6.2,19.9c-4.7-4.6-2.1-28.1-1.9-38.2c0-3.5-0.1-4.6-0.9-6.1
		c-0.5-0.9-1.2-2.3-1.9-3.2c-0.9-1.1-1.7-0.8-1.9,0.5c-1.4,6.1-2.7,21.3-3.3,30.5c-0.5,10.7-2.6,17.9-6.5,19
		c-5.2-5.2,0.5-59.4,1-82.9c0.1-3.5-0.3-5.1-2-7.3c-1-1.3-1.4-2.4-2.6-3.6c-1.4-1-2.4-0.8-2.6,0.8c-1.3,10.2-2.3,37.1-2.4,51.5
		c-0.3-0.4-0.7-0.9-1.1-1.2c-1.7-1.5-2.9-3.2-5.1-3.2c-5.3,0-10.4,10.7-12.9,28.1c-1.5,10.4-3.5,14.6-5.5,15.5
		c-2.1-2.4-1.6-17.8-1.2-25.4c0.3-5.5-0.3-7.2-2.2-9.4c-0.9-1.1-1.5-2.3-2.5-3.2c-1.4-1.3-2.7-1.1-3.8,0.7c-3.2,5.2-6.8,15-8.1,23.9
		c0.1-8,0.2-18-0.1-23.8c-0.1-2.1-0.4-3.1-1-4.1c-0.6-0.9-1.4-1.9-2.2-2.7c-0.8-0.7-1.4-0.7-1.6,0.5c-2,10.2-3.1,31.8-2,41.5
		c0.4,3.5,0.9,5.1,2.5,6.6c1.1,1,1.9,1.8,2.7,2.3c1.4,0.7,1.9,0.7,2.1-0.9c1.3-13.9,5-27.7,8.4-33.6c0.6,3.5-0.6,16.3,0.9,23.5
		c0.8,3.9,2.3,6.1,4.9,8.1c1.7,1.3,2.5,2.1,3.8,2.1c1.9,0,4.2-2.8,5.2-8.3c0.3,5.6,2.4,9.3,5.8,11.7c2.2,1.5,3.2,2.3,5,2.5
		c2.9,0.2,6.7-6.2,8-15.2c0.5,3.9,1.7,6.7,5.1,9.1c2.1,1.5,3.5,2.9,5.4,2.9c2.6,0,5.7-4.7,6.9-11.8c0.9,2.2,2.2,3.8,4.4,5.4
		c3,2.2,4.5,3.9,6.9,3.9c3,0,4.8-5.1,5.2-11.4c0.6,2.8,2.1,4.5,4.1,5.8c1.3,0.8,2.7,1.8,3.9,1.8c1.5,0,3-1.8,4.5-4.7
		c2.5,5.5,6.8,11.1,10.4,11.1c1.8,0,3.1-1.7,4.8-4.3c1.5-2.5,3.4-3.4,3.4-8.4c0-7.8-7.1-18.2-9.8-24.4
		C337,120.9,337.7,116.5,338,113.5z M272.2,158.3c-1.9-1.3-3-5.5-3-12.6c0-13,4-27.5,7.4-29.2c2.1,1.5,3.7,7.2,3.7,16.3
		C280.2,146.8,274.8,157.7,272.2,158.3z M338.7,155.9c-2,0.1-6.3-3.9-8.9-8.8c1.3-4.1,2.6-9,3.7-14
		C336.9,141.9,340,152.7,338.7,155.9z"/>
	<path d="M403.7,112.5c3.6,0,5.6-3.5,5.6-8.2c0-6-4.4-11.1-7.6-11.1c-3.6,0-6.5,4.6-6.5,9.7C395.2,107.8,398.8,112.5,403.7,112.5z"
		/>
	<path d="M484.2,141.6c-8.7-1-19.5-1.1-28.8-0.7c-2.4-5.7-5.6-11.6-7.4-15.3c1.1-5.4,1.8-9.4,2.2-12.6c0.8-6.2,1-8.8-1.3-9
		c-2.8-0.2-7.6,4.8-8.5,10.8c-0.7,4.5,0.8,8.9,2.6,13.7c-1.3,4.2-3.5,9.5-6.1,14.4c-3.8,0.9-4,2.2-3,5.1c-3.6,5.5-7.5,9.7-11.2,10.2
		c-3.3-1.7-5.1-6.9-5.3-12.6c8.5,3.7,14.5-1.6,15.8-13.4c0.9-7.6-0.4-12.1-4.1-14.5c-1.7-1.2-2.7-2.3-4.6-2.3
		c-5.2,0-13.9,12.5-14.2,26.1c-0.1,2.8,0.1,5.3,0.6,7.5c-1.3,4.3-4.1,9.3-6.7,9.6c-2.8-4.4-1.4-21.8-1.1-31.3c0.1-3.1-0.4-5-1.4-6.1
		c-0.9-1.1-1.9-1.7-3.2-2.8c-1.3-1.1-1.8-0.7-2.1,1c-0.6,3.3-0.9,8.8-1.5,15.3c-1.2,12.5-6.5,18.6-9.3,19.3
		c-2.5-3.2,0.4-21.7,2-30.5c0.6-3.4,0.8-5.6,0.4-7.3c-0.6-2.2-1.9-3.7-3.1-5.3c-1-1.3-1.9-1-2.8,0.9c-3.7,7.9-8.2,11-11,11.2
		c-0.3-8.2-1.5-15.6-4.5-15.6c-1.9,0-3.7,3.4-3.7,10.1c0,5.5,1.6,9.2,4.1,10.8c-0.2,11.8-3.7,26-8,28.1c-4.2-5.8-2.3-35.1-1.3-53
		c6.5,0.3,13.3,0.7,19,0.6c4,0,6.1-0.4,8.2-1.6c1.5-0.8,2.8-1.9,4-2.8c1.3-1,1.1-1.8-0.3-2c-6.8-1.2-19.1-1.6-30.5-1.6
		c0.1-1.8,0.1-3.2,0.1-4.3c-0.1-3.9-0.3-6-1.6-8.6c-0.8-1.8-2.2-3.5-3.6-4.6c-1.2-0.9-1.8-0.7-2,1c-0.6,4.5-1.1,10.3-1.6,16.6
		c-6.4,0.1-12,0.4-15.4,0.7c-10.5,1-16.2,1.7-20.2,5.1c-0.9,0.8-0.6,1.4,0.6,1.3c11-0.4,24.4-0.3,34.5-0.1c-0.9,16.4-1,34.3,1,44
		c1.5,7.1,3.4,10.8,6,13.2c2.4,2.3,3.5,3.9,4.8,3.9c6.6,0.3,10-19.2,10.4-32c0-1.2,0.1-2.5,0.1-3.7c3-0.3,6.4-2.8,8.8-6.5
		c-1.5,7.4-2.6,18.7-2.2,24.4c0.3,5.8,1,8.7,4.9,11.3c2,1.4,3.6,2.8,4.8,2.9c2.4,0.2,6.3-4.3,8.1-12.4c0.2,6,1.4,9.5,3.8,12.2
		c2.9,3.2,3.5,4.7,5.7,4.7c2.8,0,5.9-5.1,7.5-11.2c1.3,2.7,3.3,4.6,5.8,6c3.3,1.8,4.7,3.1,7.3,3.1c3.4,0,7.4-3.7,11.1-9.5
		c3.7,5.7,9.7,11.3,13.3,11.3c2.1,0,3.4-0.9,5.1-3.2c1.7-2.1,3.7-3.8,3.7-8.6c0-1.9-0.4-4-1.1-6.3c6.1,0.4,11.8,1,16,1.2
		c4.2,0.2,6.9-0.7,8.9-2.6c1.1-1,1.6-1.5,2.2-2.2C485.6,142.3,485.5,141.8,484.2,141.6z M425.6,120.2c1.3,1.3,1.3,7.9,0.7,12.3
		c-1.1,8.4-3.5,12.4-8.9,10C417.7,133.5,421.3,123.6,425.6,120.2z M445.2,133.2c1.1,2.8,2.2,5.5,3.2,8.1c-2.1,0.2-4.1,0.4-5.9,0.6
		C443.5,139.2,444.5,136.2,445.2,133.2z M451.7,158.7c-2.4,0-8.1-3.7-12.3-9.8c0.3-0.6,0.6-1.3,1-1.9c3.2-0.3,6.5-0.5,9.8-0.4
		C451.8,152,452.6,156.3,451.7,158.7z"/>
</g>
</svg>
